{"glyphs":{" ":{"ha":1194,"x_min":0,"x_max":0,"o":""}," ":{"ha":1194,"x_min":0,"x_max":0,"o":""},"A":{"ha":2058,"x_min":74,"x_max":1921,"o":"m 1392 867 q 1393 866 1393 867 q 1394 865 1393 865 q 1397 874 1397 865 q 1400 871 1400 871 q 1408 876 1401 871 q 1419 883 1414 881 q 1433 881 1426 883 q 1447 878 1440 878 q 1450 878 1449 878 q 1453 879 1451 879 q 1458 869 1453 874 q 1471 860 1464 864 q 1484 851 1478 856 q 1492 843 1490 847 q 1494 844 1493 843 q 1497 844 1496 844 q 1503 843 1500 844 q 1508 842 1506 842 q 1511 843 1511 842 q 1514 844 1511 844 q 1518 843 1517 844 q 1517 836 1517 840 q 1519 828 1517 831 q 1525 824 1522 826 q 1533 828 1529 824 q 1540 832 1536 832 q 1544 828 1544 832 q 1540 823 1544 822 q 1532 821 1536 824 q 1533 817 1532 817 q 1535 817 1535 817 q 1536 818 1535 818 q 1540 815 1538 818 q 1553 828 1550 817 q 1558 822 1557 828 q 1563 817 1560 817 q 1566 820 1565 817 q 1569 824 1567 824 q 1572 818 1572 824 q 1569 813 1572 813 q 1565 814 1567 813 q 1571 806 1565 806 q 1575 806 1574 806 q 1579 807 1576 807 q 1583 801 1581 803 q 1586 794 1586 800 q 1590 797 1590 794 q 1594 800 1589 800 q 1601 796 1596 797 q 1613 792 1606 794 q 1628 786 1619 789 l 1629 786 q 1643 776 1632 786 q 1657 764 1654 765 l 1657 763 q 1669 747 1657 757 q 1682 738 1675 742 q 1681 736 1681 738 l 1681 732 q 1690 733 1683 733 q 1696 728 1690 728 q 1704 724 1701 729 q 1711 725 1706 725 l 1715 725 q 1714 721 1715 722 q 1713 718 1713 719 q 1715 713 1713 714 q 1721 711 1718 711 q 1726 710 1724 711 q 1729 707 1729 710 l 1729 706 q 1740 708 1736 706 q 1754 711 1744 711 q 1753 708 1753 708 q 1756 706 1753 706 q 1761 704 1758 706 q 1760 703 1760 704 l 1760 700 q 1765 697 1760 697 q 1769 690 1769 697 l 1771 690 q 1774 689 1774 690 q 1778 688 1775 688 q 1776 685 1778 685 q 1774 683 1774 686 q 1778 681 1774 681 q 1782 679 1782 682 l 1781 678 q 1796 658 1792 667 q 1818 649 1800 649 q 1821 649 1819 649 q 1825 650 1822 650 q 1831 642 1825 646 q 1842 636 1836 639 q 1854 629 1849 633 q 1860 617 1860 625 q 1866 610 1860 614 q 1875 604 1872 607 l 1876 606 q 1888 592 1885 603 q 1893 576 1892 581 q 1891 572 1892 574 q 1890 565 1890 569 q 1893 564 1890 564 l 1901 564 q 1897 558 1901 561 q 1892 554 1893 554 l 1890 556 q 1874 543 1881 543 q 1868 533 1868 543 l 1868 531 q 1872 533 1871 531 q 1872 538 1872 536 q 1881 542 1875 540 q 1892 546 1886 543 q 1903 551 1897 549 q 1908 550 1906 551 q 1913 549 1910 549 q 1914 551 1914 550 q 1915 549 1915 549 q 1908 540 1915 543 q 1899 531 1900 538 q 1901 528 1899 528 q 1906 528 1904 528 q 1913 529 1908 529 q 1915 518 1915 529 l 1914 518 q 1908 515 1913 518 q 1900 509 1904 513 q 1893 503 1896 506 q 1890 501 1890 500 q 1896 500 1892 500 q 1905 503 1900 500 q 1917 507 1910 507 l 1921 507 q 1919 497 1917 503 q 1914 486 1921 490 l 1918 481 q 1897 458 1913 468 q 1865 441 1882 449 q 1837 430 1849 433 q 1826 426 1825 426 q 1819 431 1822 426 q 1817 439 1817 436 q 1801 433 1813 439 q 1792 429 1796 431 q 1770 435 1785 433 q 1756 444 1756 436 q 1751 444 1753 444 q 1749 436 1749 443 q 1746 438 1746 438 q 1743 437 1744 438 q 1739 436 1742 436 l 1736 436 q 1737 438 1736 438 q 1738 440 1738 439 q 1735 444 1738 443 q 1732 446 1733 444 q 1720 445 1725 446 q 1708 444 1715 444 q 1701 449 1703 446 q 1692 451 1699 451 q 1685 449 1686 449 q 1676 450 1681 449 q 1667 451 1672 451 l 1663 451 q 1658 454 1663 454 q 1654 457 1654 454 q 1656 460 1654 458 q 1640 462 1649 460 q 1631 472 1631 464 q 1627 472 1629 472 q 1622 471 1625 471 q 1615 474 1618 471 q 1619 476 1618 474 q 1619 481 1619 479 q 1631 490 1625 488 q 1639 494 1638 493 l 1643 494 q 1644 497 1643 496 q 1650 500 1647 500 l 1651 500 q 1657 501 1651 500 q 1669 506 1663 503 q 1682 514 1676 510 q 1688 525 1688 518 q 1685 528 1688 528 q 1681 531 1683 529 q 1660 524 1668 529 q 1647 514 1653 519 q 1634 503 1640 508 q 1618 499 1628 499 q 1613 500 1615 499 q 1606 496 1607 500 q 1600 489 1604 492 q 1593 490 1597 490 q 1577 488 1589 490 q 1561 479 1565 486 q 1551 487 1556 479 q 1546 493 1546 494 q 1540 492 1543 492 q 1535 493 1538 492 q 1529 494 1533 494 l 1528 494 q 1531 499 1531 494 q 1525 503 1531 503 q 1540 513 1532 508 q 1551 518 1549 518 q 1553 517 1553 518 q 1557 517 1554 517 q 1566 519 1564 517 q 1572 524 1568 522 q 1565 529 1572 529 q 1562 528 1563 529 q 1560 528 1561 528 l 1550 528 q 1546 527 1546 528 q 1544 526 1546 526 l 1543 526 q 1541 527 1542 526 q 1539 528 1540 528 q 1533 522 1533 528 q 1529 526 1529 526 q 1513 520 1518 526 q 1504 514 1508 514 q 1487 510 1493 514 q 1472 503 1481 506 q 1464 508 1468 507 q 1460 517 1460 510 q 1474 519 1468 519 q 1480 517 1476 519 q 1486 515 1483 515 q 1490 520 1492 515 q 1496 525 1489 525 q 1501 524 1499 525 q 1506 522 1503 522 q 1508 529 1508 522 q 1501 532 1503 532 q 1494 531 1499 532 q 1488 529 1490 529 q 1485 531 1486 531 q 1488 538 1485 536 q 1492 543 1492 539 q 1490 547 1492 547 q 1488 551 1488 546 q 1499 558 1494 551 q 1501 565 1500 561 q 1494 569 1500 569 q 1478 565 1482 569 q 1474 561 1474 560 q 1475 553 1474 557 q 1476 544 1476 549 q 1474 538 1476 540 q 1469 540 1472 540 q 1467 543 1467 539 l 1467 557 l 1458 557 q 1467 563 1461 561 q 1474 571 1472 564 l 1476 571 q 1485 574 1483 571 q 1488 579 1488 576 q 1486 584 1488 582 q 1485 590 1485 586 q 1490 597 1489 593 q 1494 600 1492 600 q 1497 599 1496 600 q 1499 599 1497 599 q 1504 606 1499 603 q 1517 613 1510 610 q 1531 621 1525 617 q 1539 631 1538 625 q 1546 626 1540 626 q 1551 628 1550 626 q 1547 619 1551 621 q 1543 613 1543 617 q 1544 610 1543 611 q 1517 603 1529 610 q 1501 597 1506 597 l 1499 597 l 1499 594 q 1497 590 1499 592 q 1496 586 1496 589 q 1500 583 1496 583 q 1517 590 1507 583 q 1526 599 1522 594 q 1528 594 1528 597 q 1524 589 1528 593 q 1517 585 1519 585 l 1515 585 q 1514 582 1514 583 q 1513 580 1513 581 q 1511 578 1513 579 q 1507 572 1508 575 l 1507 569 q 1508 568 1507 568 q 1524 572 1519 568 q 1531 581 1529 576 q 1533 588 1533 585 q 1533 592 1533 592 l 1536 592 q 1546 596 1543 592 q 1549 600 1547 597 q 1547 603 1547 603 q 1546 606 1546 603 q 1557 609 1554 606 q 1562 617 1560 613 q 1567 624 1564 621 q 1581 628 1571 628 q 1574 636 1581 636 q 1576 640 1575 638 q 1579 644 1581 644 q 1582 643 1582 643 q 1600 650 1589 650 q 1605 649 1603 650 q 1610 649 1607 649 q 1614 651 1614 649 q 1611 656 1614 656 q 1606 657 1608 657 q 1613 669 1607 664 q 1628 676 1619 674 q 1642 683 1636 679 q 1650 690 1649 686 q 1643 693 1647 693 q 1635 691 1640 693 q 1628 688 1631 689 l 1619 688 q 1609 683 1613 688 q 1604 679 1606 679 q 1601 681 1601 681 q 1600 676 1601 676 l 1599 676 q 1594 671 1599 674 q 1583 665 1589 668 q 1573 657 1578 663 q 1568 643 1568 651 q 1563 640 1565 643 q 1557 638 1560 638 q 1554 639 1556 638 q 1553 631 1553 636 q 1550 632 1551 631 q 1546 633 1549 633 q 1544 631 1544 633 q 1539 640 1539 631 q 1529 638 1531 638 q 1524 639 1525 638 q 1517 632 1517 639 q 1511 625 1518 625 q 1506 631 1508 625 l 1503 636 q 1506 648 1503 644 q 1513 653 1510 651 q 1520 655 1517 654 q 1524 660 1524 656 q 1521 661 1521 661 q 1518 657 1518 661 q 1513 660 1514 657 q 1511 663 1513 663 q 1503 655 1508 663 q 1497 649 1497 647 l 1497 646 l 1494 646 q 1485 635 1490 646 q 1472 624 1481 624 l 1469 624 q 1472 621 1469 621 q 1474 618 1474 621 q 1472 615 1474 615 q 1469 617 1471 617 q 1466 614 1467 617 q 1463 611 1465 611 q 1464 604 1464 607 q 1456 595 1464 600 q 1444 590 1447 590 q 1446 596 1446 590 q 1438 588 1444 594 q 1423 576 1431 582 q 1408 564 1415 569 q 1399 558 1401 558 l 1396 558 q 1394 554 1393 558 q 1390 550 1396 550 q 1385 553 1386 550 q 1385 557 1385 556 q 1393 567 1385 564 q 1401 578 1401 569 q 1397 584 1401 583 q 1392 589 1392 585 q 1393 590 1393 590 l 1396 590 q 1398 591 1397 590 q 1401 592 1399 592 q 1392 611 1401 610 q 1394 615 1392 614 q 1397 618 1397 615 q 1382 613 1388 618 q 1378 610 1376 608 l 1378 604 q 1375 599 1378 600 q 1372 594 1372 597 q 1374 590 1372 592 q 1379 578 1376 589 q 1376 572 1379 572 q 1371 569 1372 572 l 1371 567 q 1370 563 1371 564 q 1369 557 1369 561 q 1364 558 1367 557 q 1358 560 1361 560 q 1356 557 1356 560 l 1358 551 q 1364 547 1360 547 q 1366 549 1365 547 q 1371 551 1367 551 q 1366 542 1371 544 q 1356 538 1361 540 q 1352 544 1353 540 q 1349 549 1351 549 q 1337 543 1339 549 q 1329 535 1335 538 l 1328 535 q 1323 533 1324 535 q 1319 531 1322 531 q 1315 527 1315 529 q 1314 523 1314 525 q 1312 519 1314 521 q 1301 517 1310 517 l 1299 517 q 1294 514 1296 517 q 1289 511 1292 511 l 1286 514 q 1288 516 1286 515 q 1289 519 1289 517 q 1283 533 1289 525 q 1274 544 1276 540 q 1271 543 1271 543 l 1272 543 l 1274 542 l 1272 542 l 1272 538 q 1269 534 1272 535 q 1267 526 1267 533 l 1267 524 q 1258 526 1258 526 l 1256 526 q 1250 528 1253 526 q 1246 516 1247 524 q 1240 503 1244 508 q 1238 506 1238 506 q 1240 510 1238 508 q 1243 514 1243 511 q 1239 522 1243 522 q 1225 514 1228 522 q 1217 506 1222 506 q 1213 507 1214 506 q 1210 508 1211 508 q 1208 506 1208 508 q 1206 503 1208 503 l 1204 504 q 1199 507 1201 507 q 1182 499 1193 500 q 1171 496 1171 499 q 1176 490 1171 490 q 1183 493 1179 490 q 1192 496 1186 496 q 1194 481 1194 494 q 1186 479 1192 479 q 1181 476 1181 479 q 1178 483 1178 479 q 1176 486 1179 486 q 1168 481 1172 486 q 1165 488 1165 481 q 1160 494 1165 494 q 1158 492 1158 494 q 1158 486 1158 489 q 1150 476 1150 483 q 1154 473 1150 474 q 1161 469 1158 472 q 1147 463 1160 463 l 1147 465 q 1143 473 1147 471 q 1139 481 1139 475 l 1139 485 l 1140 485 q 1140 488 1140 486 q 1139 492 1139 489 q 1143 497 1139 494 q 1147 503 1147 499 q 1144 506 1147 507 q 1139 508 1140 504 l 1132 500 q 1128 503 1129 503 q 1124 503 1129 503 q 1119 500 1119 503 q 1122 494 1119 497 q 1124 489 1124 492 q 1118 486 1124 486 q 1125 474 1118 474 q 1119 466 1125 471 q 1108 457 1114 461 q 1096 449 1101 453 q 1090 446 1090 446 q 1091 458 1090 453 q 1092 471 1092 463 q 1089 474 1092 474 q 1086 476 1086 474 q 1088 483 1086 479 q 1090 490 1090 486 l 1090 493 q 1100 510 1100 494 q 1092 519 1097 517 q 1086 538 1086 522 q 1090 556 1086 547 q 1085 560 1088 557 q 1079 563 1083 563 q 1081 568 1081 565 q 1080 572 1081 571 q 1079 576 1079 574 l 1079 578 q 1078 581 1079 581 q 1076 585 1078 582 l 1076 600 q 1070 617 1076 607 q 1064 636 1064 626 q 1067 647 1064 644 q 1069 653 1069 650 q 1067 657 1069 656 q 1065 663 1065 658 q 1066 670 1065 667 q 1067 676 1067 674 q 1064 690 1067 688 q 1063 692 1061 692 q 1068 713 1069 700 q 1076 731 1067 725 q 1074 742 1076 733 q 1069 760 1072 750 q 1073 762 1072 760 q 1076 764 1074 764 q 1072 768 1076 768 q 1069 767 1069 768 q 1064 771 1067 771 l 1063 771 q 1064 764 1063 764 l 1071 764 q 1065 760 1068 761 q 1063 756 1061 756 q 1060 757 1061 756 q 1057 758 1058 758 q 1058 756 1057 757 q 1058 754 1058 756 q 1058 753 1058 753 q 1057 751 1057 753 q 1060 747 1057 747 q 1063 742 1063 747 q 1056 731 1060 740 q 1050 719 1051 722 q 1047 723 1049 719 q 1042 726 1044 726 q 1038 723 1039 726 q 1035 719 1038 719 q 1039 715 1035 715 q 1050 718 1044 715 q 1046 708 1050 708 q 1042 696 1042 707 q 1045 691 1042 693 q 1049 686 1049 689 q 1048 684 1049 685 q 1047 682 1047 683 q 1050 681 1047 681 q 1047 672 1046 678 q 1044 664 1049 667 q 1050 639 1050 650 q 1044 625 1050 629 q 1048 618 1047 624 q 1050 606 1049 613 q 1054 594 1051 600 q 1065 585 1057 589 q 1065 582 1065 583 q 1064 579 1064 581 q 1070 567 1064 576 q 1076 554 1076 557 q 1076 546 1076 550 q 1075 536 1075 542 q 1076 529 1075 532 q 1072 522 1074 529 q 1069 514 1069 515 l 1069 513 q 1070 511 1069 511 q 1071 510 1071 511 q 1069 508 1069 508 q 1070 503 1069 504 q 1071 500 1071 503 q 1070 494 1071 496 q 1069 489 1069 492 q 1070 485 1069 486 q 1071 479 1071 483 l 1068 479 q 1065 476 1065 479 q 1067 465 1065 471 q 1069 451 1069 460 q 1043 446 1056 446 q 1038 451 1043 450 q 1033 454 1033 451 q 1035 457 1033 457 q 1036 460 1036 457 q 1031 458 1033 458 q 1025 460 1028 458 q 1014 463 1022 463 l 1014 465 q 1012 475 1014 472 q 1007 481 1010 478 q 1004 472 1004 478 q 994 465 1004 465 l 992 467 q 989 465 989 465 l 990 465 q 978 468 989 465 q 961 474 968 471 q 962 478 961 476 q 963 482 963 479 q 954 500 963 493 l 954 513 q 951 524 954 519 q 950 523 950 524 q 949 522 950 522 q 946 523 947 522 q 942 524 944 524 q 936 522 938 524 q 939 527 938 526 q 943 531 940 528 q 950 524 946 531 q 960 531 954 528 q 958 537 960 535 q 954 542 957 539 q 944 536 944 542 q 942 540 943 538 q 938 543 940 542 q 930 538 935 539 q 922 535 925 538 q 926 528 922 529 q 933 524 931 528 q 925 514 925 521 q 933 503 925 511 q 947 496 940 496 q 946 487 947 490 q 943 481 944 483 q 944 475 944 479 q 947 467 944 471 q 944 463 943 467 q 943 458 944 458 q 947 453 947 454 l 947 449 q 951 446 947 446 q 950 442 951 443 q 949 438 949 440 q 950 435 949 436 q 942 432 947 432 q 930 435 935 432 q 919 442 925 439 q 917 437 918 442 q 913 432 915 432 q 910 433 910 432 q 908 435 908 433 q 907 432 907 433 l 908 431 l 910 431 q 906 428 908 428 q 903 425 903 428 q 899 431 897 426 q 893 436 900 435 q 897 427 893 429 q 901 419 901 425 q 890 424 896 419 l 882 429 q 884 432 882 432 q 886 435 886 432 q 884 435 886 436 q 881 436 882 435 l 881 438 q 878 451 881 442 q 874 467 876 460 q 878 468 875 468 q 885 467 882 468 q 896 465 889 465 l 901 465 l 901 458 l 903 458 q 906 460 904 460 q 908 456 908 460 l 910 457 q 908 460 910 458 q 907 463 907 461 q 910 465 907 464 q 915 451 915 463 q 933 458 928 451 q 931 461 931 461 q 928 460 929 461 q 924 458 926 458 l 922 458 q 919 462 922 461 q 915 465 917 463 l 915 467 q 913 469 915 468 q 911 474 911 471 q 912 476 911 475 q 913 478 913 476 q 910 481 913 481 q 911 485 910 483 q 913 489 913 486 q 903 503 913 501 q 908 515 903 514 q 896 523 903 522 q 886 535 889 524 q 881 533 885 533 q 876 534 878 533 q 871 535 874 535 l 868 535 q 861 540 863 536 q 853 544 860 544 q 856 549 853 549 q 858 554 858 550 q 851 558 858 558 l 840 558 l 835 567 q 831 578 831 572 l 839 578 q 831 589 839 589 l 826 589 q 828 593 828 592 q 824 601 828 592 q 821 610 819 610 q 818 607 818 610 l 817 606 q 821 599 817 601 q 825 592 825 596 l 821 592 q 814 585 814 592 q 807 578 814 578 q 813 567 808 575 q 824 550 818 560 q 838 526 829 539 q 835 522 838 524 q 832 518 832 521 q 835 515 832 515 q 839 515 838 515 q 835 511 838 511 q 832 506 832 511 q 841 497 832 503 q 853 479 850 490 l 854 479 q 865 474 857 479 q 872 463 872 469 q 868 454 872 456 q 864 447 864 453 q 869 438 864 443 q 875 429 875 433 q 874 419 875 424 q 872 408 872 415 q 867 410 869 408 q 863 411 865 411 q 860 406 860 411 q 861 403 860 403 q 865 404 863 403 q 869 406 867 406 q 872 401 872 406 q 861 400 868 400 q 847 408 850 400 q 840 405 842 408 q 832 401 839 401 q 819 408 829 408 q 816 406 817 408 q 813 404 815 404 q 808 406 810 404 q 804 407 807 407 q 800 406 801 407 q 802 402 800 404 q 804 397 804 400 q 811 399 810 397 q 815 401 813 401 q 817 398 815 399 q 819 394 819 397 l 803 394 q 787 397 796 394 q 771 403 778 400 q 759 408 764 406 q 756 411 754 411 q 749 408 749 411 q 739 404 750 404 q 738 401 738 403 q 738 398 738 400 q 739 393 739 396 q 736 391 739 390 q 733 389 733 392 q 739 388 733 388 q 735 385 739 385 q 732 388 732 385 q 726 385 728 388 q 722 382 725 382 q 718 385 721 382 l 718 375 q 708 380 713 378 q 694 382 703 382 q 693 379 693 379 q 698 374 693 375 q 703 365 703 374 q 701 361 703 363 q 690 367 696 361 q 685 382 685 374 q 681 380 683 381 q 676 375 678 379 q 628 397 647 386 q 611 408 610 408 q 606 407 608 408 q 596 406 603 406 q 592 413 596 411 q 589 422 589 415 l 593 422 q 601 419 600 422 q 607 413 601 415 q 604 424 607 415 q 586 432 601 432 q 588 433 586 433 q 590 433 590 432 q 588 441 590 436 q 583 446 586 446 l 581 446 q 570 458 578 456 q 560 463 563 461 q 555 461 557 463 q 550 460 553 460 q 535 468 550 464 q 515 474 521 472 q 509 470 510 474 q 506 465 508 467 q 512 454 507 457 q 523 450 517 451 q 535 447 529 449 q 546 436 542 444 q 550 438 547 438 q 564 431 556 438 q 580 417 572 425 q 592 403 588 410 q 596 397 597 397 l 599 397 q 622 392 617 397 q 626 388 628 388 l 629 388 q 631 389 631 388 l 639 378 q 638 374 639 375 q 638 371 638 374 q 639 368 639 369 q 638 360 640 364 q 619 351 632 351 q 615 354 618 351 q 597 347 600 354 q 586 339 593 339 q 583 340 583 339 q 581 342 582 342 q 579 340 579 342 q 574 351 574 347 l 574 354 q 552 366 557 354 q 543 381 547 378 l 543 385 q 534 406 543 397 q 515 422 525 415 q 497 431 506 428 q 492 435 489 435 q 494 442 492 440 q 496 449 496 443 q 481 463 496 454 q 465 472 467 471 q 467 478 465 478 q 469 481 469 479 q 466 489 468 485 q 460 493 464 493 q 456 489 456 493 q 456 485 456 486 q 457 481 457 483 q 449 496 449 485 q 454 508 449 503 q 449 519 454 514 q 443 525 444 525 q 440 517 440 525 l 421 535 q 422 541 421 538 q 426 544 422 544 q 423 550 425 549 q 421 556 421 551 q 429 563 421 560 q 440 569 438 567 q 440 574 440 571 q 436 576 439 576 q 431 574 433 576 q 425 571 429 571 q 422 574 421 571 q 419 578 424 578 q 415 560 413 572 q 411 542 418 547 q 413 536 411 539 q 418 531 415 531 q 417 528 418 529 q 417 525 417 526 q 418 522 417 522 q 419 518 418 521 q 421 515 419 515 q 420 510 421 513 q 419 504 419 507 q 421 500 419 501 q 416 497 418 497 q 413 494 414 496 q 416 486 413 488 q 421 481 419 485 q 425 483 424 481 q 429 486 426 486 q 439 473 432 486 q 446 449 446 460 q 460 435 447 444 q 472 421 472 426 q 471 417 472 418 q 469 413 469 415 q 478 404 469 410 l 485 397 l 489 399 l 489 397 l 492 397 l 492 399 q 494 397 493 399 q 499 394 494 394 l 503 394 q 508 381 503 385 q 518 371 513 376 l 518 368 q 522 360 518 363 q 526 354 525 358 q 520 349 524 351 q 517 339 517 346 q 517 336 517 338 q 518 333 518 335 q 513 333 515 333 q 510 332 510 333 q 509 335 508 332 q 508 339 510 338 q 506 345 508 344 q 503 349 503 346 l 500 349 q 496 351 497 349 q 492 353 494 353 q 481 338 486 349 q 475 332 475 326 q 467 333 471 332 q 460 335 463 335 q 450 332 458 335 q 444 334 450 336 q 436 339 438 332 l 433 338 q 410 356 414 346 q 401 367 407 367 q 395 370 393 367 q 392 374 397 374 q 388 372 389 374 q 385 369 386 369 q 383 371 383 369 q 380 380 383 378 q 372 385 376 382 q 379 389 375 388 q 385 394 383 390 q 380 399 385 397 q 369 401 375 401 q 358 397 360 401 q 356 401 357 399 q 354 404 356 404 q 342 397 346 404 q 332 388 338 390 q 324 394 325 390 q 317 392 318 394 q 314 389 317 389 q 304 389 310 385 q 293 399 299 393 q 284 411 288 406 q 282 415 281 417 q 278 420 281 417 q 275 426 275 424 l 275 432 q 274 436 275 436 q 265 431 268 431 q 260 434 260 431 q 260 444 260 438 q 272 451 269 444 q 275 460 275 457 l 276 460 q 281 463 281 460 q 288 465 282 465 q 282 474 282 471 l 282 476 q 287 481 285 476 q 296 485 289 485 l 300 485 l 300 488 q 298 491 300 490 q 296 496 296 492 q 300 507 300 500 q 305 504 306 507 q 307 501 304 501 q 315 510 315 501 q 311 513 315 514 q 307 517 307 511 q 317 516 306 517 q 329 518 329 515 q 326 522 329 521 q 324 524 324 522 q 324 530 324 528 q 325 535 325 532 q 324 536 325 536 q 324 538 324 536 q 326 542 324 542 q 332 543 329 543 q 338 544 335 543 q 340 550 340 544 q 339 557 340 554 q 343 567 339 563 l 349 572 q 345 575 349 575 q 339 578 342 575 q 344 598 340 586 q 352 620 349 610 q 359 638 356 631 q 365 646 363 646 l 369 646 q 371 649 371 647 q 374 650 371 650 l 378 650 q 381 656 382 653 q 386 660 381 660 q 385 663 386 663 q 385 664 385 663 l 390 667 q 388 669 390 669 q 386 671 386 669 l 388 671 q 390 674 390 671 q 388 674 389 674 q 386 681 386 674 q 389 679 388 679 l 390 678 q 393 681 390 678 q 392 683 393 683 q 390 681 390 682 q 389 682 389 682 q 399 690 389 690 q 396 700 396 696 q 408 714 396 714 q 410 713 410 714 q 414 713 411 713 q 429 729 425 722 q 433 751 433 736 l 443 751 q 452 754 453 751 q 454 760 451 757 q 457 758 456 758 q 469 769 465 758 q 475 781 474 781 l 475 783 q 474 788 475 786 q 472 794 472 790 l 474 794 q 476 797 476 794 q 479 800 476 800 q 483 799 482 800 q 486 797 485 797 q 489 799 488 797 q 492 801 492 801 q 496 800 494 801 q 494 801 494 800 l 494 804 q 504 807 494 807 q 510 804 510 807 l 510 803 q 519 808 515 803 q 529 814 522 814 q 536 813 532 814 q 543 813 540 813 q 550 821 550 813 q 555 819 554 821 q 558 817 556 817 q 567 821 565 817 q 568 829 568 825 l 568 843 q 576 847 574 843 q 585 851 579 851 q 587 851 586 851 q 589 850 588 850 q 591 851 592 850 q 592 851 590 851 q 611 843 599 851 q 616 852 617 846 q 618 863 615 858 q 625 858 624 863 q 629 850 626 854 q 633 854 633 851 q 632 858 633 856 q 631 864 631 861 q 636 861 633 861 q 640 863 639 861 q 643 864 642 864 q 646 860 646 864 q 651 863 650 860 q 654 867 651 867 q 672 864 663 864 q 686 857 682 864 q 685 853 686 854 q 685 849 685 851 l 685 846 q 697 849 690 849 q 704 856 704 850 q 715 856 710 856 q 726 853 721 856 q 722 849 725 850 q 718 843 719 849 q 722 840 718 839 q 725 824 725 840 l 726 824 q 735 833 731 824 q 754 849 739 843 l 754 846 q 751 840 754 843 q 749 831 749 838 q 754 828 751 828 q 764 834 763 828 q 771 843 765 840 q 774 839 774 842 l 774 833 q 775 828 774 829 q 785 833 782 829 q 792 842 788 836 q 808 835 803 842 q 819 829 814 829 q 826 832 825 829 q 832 835 828 835 q 844 828 842 835 q 853 817 847 821 q 867 829 864 817 l 869 829 q 879 832 876 829 q 888 836 882 835 q 897 831 888 831 q 906 833 899 831 q 919 838 913 835 q 933 844 926 842 q 940 849 939 847 q 946 847 942 847 q 957 855 953 847 q 976 869 961 863 q 978 873 975 869 q 984 881 981 876 q 990 888 988 885 q 992 886 993 890 q 992 885 992 885 q 993 883 993 885 q 991 876 993 881 q 988 871 989 872 q 994 873 993 871 q 994 878 994 875 q 995 884 994 882 q 1000 886 996 886 q 1004 883 999 886 l 1013 892 q 1015 890 1015 890 q 1018 894 1015 892 q 1024 900 1021 897 q 1031 906 1028 903 q 1032 908 1033 908 q 1033 907 1032 907 l 1035 906 q 1036 911 1036 906 q 1039 917 1036 917 q 1046 914 1046 917 q 1049 910 1046 911 q 1048 913 1049 911 q 1047 917 1047 914 q 1049 922 1047 919 q 1054 921 1050 921 q 1065 930 1064 921 q 1079 939 1067 939 q 1083 938 1082 939 q 1086 936 1083 936 q 1094 941 1094 936 q 1099 949 1094 946 q 1100 943 1100 949 q 1104 947 1104 943 l 1104 949 q 1106 951 1104 951 q 1110 950 1108 951 q 1113 949 1111 949 q 1131 956 1124 949 q 1140 953 1136 951 q 1144 946 1144 954 q 1147 949 1147 946 q 1150 953 1147 953 l 1153 953 l 1153 951 q 1158 949 1153 950 l 1167 942 l 1178 942 q 1181 943 1181 942 q 1182 941 1183 943 q 1183 936 1181 939 q 1186 938 1185 938 q 1189 935 1189 938 q 1196 941 1196 935 q 1199 950 1196 947 q 1206 948 1201 947 q 1210 946 1210 949 l 1210 940 q 1215 937 1210 938 q 1219 932 1219 936 l 1219 929 q 1223 933 1222 932 q 1229 935 1224 935 l 1239 935 q 1243 938 1242 936 q 1247 939 1244 939 q 1251 937 1251 939 q 1252 933 1251 935 q 1255 929 1253 931 q 1265 928 1257 928 q 1267 933 1268 931 q 1269 935 1265 935 q 1274 927 1272 935 q 1283 919 1275 919 q 1290 922 1288 919 q 1299 925 1293 925 q 1302 922 1301 925 q 1303 918 1303 919 q 1301 914 1303 915 q 1297 910 1299 913 q 1299 899 1299 907 q 1293 883 1299 888 q 1297 875 1296 876 q 1308 871 1299 874 q 1307 861 1307 867 q 1313 853 1307 857 q 1322 860 1317 853 q 1326 864 1326 867 q 1324 869 1326 868 q 1322 876 1322 871 l 1326 876 q 1329 879 1329 876 q 1328 883 1329 881 q 1328 886 1328 885 q 1336 894 1335 888 q 1346 900 1338 900 l 1349 900 q 1346 897 1349 896 q 1343 892 1343 899 l 1343 883 q 1342 876 1343 879 l 1344 876 q 1350 880 1349 876 q 1357 883 1351 883 q 1356 890 1357 886 q 1356 896 1356 893 q 1363 903 1356 903 q 1360 888 1360 896 q 1360 878 1360 886 q 1363 869 1361 869 q 1365 871 1364 871 q 1369 869 1368 871 q 1371 867 1369 867 q 1375 867 1374 867 q 1379 868 1376 868 q 1383 867 1382 868 q 1386 874 1386 867 q 1381 876 1385 876 l 1378 876 q 1371 879 1374 876 q 1376 885 1371 885 q 1383 883 1379 885 q 1397 879 1388 882 q 1394 872 1397 872 q 1392 868 1392 872 l 1392 867 m 768 -226 l 778 -226 q 769 -218 778 -218 q 771 -217 771 -217 q 767 -208 768 -212 q 761 -204 767 -204 q 763 -199 761 -200 q 764 -197 764 -199 q 762 -193 764 -194 q 760 -189 760 -192 q 761 -186 760 -187 q 755 -184 761 -183 q 749 -168 749 -185 q 758 -156 749 -157 q 757 -144 757 -147 q 757 -131 757 -140 q 761 -122 757 -124 q 765 -115 765 -121 q 763 -88 764 -103 q 758 -62 763 -74 q 762 -58 758 -58 q 765 -56 765 -58 l 765 -50 q 763 -46 765 -46 q 761 -42 761 -46 q 765 -31 761 -35 q 771 -26 769 -26 q 765 -14 768 -19 q 763 1 763 -8 q 766 15 763 13 q 772 25 769 18 q 770 40 772 28 q 765 54 768 53 q 761 50 761 51 l 761 44 q 752 29 761 35 q 743 21 743 24 q 749 18 743 18 q 744 13 746 14 q 743 10 743 11 q 746 2 743 4 q 749 -7 749 0 q 746 -13 749 -12 q 743 -19 743 -14 q 744 -26 743 -22 q 744 -33 744 -31 q 741 -41 744 -39 q 738 -49 738 -43 q 742 -64 738 -58 q 736 -67 739 -67 q 733 -68 733 -67 q 735 -72 733 -71 q 736 -74 735 -74 q 734 -76 736 -76 q 732 -78 732 -76 q 735 -82 732 -82 q 738 -81 738 -81 q 743 -83 740 -81 q 742 -96 743 -90 q 740 -107 740 -101 q 742 -115 740 -112 q 732 -124 735 -115 q 729 -129 729 -132 q 733 -133 729 -132 q 736 -137 736 -133 q 728 -143 731 -143 q 726 -142 726 -143 q 725 -142 726 -142 q 722 -144 725 -144 q 729 -158 722 -158 q 726 -165 729 -162 q 724 -172 724 -167 q 728 -178 724 -179 q 739 -179 733 -176 q 738 -183 738 -181 q 738 -187 738 -186 q 739 -189 739 -187 q 736 -192 739 -192 q 746 -208 740 -200 q 751 -229 751 -215 q 749 -239 751 -233 q 747 -243 747 -242 l 746 -243 q 743 -244 744 -243 q 742 -249 742 -246 q 738 -244 740 -247 q 735 -242 736 -242 q 733 -247 733 -242 q 729 -242 731 -244 q 724 -240 728 -240 l 719 -240 q 721 -237 721 -237 q 713 -233 721 -233 q 710 -231 713 -233 q 706 -224 708 -228 q 700 -218 703 -221 q 697 -215 697 -215 l 697 -214 q 699 -211 697 -212 q 702 -215 703 -211 q 708 -218 701 -218 l 710 -218 q 701 -198 710 -211 q 690 -183 692 -185 q 690 -174 690 -179 q 686 -165 689 -168 q 683 -176 683 -169 q 682 -183 682 -182 q 683 -195 682 -189 q 683 -204 683 -201 q 681 -212 683 -208 q 679 -218 679 -215 q 684 -225 679 -221 q 690 -231 689 -229 q 685 -233 690 -233 q 679 -239 679 -232 q 669 -230 676 -235 q 652 -219 661 -225 q 635 -210 643 -214 q 625 -206 626 -207 q 628 -199 628 -200 q 624 -190 628 -194 q 608 -192 617 -192 q 590 -179 594 -192 q 585 -165 585 -167 q 586 -163 585 -164 q 588 -160 588 -162 q 581 -153 588 -157 q 574 -149 574 -150 q 574 -146 574 -147 q 575 -143 575 -144 q 572 -135 575 -140 q 567 -126 569 -131 q 561 -117 564 -122 q 563 -107 561 -111 q 565 -99 565 -103 q 559 -94 565 -94 q 550 -94 553 -94 q 552 -108 550 -101 q 560 -117 554 -115 q 553 -128 557 -124 q 549 -139 549 -132 q 561 -162 549 -150 q 575 -176 574 -175 q 572 -178 575 -178 l 568 -178 q 567 -181 567 -179 q 567 -183 568 -183 q 550 -176 554 -183 q 539 -168 546 -168 l 539 -171 q 525 -159 528 -167 q 522 -149 522 -151 q 520 -140 522 -143 q 518 -131 518 -136 q 519 -124 518 -128 q 519 -112 519 -119 q 515 -99 519 -106 q 518 -85 518 -92 q 519 -76 518 -79 q 516 -62 517 -69 q 515 -46 515 -54 q 524 -2 515 -28 q 533 39 533 24 q 548 44 549 39 q 547 56 547 49 q 544 54 544 56 q 540 53 543 53 q 536 54 538 53 q 538 60 536 58 q 543 67 540 63 q 542 72 542 68 q 548 92 542 86 q 561 108 554 97 q 560 113 561 110 q 557 115 560 115 q 558 122 558 117 q 558 128 558 125 q 557 135 557 132 q 562 148 557 146 q 567 157 567 150 q 564 163 567 161 q 560 164 561 164 l 554 164 q 545 157 547 164 q 542 141 543 150 q 537 123 540 132 q 525 110 533 114 l 525 104 q 522 99 525 99 q 518 92 518 99 q 522 85 518 86 q 525 76 525 83 q 508 60 517 72 q 511 47 511 51 q 506 32 511 36 q 507 26 506 28 q 508 22 508 25 q 502 17 508 15 q 496 10 496 18 q 499 8 496 7 q 503 4 503 8 q 499 -12 503 -7 q 492 -24 494 -18 q 501 -29 492 -29 q 497 -39 497 -33 q 498 -48 497 -43 q 501 -56 499 -53 q 501 -74 501 -65 q 500 -89 500 -82 q 501 -103 500 -99 q 499 -109 501 -108 q 493 -112 496 -110 q 495 -118 496 -112 q 500 -122 494 -124 q 497 -124 500 -124 q 494 -128 494 -124 q 495 -133 494 -131 q 496 -137 496 -135 q 492 -142 496 -142 q 469 -138 483 -142 q 456 -125 456 -135 q 457 -122 456 -124 q 448 -119 449 -122 q 440 -115 447 -115 q 442 -110 442 -114 q 436 -98 442 -104 q 428 -85 431 -92 q 433 -83 433 -85 q 429 -76 433 -78 q 421 -71 425 -74 q 422 -60 422 -67 l 422 -51 q 425 -42 422 -46 q 420 -27 422 -36 q 418 -8 418 -18 q 422 4 418 -1 q 425 13 425 10 q 423 16 425 15 q 421 19 421 17 q 425 25 421 22 q 429 35 429 28 q 428 36 429 36 q 426 40 426 36 q 423 38 425 39 q 421 33 421 38 l 421 32 q 417 26 417 32 q 419 25 417 25 q 414 19 417 18 q 411 18 411 21 l 411 17 q 407 13 408 15 q 406 11 406 10 q 406 9 406 10 q 407 6 407 8 q 403 1 404 4 q 400 -5 401 -1 q 399 -12 399 -8 l 397 -14 l 392 -22 q 397 -31 392 -31 q 401 -37 401 -32 q 397 -40 401 -40 q 392 -46 392 -40 q 396 -51 392 -53 q 400 -56 400 -49 q 396 -63 400 -64 q 392 -76 392 -62 q 388 -75 390 -76 q 385 -74 386 -74 q 383 -76 383 -74 q 379 -72 379 -76 q 376 -67 379 -67 q 368 -71 371 -67 q 365 -78 365 -75 q 357 -68 358 -78 q 356 -49 356 -58 q 357 -42 356 -44 q 358 -36 358 -40 q 358 -31 358 -35 q 357 -25 357 -28 q 367 5 360 -6 q 378 19 375 15 l 378 35 q 378 43 378 40 q 383 51 378 46 q 383 54 383 53 q 382 57 382 56 q 385 60 382 60 q 388 64 388 60 q 386 67 388 67 q 385 69 385 67 q 389 71 386 71 q 393 69 392 71 q 397 68 394 68 q 400 72 400 68 q 400 81 400 76 q 397 77 394 81 q 392 74 399 74 l 389 74 q 363 59 369 74 q 351 40 356 44 l 353 39 l 353 38 l 350 38 l 350 33 q 348 31 350 31 q 343 26 346 32 q 344 19 343 22 q 346 15 346 17 q 342 11 346 11 q 338 6 338 11 q 338 2 338 3 q 339 -1 339 1 q 335 -3 335 -1 q 336 -10 335 -6 q 338 -17 338 -15 q 335 -27 338 -26 q 333 -29 333 -28 l 333 -32 q 329 -42 332 -37 q 325 -50 324 -50 l 324 -50 q 323 -56 324 -53 q 319 -58 322 -58 q 317 -57 318 -57 q 321 -49 321 -56 q 315 -43 321 -43 q 309 -49 308 -43 q 307 -56 310 -56 q 299 -51 300 -56 q 297 -38 297 -46 q 297 -24 297 -31 q 292 -12 296 -17 q 301 4 301 0 q 300 17 301 13 q 304 15 301 15 q 311 25 311 15 q 307 32 311 32 q 300 18 300 32 q 294 19 297 19 q 287 15 288 19 q 284 7 286 11 q 276 -1 282 3 q 257 -6 271 -6 q 255 0 257 0 q 253 3 253 0 q 254 6 253 4 q 250 8 254 8 q 246 10 246 7 q 247 13 247 13 q 234 19 246 13 q 222 28 222 25 q 224 36 222 32 q 225 43 225 40 q 222 47 225 44 q 226 54 224 51 q 229 58 229 57 q 228 63 229 61 q 226 68 226 64 q 232 72 228 72 q 236 68 233 72 q 252 78 247 71 q 257 82 257 86 q 265 83 263 82 q 272 85 268 85 q 281 83 276 85 q 286 93 286 89 q 285 95 286 94 q 285 99 285 96 q 301 101 289 101 q 304 96 304 99 q 303 90 304 93 q 303 83 303 86 q 314 90 314 83 q 310 96 314 96 q 318 101 313 101 q 324 110 324 100 q 331 107 329 107 q 338 110 336 107 q 340 117 340 114 q 338 121 340 121 q 343 131 339 126 q 353 136 347 136 q 355 135 354 136 q 357 135 356 135 q 365 143 363 135 q 375 140 372 143 q 381 138 378 138 q 381 140 382 138 q 383 143 381 143 l 385 142 l 389 142 l 390 143 q 396 142 394 143 q 400 140 397 140 q 404 142 403 140 q 397 153 404 153 q 385 150 396 153 q 390 163 385 158 q 403 172 396 168 q 419 180 411 176 q 432 190 426 183 l 433 189 q 428 172 433 186 q 418 158 422 158 q 414 160 415 158 q 413 157 413 158 q 418 153 413 153 q 408 147 411 147 q 406 143 406 146 q 406 139 406 140 q 407 136 407 138 q 406 135 406 135 l 404 135 q 401 128 404 126 q 399 122 399 129 q 406 118 399 118 q 414 124 407 118 q 429 138 421 131 q 444 153 438 146 q 450 164 450 161 q 454 171 453 167 q 460 179 456 175 q 456 184 456 181 q 450 188 456 188 q 458 197 453 196 q 472 199 464 197 q 487 206 479 200 q 501 231 494 213 q 503 229 501 229 q 506 231 504 231 q 510 229 508 231 q 517 233 517 229 q 519 242 518 238 q 524 236 524 239 q 527 230 525 233 q 533 224 529 226 q 546 217 536 221 q 547 221 547 218 q 547 228 547 224 q 546 235 546 232 q 556 240 547 238 q 567 243 565 242 q 569 240 568 242 q 574 238 569 239 q 576 240 575 238 q 579 242 576 242 l 581 238 q 583 240 582 238 q 586 242 585 242 l 588 242 q 596 256 596 243 q 604 247 604 253 q 611 238 604 242 q 619 249 618 243 q 635 256 619 256 l 638 256 q 631 248 638 247 q 624 236 624 249 q 626 233 624 233 q 630 234 628 233 q 635 235 632 235 l 638 235 q 648 245 644 238 q 658 257 651 253 q 672 253 665 256 q 685 250 678 250 q 669 236 675 250 q 674 224 669 229 q 683 215 678 218 q 685 222 685 215 q 688 222 686 222 q 690 221 689 221 q 694 222 693 221 q 699 224 696 224 l 699 219 q 706 225 703 219 q 708 235 708 231 q 712 229 711 232 q 715 226 713 226 q 731 235 728 226 q 743 243 733 243 q 742 238 743 239 q 740 233 740 236 q 742 229 740 231 q 739 230 739 229 q 736 231 739 231 q 733 228 733 231 q 735 223 733 225 q 736 219 736 221 q 729 217 733 217 q 722 215 725 217 q 732 209 725 210 q 742 201 739 208 q 745 208 744 203 q 749 217 746 214 q 765 188 765 213 l 743 188 q 749 178 743 181 q 758 174 756 176 q 767 182 767 176 q 766 184 767 183 q 765 186 765 185 q 771 176 772 181 q 772 164 769 171 q 786 166 782 167 q 790 176 790 165 q 792 174 792 176 q 793 171 792 171 q 801 181 797 171 q 806 188 806 192 q 807 193 807 188 q 808 189 808 192 q 807 181 808 186 q 806 174 806 176 q 811 169 807 169 q 823 178 818 169 q 831 190 828 188 q 832 189 832 190 q 829 185 832 188 q 826 181 826 183 q 831 176 826 178 q 824 172 831 171 q 818 167 818 172 q 824 162 818 161 q 832 160 831 163 q 846 193 846 171 q 849 185 847 190 q 854 181 851 181 q 862 182 858 181 q 872 183 865 183 q 872 179 872 181 q 871 175 871 178 q 872 172 871 172 q 872 164 872 171 q 870 156 872 158 q 868 146 868 153 l 868 143 l 867 143 q 862 146 863 143 q 858 150 861 149 q 851 148 856 149 q 847 143 847 147 q 853 135 850 138 q 860 131 857 133 q 864 125 863 129 q 865 113 865 121 q 860 118 860 113 q 858 124 861 124 q 856 115 856 121 l 856 103 q 854 96 856 97 q 859 91 857 93 q 867 89 861 89 q 865 85 867 86 q 864 82 864 83 q 868 76 864 79 q 872 64 872 72 q 870 60 872 61 q 868 57 868 60 q 871 49 868 50 q 874 44 874 49 q 876 49 876 44 q 876 56 876 51 q 875 63 875 60 l 876 63 q 881 63 879 63 q 885 64 883 64 q 887 61 888 64 q 888 58 886 58 q 900 65 896 58 q 904 82 904 72 q 895 103 904 99 q 886 111 886 108 q 888 117 886 114 q 890 124 890 121 q 885 129 890 128 q 881 150 881 131 q 882 167 881 157 q 886 183 883 178 q 893 181 892 181 q 903 183 892 181 q 896 177 903 176 q 889 171 889 178 q 895 165 889 163 q 901 160 901 168 q 905 162 904 160 q 908 167 906 164 q 910 164 911 167 q 913 161 910 161 q 919 165 919 161 q 919 167 919 167 q 918 171 918 168 q 922 174 918 174 q 925 169 926 174 q 926 163 924 164 q 938 169 936 163 q 944 163 942 169 q 949 147 947 156 q 953 133 951 139 q 954 131 954 128 q 956 128 956 128 q 955 124 956 125 q 954 121 954 122 q 957 113 957 117 l 954 110 q 953 104 953 108 q 956 103 953 101 q 958 101 958 104 q 957 99 957 99 q 964 69 964 92 q 956 60 961 63 q 951 46 951 57 q 954 40 954 44 q 964 44 961 40 q 969 51 967 47 q 978 40 971 51 q 985 24 985 28 q 992 31 992 24 q 988 58 992 43 q 983 82 983 74 q 985 84 983 85 q 988 86 988 83 q 976 109 988 88 q 965 158 965 131 q 965 165 965 161 q 968 169 965 169 q 970 167 971 169 q 971 163 969 164 q 977 161 974 160 q 981 156 981 163 l 982 156 q 983 154 983 156 q 985 153 983 153 q 988 154 988 153 q 990 156 988 156 q 992 153 992 156 q 994 150 992 150 q 999 154 999 150 q 997 159 999 157 q 996 164 996 161 q 1001 167 996 167 q 1008 167 1007 167 q 1013 153 1010 163 q 1018 134 1015 143 q 1024 117 1021 125 q 1029 110 1028 110 l 1032 110 q 1029 103 1029 107 q 1032 74 1029 88 q 1039 51 1035 63 q 1050 33 1043 39 q 1049 31 1049 32 q 1050 26 1049 29 q 1053 19 1053 21 q 1055 15 1053 18 q 1057 10 1057 13 q 1056 5 1057 6 q 1056 3 1056 4 l 1056 1 q 1057 -1 1057 -1 q 1056 -3 1056 -1 q 1056 -20 1056 -10 q 1057 -36 1056 -31 q 1054 -43 1057 -42 q 1050 -50 1051 -44 q 1056 -56 1050 -56 q 1051 -58 1053 -57 q 1049 -60 1050 -60 l 1049 -62 q 1047 -72 1049 -69 q 1044 -81 1044 -74 q 1040 -79 1043 -79 q 1038 -85 1038 -79 q 1029 -90 1038 -90 l 1029 -92 q 1031 -97 1029 -94 q 1032 -101 1032 -99 q 1028 -108 1028 -104 q 1028 -112 1028 -110 q 1029 -115 1028 -115 q 1025 -119 1028 -118 q 1022 -125 1022 -121 l 1022 -126 l 1021 -126 q 1015 -124 1018 -126 q 1010 -122 1013 -122 q 1007 -126 1007 -122 q 1004 -126 1006 -126 q 1001 -125 1003 -125 q 997 -126 999 -125 q 999 -131 997 -129 q 1000 -135 1000 -132 l 1000 -136 q 1008 -133 1003 -135 q 1017 -132 1013 -132 q 1022 -135 1019 -132 q 1021 -137 1022 -137 l 1019 -137 q 1018 -137 1018 -137 q 1017 -136 1018 -136 q 1010 -141 1010 -136 q 1011 -149 1011 -146 q 1016 -153 1011 -154 q 1021 -156 1021 -151 q 1028 -150 1022 -153 q 1026 -149 1026 -149 q 1032 -144 1026 -144 q 1033 -153 1032 -147 q 1039 -158 1035 -158 q 1044 -150 1044 -158 q 1044 -143 1044 -147 q 1043 -136 1043 -139 q 1046 -131 1043 -132 q 1049 -125 1049 -129 q 1044 -118 1049 -118 q 1039 -111 1039 -118 q 1051 -101 1039 -110 q 1063 -81 1063 -93 q 1060 -72 1063 -75 q 1058 -64 1058 -69 q 1068 -79 1060 -64 q 1079 -101 1076 -94 q 1083 -95 1082 -100 q 1085 -86 1085 -90 q 1082 -72 1085 -72 q 1078 -64 1079 -71 q 1081 -42 1079 -53 q 1083 -21 1083 -32 q 1083 -12 1083 -18 q 1079 -7 1082 -7 q 1076 -8 1076 -8 q 1075 -4 1075 -7 q 1076 -1 1075 -1 q 1078 3 1078 0 l 1076 3 q 1074 2 1075 3 q 1072 1 1074 1 q 1066 8 1068 1 q 1063 24 1064 15 q 1060 42 1061 33 q 1058 54 1060 50 q 1051 68 1058 58 l 1050 68 l 1050 75 q 1049 81 1050 78 q 1051 82 1049 82 q 1056 80 1053 82 q 1061 78 1058 78 q 1067 83 1067 78 q 1062 88 1067 88 q 1057 93 1057 89 l 1057 97 q 1056 99 1057 99 q 1049 92 1049 99 q 1042 102 1044 94 q 1039 117 1039 110 q 1050 117 1047 117 q 1053 122 1053 117 q 1050 130 1053 129 q 1043 131 1047 131 q 1036 131 1039 131 q 1033 139 1033 132 q 1042 160 1033 156 q 1054 167 1051 165 q 1056 166 1056 167 q 1057 165 1056 165 q 1062 167 1061 165 q 1065 169 1063 169 q 1069 163 1065 163 q 1071 165 1071 164 q 1068 169 1071 168 q 1065 174 1065 171 q 1071 177 1068 176 q 1076 181 1074 178 q 1061 188 1072 188 q 1049 186 1056 188 q 1039 183 1043 185 q 1041 175 1039 178 q 1043 169 1043 172 q 1039 168 1042 168 q 1031 174 1032 168 q 1031 182 1031 179 q 1032 194 1031 185 q 1036 206 1033 203 q 1044 198 1043 203 q 1049 190 1044 193 q 1054 194 1053 192 q 1058 196 1056 196 q 1060 194 1058 194 q 1063 193 1061 193 q 1065 201 1065 196 q 1074 194 1072 201 q 1081 188 1076 188 q 1084 188 1083 188 q 1086 189 1085 189 q 1092 181 1092 189 q 1106 167 1092 174 q 1111 173 1111 169 q 1111 181 1111 176 q 1095 199 1100 197 q 1090 217 1090 201 q 1095 211 1096 217 q 1100 203 1094 206 q 1107 210 1106 203 q 1115 218 1108 218 l 1119 217 q 1124 221 1122 219 q 1126 224 1125 222 q 1139 201 1139 217 q 1132 205 1133 201 q 1125 210 1131 208 q 1124 208 1124 210 q 1119 206 1124 206 q 1122 200 1119 200 q 1125 194 1125 200 l 1125 193 q 1127 192 1126 193 q 1129 192 1128 192 l 1131 190 q 1132 192 1132 190 l 1132 193 q 1144 190 1133 193 q 1158 183 1156 186 q 1156 180 1158 181 q 1154 176 1154 179 q 1156 171 1154 172 q 1158 167 1158 169 q 1144 156 1150 167 q 1138 143 1139 146 q 1144 145 1138 142 q 1153 149 1150 149 q 1158 147 1156 149 q 1163 144 1161 144 q 1165 149 1165 144 q 1174 137 1171 143 q 1188 129 1178 131 q 1186 126 1186 128 l 1186 125 q 1195 107 1186 115 q 1204 90 1204 99 q 1203 87 1204 88 q 1203 83 1203 86 q 1210 67 1207 81 q 1219 54 1213 54 l 1219 53 q 1220 49 1219 50 q 1221 46 1221 47 q 1218 44 1221 44 q 1222 39 1218 39 q 1225 38 1225 39 l 1222 35 q 1221 29 1221 33 q 1222 26 1221 28 q 1224 25 1222 25 q 1223 22 1224 24 q 1222 15 1222 21 q 1226 10 1222 11 q 1229 4 1229 8 l 1226 4 q 1219 -6 1219 4 q 1221 -7 1219 -7 q 1226 -6 1224 -7 q 1229 -3 1229 -6 q 1231 -4 1231 -3 q 1229 -6 1229 -4 l 1229 -8 q 1235 -18 1232 -14 q 1239 -31 1239 -22 q 1233 -35 1239 -35 q 1225 -42 1228 -35 q 1226 -43 1225 -43 q 1228 -42 1228 -43 q 1232 -42 1229 -42 q 1236 -46 1233 -42 q 1240 -42 1240 -42 q 1245 -48 1243 -44 q 1247 -57 1247 -51 q 1245 -58 1247 -60 q 1243 -60 1243 -57 q 1247 -71 1243 -67 q 1260 -90 1251 -75 q 1258 -94 1258 -92 l 1258 -100 q 1257 -101 1258 -101 q 1260 -108 1258 -104 q 1263 -114 1263 -111 q 1261 -119 1263 -118 q 1265 -121 1263 -121 q 1268 -120 1267 -121 q 1272 -119 1269 -119 q 1267 -136 1267 -131 q 1268 -142 1267 -140 q 1265 -140 1268 -140 q 1260 -142 1263 -140 q 1257 -143 1257 -144 l 1256 -143 l 1253 -143 q 1251 -146 1251 -143 q 1253 -149 1251 -147 q 1246 -153 1249 -151 q 1240 -158 1243 -156 l 1239 -158 q 1233 -162 1235 -158 q 1231 -159 1232 -160 q 1229 -157 1229 -158 q 1225 -165 1225 -158 l 1222 -165 q 1215 -167 1218 -165 q 1210 -169 1213 -169 q 1209 -162 1210 -164 q 1206 -157 1208 -161 q 1199 -162 1203 -157 l 1196 -160 l 1196 -164 q 1192 -161 1193 -161 q 1186 -162 1189 -161 q 1181 -164 1183 -164 l 1181 -161 q 1176 -157 1181 -161 l 1174 -154 q 1172 -155 1172 -154 q 1168 -156 1171 -156 q 1163 -149 1165 -149 q 1153 -136 1161 -150 q 1145 -139 1147 -136 q 1139 -143 1143 -142 q 1147 -150 1140 -150 q 1149 -149 1149 -150 q 1153 -149 1150 -149 q 1149 -152 1153 -154 q 1144 -157 1144 -150 q 1138 -145 1143 -156 q 1126 -122 1132 -135 q 1117 -99 1121 -110 q 1113 -85 1113 -87 q 1108 -76 1111 -81 q 1106 -65 1106 -71 l 1106 -64 q 1093 -67 1097 -64 q 1103 -104 1093 -87 q 1114 -142 1114 -121 q 1104 -146 1104 -142 q 1106 -150 1104 -149 q 1108 -154 1108 -151 q 1107 -157 1108 -156 q 1115 -157 1110 -157 q 1121 -161 1121 -157 q 1117 -168 1121 -164 q 1111 -176 1113 -172 q 1101 -171 1104 -176 q 1095 -158 1097 -165 q 1092 -144 1093 -150 q 1092 -136 1092 -137 q 1093 -129 1092 -131 q 1089 -121 1093 -122 q 1085 -112 1085 -119 q 1078 -124 1082 -114 q 1075 -132 1075 -135 q 1078 -135 1075 -135 q 1081 -139 1081 -136 q 1076 -143 1078 -140 q 1071 -156 1074 -146 l 1071 -168 q 1067 -184 1071 -181 q 1060 -190 1064 -187 q 1053 -195 1057 -192 q 1050 -211 1050 -199 q 1051 -214 1050 -212 q 1051 -218 1051 -215 l 1042 -218 l 1038 -215 q 1035 -217 1036 -217 l 1035 -212 q 1029 -212 1033 -211 q 1022 -210 1025 -212 q 1015 -217 1017 -212 q 1001 -221 1013 -221 q 997 -218 1000 -221 q 994 -219 994 -218 q 990 -221 993 -221 q 988 -219 989 -221 q 986 -222 986 -222 q 988 -225 988 -225 q 985 -226 988 -226 l 981 -226 q 976 -230 976 -226 q 971 -233 975 -233 q 969 -224 969 -232 q 974 -224 972 -224 q 978 -225 976 -225 q 977 -223 978 -224 q 976 -218 976 -222 l 967 -218 q 957 -212 961 -217 q 947 -228 951 -221 q 938 -243 938 -243 q 940 -246 938 -246 q 943 -247 942 -247 q 940 -248 943 -249 q 936 -250 936 -247 q 937 -253 936 -251 q 938 -256 938 -254 q 929 -262 931 -256 q 929 -268 928 -269 q 917 -267 919 -268 q 916 -269 915 -267 q 915 -271 917 -271 l 911 -269 q 913 -271 911 -271 q 896 -264 899 -271 q 893 -254 893 -257 q 881 -233 885 -257 q 881 -226 881 -228 q 882 -218 882 -224 q 881 -215 882 -215 q 872 -218 881 -215 l 872 -210 q 861 -197 872 -197 q 862 -195 861 -196 q 863 -192 863 -194 q 858 -180 863 -185 q 854 -171 854 -175 q 856 -161 854 -167 q 858 -149 858 -156 l 858 -144 l 860 -144 q 858 -142 858 -143 q 860 -131 858 -131 q 858 -122 858 -129 q 859 -111 858 -117 q 860 -99 860 -106 q 858 -87 860 -90 q 862 -86 861 -87 q 867 -85 863 -85 l 867 -72 q 865 -67 867 -68 q 867 -60 867 -65 q 861 -49 867 -50 q 858 -60 858 -50 q 854 -58 856 -60 q 851 -56 851 -56 q 853 -40 851 -51 q 854 -19 854 -29 q 851 -15 853 -17 q 846 -12 850 -12 q 845 -16 844 -12 q 844 -19 846 -19 q 839 -22 842 -22 q 833 -24 836 -22 l 833 -26 q 835 -28 833 -28 q 832 -29 835 -29 q 833 -37 832 -33 q 835 -44 835 -40 q 833 -50 835 -47 q 838 -51 835 -51 q 839 -51 839 -51 q 840 -50 839 -50 q 844 -53 843 -50 q 847 -56 844 -56 q 844 -64 846 -58 q 842 -76 842 -69 q 846 -87 842 -83 q 850 -87 849 -87 q 853 -86 851 -86 l 854 -87 q 850 -92 853 -92 q 847 -91 849 -92 q 844 -90 846 -90 q 839 -100 840 -93 q 833 -110 838 -107 q 841 -123 840 -119 q 842 -131 842 -126 q 841 -135 842 -133 q 840 -139 840 -136 q 839 -143 839 -142 q 840 -149 839 -147 q 840 -151 840 -150 q 840 -157 840 -156 q 839 -162 839 -158 q 840 -165 839 -164 q 840 -169 840 -165 q 840 -172 840 -171 q 839 -174 839 -172 q 840 -178 839 -175 q 842 -181 840 -181 q 846 -178 846 -181 q 849 -181 849 -178 q 847 -183 849 -182 q 846 -185 846 -183 q 849 -189 846 -190 q 851 -194 851 -187 q 857 -203 851 -197 q 863 -212 863 -208 q 861 -217 863 -215 q 863 -217 861 -218 q 867 -218 865 -217 l 865 -218 q 867 -225 868 -217 q 872 -239 867 -233 q 869 -243 869 -242 q 871 -249 869 -246 q 872 -260 872 -253 q 869 -258 869 -258 l 868 -258 q 864 -260 865 -258 q 860 -262 863 -262 q 858 -261 858 -262 l 858 -260 q 854 -261 856 -260 q 850 -262 853 -262 q 844 -260 849 -262 q 839 -258 840 -258 l 838 -260 q 826 -239 838 -244 q 828 -232 828 -236 q 826 -219 828 -226 q 817 -212 824 -212 l 813 -212 q 819 -206 813 -206 q 818 -203 819 -204 q 817 -200 817 -203 q 818 -196 817 -197 q 813 -197 815 -196 q 808 -197 811 -197 l 806 -197 q 811 -223 806 -214 q 817 -244 817 -232 q 816 -252 817 -247 q 810 -257 815 -257 q 805 -256 807 -257 q 800 -256 803 -256 l 797 -256 q 790 -247 794 -250 q 786 -233 786 -244 q 780 -238 779 -233 q 775 -243 781 -243 q 769 -235 774 -243 q 764 -225 764 -228 q 768 -218 764 -221 l 768 -226 m 1213 179 q 1214 178 1214 178 q 1213 176 1214 176 q 1215 172 1213 172 q 1218 169 1218 172 q 1219 171 1219 171 q 1218 176 1219 174 q 1217 182 1217 179 q 1219 189 1217 185 q 1222 199 1222 193 q 1218 203 1222 203 q 1210 188 1210 200 q 1199 200 1204 193 q 1188 213 1194 207 q 1194 215 1190 215 q 1206 210 1203 215 q 1211 214 1208 213 q 1218 217 1214 215 q 1208 222 1218 222 q 1210 226 1208 225 q 1211 229 1211 228 q 1205 237 1211 232 q 1200 242 1199 242 q 1195 239 1196 242 q 1192 235 1194 236 q 1186 235 1186 235 q 1183 236 1186 236 l 1179 236 q 1181 228 1179 231 q 1183 219 1183 226 q 1181 218 1181 218 q 1183 217 1181 217 q 1169 211 1178 211 q 1165 213 1165 211 q 1171 218 1165 219 q 1179 222 1176 217 q 1167 229 1179 229 q 1170 233 1168 231 q 1172 240 1172 236 l 1172 243 q 1177 242 1175 243 q 1182 242 1179 242 q 1195 242 1186 242 q 1204 246 1204 243 q 1203 251 1204 249 q 1201 256 1201 253 q 1203 258 1203 257 q 1201 265 1203 263 q 1199 272 1199 267 q 1204 274 1203 272 q 1208 276 1206 276 l 1210 276 q 1213 283 1214 278 q 1215 290 1211 289 q 1220 279 1222 289 q 1226 269 1218 269 q 1232 271 1228 269 q 1236 279 1236 272 q 1233 282 1236 282 q 1236 285 1233 285 q 1240 289 1239 286 q 1233 303 1240 293 q 1225 317 1225 314 q 1226 322 1225 319 q 1229 326 1226 325 q 1228 328 1228 328 q 1231 331 1228 331 q 1236 333 1233 331 q 1242 326 1242 332 q 1250 319 1243 319 q 1247 318 1249 318 q 1243 319 1244 318 q 1240 319 1242 319 q 1235 315 1235 319 q 1236 313 1236 314 l 1236 310 q 1244 305 1236 303 q 1253 299 1253 307 q 1254 303 1254 300 l 1254 307 q 1256 310 1254 310 q 1257 314 1257 311 q 1255 317 1257 317 q 1253 318 1253 317 l 1261 321 q 1272 325 1269 324 q 1265 339 1272 339 q 1258 337 1261 339 q 1251 335 1254 335 q 1246 338 1249 335 q 1258 344 1249 344 q 1274 353 1268 343 q 1278 351 1278 353 q 1281 349 1279 349 q 1291 354 1286 353 q 1297 356 1296 356 q 1299 355 1299 356 q 1301 354 1300 354 q 1309 365 1308 354 q 1314 375 1310 375 q 1307 381 1311 381 q 1310 382 1307 382 q 1314 382 1313 382 q 1315 380 1315 382 q 1315 375 1314 378 l 1318 375 q 1326 373 1321 375 q 1335 371 1331 371 q 1340 372 1338 371 q 1344 374 1342 374 q 1358 372 1351 374 q 1371 369 1365 369 q 1381 372 1379 369 q 1383 381 1383 374 q 1385 379 1383 379 l 1389 379 q 1392 382 1392 379 l 1397 379 q 1401 378 1399 378 l 1403 378 l 1404 379 q 1406 380 1406 379 q 1408 381 1406 381 q 1418 375 1415 381 q 1420 378 1421 375 q 1426 382 1419 382 q 1428 378 1429 382 q 1432 374 1428 375 l 1442 374 q 1440 372 1440 374 l 1440 369 q 1447 365 1440 368 q 1456 360 1453 361 q 1465 363 1461 361 q 1474 367 1468 364 q 1469 375 1474 371 q 1460 385 1464 379 q 1457 383 1458 383 q 1456 385 1456 383 q 1442 389 1450 383 q 1422 394 1433 394 q 1409 394 1421 394 q 1397 388 1397 393 l 1392 388 q 1379 382 1383 388 q 1369 383 1376 383 q 1357 383 1364 383 q 1342 382 1350 382 q 1336 388 1335 382 q 1328 394 1338 394 q 1339 399 1328 399 q 1350 398 1344 399 q 1358 397 1356 397 q 1361 403 1361 397 q 1360 406 1361 406 l 1358 406 q 1364 409 1358 408 q 1372 410 1369 410 q 1378 410 1374 410 q 1386 406 1383 410 q 1390 407 1389 406 q 1394 408 1392 408 q 1406 405 1401 408 q 1422 401 1411 401 l 1422 404 q 1410 417 1413 411 q 1386 422 1407 422 q 1379 420 1382 422 q 1374 418 1376 418 q 1369 419 1371 418 q 1378 426 1371 421 q 1396 436 1386 431 q 1415 445 1406 442 q 1429 449 1425 449 q 1440 444 1432 443 q 1449 436 1449 446 q 1451 437 1450 436 q 1456 438 1453 438 q 1458 437 1457 438 q 1461 436 1460 436 q 1467 439 1464 436 q 1489 433 1482 439 q 1506 426 1496 426 q 1504 422 1504 425 q 1513 413 1504 413 q 1515 414 1515 413 q 1514 416 1515 415 q 1513 418 1513 417 q 1515 419 1513 419 q 1523 413 1525 419 q 1528 407 1521 407 q 1535 408 1531 407 q 1544 408 1539 408 l 1551 408 l 1551 410 q 1547 418 1551 417 q 1543 422 1543 419 l 1543 425 q 1542 433 1543 428 q 1540 442 1540 438 q 1557 436 1547 439 q 1568 433 1567 433 q 1572 434 1571 433 q 1575 435 1574 435 q 1579 431 1578 433 q 1582 429 1581 429 q 1594 435 1593 429 q 1598 431 1597 432 q 1600 426 1599 429 l 1604 426 q 1613 424 1610 426 q 1621 422 1617 422 q 1631 425 1622 422 q 1650 419 1636 418 q 1664 411 1664 419 l 1668 411 q 1676 409 1672 411 q 1689 407 1681 407 q 1692 408 1692 407 q 1696 408 1693 408 q 1701 408 1699 408 q 1707 407 1703 407 q 1715 411 1711 407 q 1728 404 1724 411 q 1739 408 1733 407 q 1744 415 1744 408 q 1753 414 1747 414 q 1760 415 1757 414 q 1771 415 1764 415 q 1774 413 1771 413 q 1776 411 1776 413 q 1780 405 1778 408 q 1789 401 1782 401 q 1800 409 1794 408 q 1808 410 1806 410 q 1813 404 1813 410 q 1817 406 1817 404 q 1824 394 1824 401 q 1821 396 1821 396 q 1821 393 1821 396 q 1818 387 1821 392 q 1812 377 1815 382 q 1805 368 1808 372 q 1800 364 1801 364 l 1797 364 q 1800 360 1797 358 q 1803 354 1803 361 q 1795 351 1800 353 q 1786 350 1790 350 q 1778 354 1782 350 q 1772 343 1772 346 q 1774 338 1772 340 q 1768 331 1768 332 q 1769 326 1768 328 l 1768 328 q 1767 324 1767 328 q 1759 321 1758 324 q 1754 318 1760 318 q 1753 319 1754 319 q 1753 321 1753 319 l 1753 322 q 1751 318 1751 322 q 1742 332 1746 325 q 1729 339 1739 339 q 1734 331 1729 332 q 1739 318 1739 329 q 1738 314 1739 315 q 1736 311 1736 313 q 1735 310 1736 310 q 1737 304 1735 306 q 1739 300 1739 303 q 1731 294 1739 294 q 1728 296 1729 294 q 1726 292 1726 294 q 1727 289 1726 289 q 1728 286 1728 289 l 1728 283 q 1737 278 1729 278 q 1744 272 1744 279 l 1744 271 l 1742 271 q 1737 269 1739 271 q 1732 268 1735 268 q 1714 276 1722 268 q 1701 292 1706 283 q 1693 306 1696 300 q 1690 311 1690 313 q 1676 324 1686 321 q 1664 338 1667 326 q 1669 335 1668 338 q 1674 333 1671 333 q 1676 340 1674 340 q 1664 347 1672 347 l 1660 347 q 1656 352 1660 351 q 1649 354 1653 353 q 1641 358 1644 356 q 1638 364 1638 360 l 1636 363 q 1619 365 1624 363 q 1615 372 1615 368 q 1613 379 1614 376 q 1606 382 1613 382 q 1599 392 1606 388 q 1586 399 1593 396 q 1572 403 1579 401 q 1565 404 1565 404 q 1558 408 1565 408 q 1556 407 1556 408 q 1557 401 1556 406 q 1565 394 1558 397 q 1580 387 1575 394 q 1594 375 1585 379 l 1594 372 q 1597 367 1594 369 q 1600 361 1599 364 q 1602 362 1601 361 q 1604 363 1603 363 q 1615 357 1611 363 q 1619 351 1618 351 q 1624 353 1622 351 q 1630 334 1624 342 q 1643 322 1636 326 q 1656 314 1650 317 q 1663 310 1663 311 q 1678 296 1664 301 q 1677 294 1678 294 q 1676 292 1676 293 q 1689 274 1676 285 q 1707 257 1701 263 l 1707 253 q 1718 232 1707 240 q 1729 203 1729 224 q 1728 194 1729 197 q 1731 196 1731 196 l 1731 194 q 1731 192 1731 193 q 1732 190 1732 192 q 1724 183 1728 188 q 1708 174 1717 176 q 1709 170 1708 171 q 1710 168 1710 169 q 1706 156 1710 160 q 1692 149 1703 151 q 1688 143 1692 143 q 1683 142 1683 143 q 1676 146 1676 142 q 1663 136 1672 142 q 1657 131 1654 131 q 1664 124 1663 128 q 1663 117 1663 122 q 1657 113 1663 113 q 1660 107 1657 107 q 1663 104 1663 107 q 1661 100 1661 101 q 1660 94 1660 97 q 1658 97 1657 94 q 1656 99 1658 99 q 1652 97 1653 99 q 1650 94 1651 96 q 1642 97 1646 96 q 1631 101 1639 99 q 1629 100 1629 101 l 1629 99 q 1631 96 1631 96 q 1629 95 1631 94 q 1628 94 1628 96 q 1618 99 1618 94 q 1621 103 1618 101 q 1624 107 1624 104 q 1618 116 1624 111 q 1604 121 1613 121 l 1601 121 q 1602 124 1601 124 q 1603 126 1603 125 q 1598 137 1603 132 q 1588 145 1593 142 q 1580 151 1583 149 q 1581 153 1576 153 q 1582 158 1581 157 q 1583 160 1583 158 q 1580 167 1583 163 q 1572 179 1576 171 q 1571 178 1572 178 l 1568 178 l 1563 181 q 1558 190 1558 182 q 1555 190 1556 190 q 1553 189 1554 189 q 1551 194 1551 189 q 1547 201 1550 199 q 1542 199 1544 201 q 1538 193 1539 197 q 1544 183 1538 189 q 1547 176 1550 176 q 1544 169 1547 171 q 1540 163 1540 168 q 1547 160 1542 160 l 1556 160 q 1565 151 1564 160 q 1575 142 1567 142 q 1574 138 1575 139 q 1574 136 1574 138 q 1574 126 1574 133 q 1586 113 1575 118 q 1585 108 1585 111 q 1592 93 1585 104 q 1599 71 1599 82 q 1592 68 1599 68 q 1581 68 1585 68 q 1585 61 1581 61 q 1592 67 1586 61 q 1599 66 1594 67 q 1606 63 1603 65 q 1607 65 1607 63 q 1608 68 1607 68 q 1610 65 1610 65 l 1611 65 q 1613 68 1613 65 q 1617 63 1617 65 q 1605 46 1617 51 q 1589 40 1593 40 l 1588 40 q 1589 38 1588 39 q 1590 36 1590 38 q 1588 32 1590 35 l 1585 32 q 1582 33 1583 32 q 1573 28 1579 33 q 1560 16 1567 22 q 1547 3 1553 10 q 1542 -3 1542 -3 q 1542 -7 1543 -4 q 1546 -12 1542 -10 q 1538 -15 1540 -15 q 1526 -12 1532 -15 q 1524 -18 1524 -18 l 1525 -19 q 1504 -26 1511 -19 q 1492 -42 1497 -33 q 1490 -40 1490 -40 q 1489 -43 1489 -40 q 1488 -46 1489 -46 l 1486 -44 q 1483 -43 1483 -43 q 1482 -46 1482 -44 q 1483 -48 1482 -47 q 1483 -50 1483 -49 l 1479 -50 q 1478 -53 1478 -50 l 1478 -54 q 1481 -53 1479 -53 q 1483 -56 1481 -53 q 1469 -69 1479 -62 q 1458 -75 1460 -75 q 1454 -74 1456 -75 q 1451 -72 1453 -74 l 1453 -71 q 1456 -67 1456 -68 l 1454 -67 q 1453 -64 1453 -67 q 1451 -67 1450 -64 q 1449 -71 1451 -71 q 1446 -67 1446 -71 q 1442 -64 1446 -64 q 1437 -69 1436 -64 q 1435 -76 1438 -74 q 1426 -67 1428 -69 q 1413 -46 1424 -64 q 1414 -35 1413 -39 q 1418 -29 1415 -32 q 1415 -26 1418 -26 q 1413 -21 1413 -25 l 1413 -19 q 1410 -17 1413 -17 q 1406 -15 1408 -17 q 1403 -10 1404 -14 q 1401 4 1401 -7 q 1396 6 1399 6 q 1393 10 1393 7 q 1394 13 1394 13 q 1390 17 1392 13 q 1389 25 1389 21 q 1393 32 1389 32 q 1411 19 1400 32 q 1435 3 1422 6 q 1434 1 1435 1 q 1433 0 1433 1 q 1444 -14 1433 -6 q 1458 -33 1456 -22 q 1464 -26 1464 -32 q 1461 -16 1464 -21 q 1456 -8 1458 -11 q 1459 0 1456 -3 q 1463 6 1463 3 q 1457 8 1461 8 l 1449 8 q 1438 10 1444 8 q 1432 18 1431 13 q 1429 17 1431 18 q 1426 17 1428 17 q 1425 19 1425 18 q 1426 22 1425 21 q 1426 25 1426 24 q 1418 28 1424 28 q 1413 26 1414 28 q 1408 36 1413 32 q 1399 44 1404 40 q 1389 51 1393 47 q 1383 63 1385 56 q 1381 62 1382 63 q 1379 61 1381 61 q 1372 66 1376 61 q 1364 75 1368 71 l 1364 79 q 1361 84 1364 82 q 1358 93 1358 86 l 1358 94 q 1336 116 1349 107 q 1319 149 1324 125 q 1316 148 1317 149 q 1313 147 1315 147 q 1281 163 1296 147 q 1267 179 1274 169 q 1263 177 1264 179 q 1258 175 1261 175 l 1257 176 q 1252 182 1257 182 q 1247 188 1247 182 l 1246 188 q 1242 189 1243 188 q 1239 190 1242 190 q 1230 178 1229 190 q 1229 164 1231 167 q 1233 160 1232 163 q 1239 153 1235 157 q 1238 150 1238 151 q 1247 136 1238 143 q 1260 129 1257 129 l 1260 125 q 1267 111 1260 121 q 1282 91 1274 101 q 1298 73 1290 81 q 1308 65 1306 65 q 1313 67 1311 65 q 1317 68 1314 68 l 1322 68 q 1319 74 1322 74 q 1313 76 1315 75 q 1316 82 1313 82 q 1319 89 1319 82 q 1314 92 1317 92 q 1310 91 1311 92 q 1307 90 1308 90 l 1307 92 q 1305 91 1306 92 q 1303 90 1304 90 q 1298 93 1299 90 q 1294 99 1297 96 q 1299 101 1297 101 q 1305 99 1301 101 q 1313 96 1308 96 q 1308 101 1313 100 q 1304 104 1304 101 q 1307 110 1304 107 l 1308 110 q 1317 113 1314 110 q 1322 115 1319 115 q 1328 108 1322 108 q 1336 103 1335 107 q 1331 97 1336 97 q 1321 94 1326 96 q 1327 92 1321 94 q 1342 85 1333 89 q 1356 76 1350 81 q 1363 69 1363 72 q 1365 64 1361 69 q 1369 56 1369 58 l 1369 54 q 1374 47 1371 49 q 1378 40 1376 44 l 1378 36 q 1383 3 1378 22 q 1394 -31 1389 -17 l 1383 -31 l 1383 -32 q 1382 -37 1383 -35 q 1381 -42 1381 -39 q 1385 -46 1381 -46 q 1388 -42 1388 -46 q 1394 -37 1388 -37 q 1397 -43 1394 -42 q 1401 -49 1399 -44 q 1400 -50 1400 -49 l 1400 -51 q 1401 -53 1400 -53 l 1403 -54 l 1401 -56 q 1403 -57 1403 -57 q 1404 -56 1404 -56 q 1410 -73 1410 -64 q 1419 -87 1411 -82 q 1406 -100 1419 -96 q 1392 -115 1392 -104 q 1378 -112 1381 -112 q 1367 -118 1371 -112 q 1360 -124 1364 -124 q 1357 -122 1358 -122 q 1354 -124 1354 -124 q 1355 -127 1354 -126 q 1356 -131 1356 -128 q 1350 -130 1353 -131 q 1344 -129 1347 -129 q 1338 -130 1342 -129 q 1329 -131 1333 -131 l 1329 -129 q 1332 -125 1329 -126 q 1335 -117 1335 -124 l 1333 -117 q 1328 -119 1329 -117 q 1322 -122 1326 -122 q 1324 -125 1324 -125 q 1322 -127 1324 -128 q 1319 -128 1319 -126 q 1321 -131 1319 -129 q 1312 -127 1314 -131 q 1307 -124 1310 -124 l 1301 -124 q 1304 -119 1301 -118 q 1307 -112 1307 -119 q 1303 -110 1307 -110 q 1297 -108 1300 -110 q 1298 -105 1297 -106 q 1299 -101 1299 -104 q 1297 -99 1299 -100 q 1289 -106 1289 -103 q 1290 -110 1289 -108 q 1283 -115 1289 -110 q 1287 -122 1283 -121 q 1293 -124 1290 -122 q 1290 -130 1293 -128 q 1283 -136 1286 -132 q 1279 -129 1279 -135 l 1279 -119 q 1275 -112 1279 -114 q 1284 -105 1278 -108 q 1290 -93 1290 -101 q 1287 -92 1290 -90 q 1283 -87 1283 -93 q 1288 -79 1286 -82 q 1293 -71 1290 -76 q 1290 -68 1290 -68 q 1287 -69 1289 -68 q 1282 -71 1285 -71 l 1281 -71 q 1279 -76 1279 -74 q 1276 -79 1279 -79 q 1274 -76 1274 -79 q 1274 -71 1274 -74 q 1276 -63 1274 -67 q 1279 -57 1279 -60 q 1275 -54 1279 -54 l 1272 -54 q 1267 -56 1268 -54 q 1265 -60 1267 -57 q 1260 -51 1260 -56 q 1268 -36 1260 -44 q 1267 -31 1268 -32 q 1267 -26 1267 -29 l 1267 -22 l 1264 -22 q 1260 -24 1261 -22 q 1257 -25 1260 -25 q 1251 -15 1254 -25 q 1247 3 1247 -6 q 1251 7 1247 7 q 1254 10 1254 7 q 1251 15 1254 13 q 1249 17 1250 17 l 1243 17 q 1239 24 1243 19 q 1240 28 1239 25 q 1240 35 1240 31 q 1239 44 1240 42 l 1239 46 q 1237 63 1239 50 q 1233 74 1235 75 q 1235 77 1233 75 q 1236 82 1236 79 q 1236 86 1239 83 q 1229 92 1233 89 q 1222 97 1225 96 q 1218 99 1218 99 q 1214 108 1213 104 q 1213 115 1215 113 q 1205 128 1210 124 q 1196 139 1200 133 q 1188 152 1192 144 q 1185 172 1185 160 q 1189 179 1185 179 q 1201 171 1200 179 q 1210 163 1201 163 q 1213 167 1213 164 q 1211 171 1213 169 q 1210 175 1210 172 q 1213 179 1210 176 m 149 229 q 150 232 149 232 q 155 231 153 232 q 160 231 157 231 q 174 233 165 231 q 182 239 182 236 q 176 243 182 243 q 183 249 176 250 q 189 251 189 249 q 187 253 189 250 q 182 261 185 257 l 176 272 q 181 278 181 272 q 180 280 181 279 q 179 282 179 281 q 197 283 185 282 q 208 272 208 283 l 210 272 q 216 276 214 272 q 222 279 218 279 q 233 275 228 279 q 240 271 238 271 l 243 271 q 242 263 243 267 q 244 258 242 258 q 253 262 250 258 q 260 269 256 265 q 269 263 263 269 q 288 257 276 257 l 292 257 q 290 253 290 256 q 314 242 290 244 q 313 236 313 240 q 315 222 313 228 q 306 215 311 219 q 294 211 301 211 q 290 212 292 211 q 285 213 288 213 q 282 210 282 213 q 289 203 282 207 q 283 200 286 200 q 278 201 281 200 q 272 203 275 203 q 268 193 268 203 q 272 189 268 189 q 276 190 275 189 q 281 190 278 190 q 289 185 282 185 q 295 185 292 185 q 301 186 299 186 l 301 182 q 300 179 301 181 q 309 172 301 172 q 317 165 317 172 q 315 160 317 163 l 310 160 q 294 149 297 160 q 278 138 290 138 q 268 142 274 138 q 267 140 268 140 q 264 143 264 140 q 261 142 263 142 q 255 144 263 142 q 240 150 247 146 q 226 149 233 150 q 228 142 226 144 q 229 138 229 140 l 229 135 q 234 134 232 135 q 239 133 236 133 q 243 136 243 133 q 251 132 249 135 q 260 129 253 129 q 251 125 260 124 q 240 121 243 126 q 247 115 240 115 q 235 109 242 110 q 222 103 228 108 q 212 104 217 103 q 203 106 207 106 q 194 96 194 106 l 189 96 q 178 92 182 96 q 168 88 175 89 q 160 88 163 88 q 154 89 157 89 q 147 86 151 89 q 133 81 142 83 q 127 90 129 86 q 121 96 125 93 q 114 92 115 96 q 111 84 113 89 q 106 76 110 79 q 90 72 101 72 q 79 75 88 72 q 90 81 83 79 q 99 88 97 82 q 97 89 97 89 q 93 86 94 89 q 90 83 92 83 q 83 88 85 83 q 82 92 82 93 q 86 94 82 94 q 92 96 90 93 q 80 101 86 101 q 74 106 74 101 q 78 112 74 110 q 83 117 83 114 q 81 122 83 121 q 78 125 78 122 q 82 128 78 128 q 92 127 88 128 q 99 126 96 126 q 106 128 103 126 q 105 135 106 131 q 99 142 104 139 q 109 153 104 146 q 114 158 114 161 q 113 162 114 161 q 113 164 113 163 q 113 165 113 165 q 114 167 114 165 q 119 165 115 165 q 126 174 126 165 l 126 176 q 132 173 129 176 q 135 167 135 169 q 139 172 139 167 q 139 182 139 178 q 137 185 139 185 q 135 189 135 185 q 135 192 135 192 q 136 194 136 193 q 135 199 136 197 q 142 194 140 199 q 146 188 143 190 q 149 193 149 190 q 148 196 149 194 q 147 199 147 197 q 150 201 147 201 l 156 201 q 156 203 156 203 q 157 206 157 204 q 151 212 157 211 q 140 215 146 213 q 145 217 142 218 q 149 219 149 217 q 150 219 150 219 q 151 218 150 218 q 156 219 154 218 q 158 221 157 221 l 160 221 q 156 226 160 224 q 149 229 151 228 m 378 340 q 383 349 383 340 q 385 345 385 347 q 388 343 385 343 q 392 346 386 343 q 399 338 396 340 q 406 332 401 336 l 413 332 q 428 326 421 332 q 425 322 426 325 q 419 318 424 318 q 422 310 419 313 q 425 304 425 307 q 422 299 425 300 q 419 296 419 299 q 429 285 419 290 q 439 278 439 281 l 439 276 q 413 283 422 276 q 398 298 404 290 q 385 313 392 306 q 369 319 379 319 q 360 328 367 324 q 348 338 354 333 q 337 347 342 343 q 333 353 332 351 q 330 349 331 351 q 325 347 329 347 q 315 351 322 351 q 303 354 307 350 q 302 353 301 354 q 300 353 303 353 q 317 326 303 336 q 338 317 332 317 q 333 311 336 314 q 329 306 331 308 q 336 301 333 301 q 342 303 339 301 q 350 304 344 304 q 358 295 350 301 q 369 282 365 289 q 358 265 358 272 q 350 271 351 265 q 343 276 349 276 q 340 274 340 276 q 336 272 339 272 q 338 267 336 269 q 340 263 340 265 q 332 256 340 256 q 329 263 329 256 q 282 273 297 265 q 268 282 267 281 q 264 281 265 282 q 260 281 263 281 q 246 285 257 281 q 233 292 235 289 q 226 290 226 292 q 219 296 225 290 q 214 304 214 301 q 217 311 214 306 q 208 324 208 314 l 213 324 q 219 319 215 324 q 215 326 215 325 q 219 331 215 331 q 226 332 224 332 q 231 331 229 332 q 236 331 233 331 q 228 336 233 332 q 224 344 224 340 q 228 349 224 349 q 242 342 236 349 q 247 331 247 335 q 251 338 251 331 q 257 337 256 338 q 261 336 258 336 q 267 340 267 336 q 258 350 267 346 q 250 357 250 354 q 246 355 247 356 q 242 354 244 354 q 233 357 239 354 l 233 363 q 232 371 233 368 q 229 378 231 374 q 236 381 232 381 l 243 381 q 240 376 243 376 q 236 374 236 376 q 240 367 239 367 q 246 371 246 367 l 246 376 q 251 381 246 381 q 250 384 251 383 q 249 388 249 385 l 249 389 q 251 392 249 392 q 254 390 253 390 q 257 389 256 389 q 259 392 260 389 q 261 394 258 394 q 264 390 264 394 l 264 389 l 267 386 q 269 389 269 386 q 274 392 269 392 q 279 388 275 392 l 282 385 q 285 386 283 386 q 288 385 288 386 q 292 383 289 383 q 294 384 293 383 q 296 385 294 385 q 306 376 296 381 q 324 364 315 371 q 331 369 331 364 q 339 375 332 375 l 339 374 q 346 367 339 367 q 350 371 351 367 q 360 359 351 371 q 369 344 369 347 l 369 340 q 372 343 372 340 q 378 340 374 340 m 671 779 q 678 767 671 767 l 672 764 l 678 758 q 669 750 669 756 q 673 748 669 747 q 676 744 676 749 q 674 740 674 742 q 675 736 674 738 q 678 732 676 735 q 674 732 676 732 q 669 733 671 732 q 673 728 669 728 q 676 724 676 729 q 681 725 682 724 q 685 726 681 726 q 692 724 685 724 q 699 709 694 719 q 703 697 703 699 l 701 697 q 697 699 697 697 q 694 700 696 700 q 688 693 692 700 q 681 683 683 686 q 696 663 693 681 q 699 643 699 646 l 700 644 q 701 640 701 644 q 704 635 704 638 q 706 631 704 633 q 704 626 706 628 q 703 624 703 625 q 707 616 703 621 q 711 604 711 611 q 706 601 711 601 l 700 601 q 699 599 699 601 q 719 592 711 599 q 731 576 726 585 q 737 556 735 567 q 742 536 739 544 q 751 531 743 531 q 760 519 760 532 q 759 518 760 518 q 758 517 758 518 q 774 506 765 515 q 790 494 783 497 q 793 501 792 499 q 797 507 794 503 q 794 511 794 507 l 794 517 q 789 526 794 525 q 783 535 783 528 q 785 538 783 538 q 786 544 786 539 q 776 555 785 547 q 757 574 767 563 q 740 597 747 585 q 732 624 732 610 q 743 633 742 624 q 728 642 731 633 q 722 654 725 651 q 724 664 722 657 q 725 675 725 671 l 725 678 q 722 686 722 681 q 719 694 722 692 q 729 704 729 694 q 726 710 729 711 q 718 710 722 710 q 709 721 714 711 q 699 741 704 731 q 690 760 694 751 q 683 768 686 768 l 682 767 l 679 767 q 671 779 679 779 m 1358 704 q 1367 714 1367 704 q 1363 719 1367 717 q 1367 726 1367 719 q 1365 731 1367 729 q 1361 728 1363 728 q 1358 736 1358 728 l 1358 742 l 1354 742 q 1345 733 1346 742 q 1338 719 1344 724 q 1329 722 1331 719 q 1322 725 1328 725 l 1321 725 q 1316 723 1319 724 q 1313 718 1313 722 q 1314 712 1315 715 q 1317 708 1313 708 q 1320 709 1319 708 q 1322 710 1321 710 q 1315 704 1321 706 q 1302 702 1310 703 q 1288 700 1294 701 q 1281 694 1282 699 q 1290 682 1290 689 l 1290 678 q 1289 678 1289 678 q 1288 679 1289 679 q 1281 675 1283 678 q 1275 668 1275 669 q 1279 660 1275 665 q 1286 654 1283 656 q 1288 656 1288 654 q 1289 657 1288 657 q 1290 654 1290 657 q 1290 650 1290 651 q 1283 637 1290 639 q 1275 624 1275 635 l 1275 621 q 1265 619 1267 621 q 1264 614 1264 617 q 1265 610 1264 611 q 1268 606 1267 608 q 1261 599 1261 606 q 1268 601 1267 601 q 1276 593 1275 601 q 1288 585 1278 585 q 1297 592 1293 585 q 1303 609 1301 600 q 1306 626 1306 618 q 1307 633 1307 633 q 1306 636 1308 635 q 1313 640 1304 638 q 1313 645 1314 643 q 1315 647 1313 647 q 1319 646 1317 646 q 1326 650 1322 646 q 1324 658 1326 654 q 1321 667 1321 661 q 1331 674 1321 668 q 1342 682 1342 679 q 1340 685 1342 685 q 1338 690 1338 686 q 1348 707 1340 693 q 1358 724 1356 721 l 1363 719 l 1358 719 q 1357 714 1357 718 q 1358 704 1357 707 m 636 611 q 637 613 636 613 q 638 615 638 614 q 625 624 638 624 q 626 626 625 625 q 626 628 626 626 q 624 635 626 631 q 614 640 621 640 l 610 640 q 594 660 607 651 q 579 685 582 669 q 575 696 576 692 q 567 703 574 700 q 564 697 564 701 q 565 693 564 694 q 565 690 565 692 q 559 685 556 692 q 557 679 563 679 q 559 676 557 676 q 561 672 561 675 q 560 669 561 669 q 560 667 560 668 q 567 651 560 654 q 585 644 575 647 q 602 634 594 640 q 610 610 610 628 q 614 608 611 607 q 617 603 617 608 q 614 603 615 603 q 611 604 613 604 q 607 601 607 604 q 615 581 607 590 q 622 574 622 572 q 628 575 625 575 q 640 565 631 575 q 654 551 650 556 l 644 551 q 663 531 644 538 q 664 542 664 533 q 663 551 664 550 q 667 551 664 551 q 669 556 669 550 q 664 568 669 558 q 654 578 658 578 l 654 571 q 653 568 654 568 q 645 572 646 568 q 644 583 644 576 q 648 586 644 586 q 651 597 651 586 q 633 601 642 597 q 624 619 624 604 q 625 624 624 622 q 630 617 628 619 q 636 611 632 614 m 1565 299 q 1579 296 1575 299 q 1574 293 1574 296 q 1575 290 1574 292 q 1576 285 1576 288 q 1575 282 1575 283 q 1591 270 1583 275 q 1608 265 1599 265 l 1614 265 q 1617 264 1614 264 l 1619 264 q 1623 261 1624 261 q 1622 261 1622 261 q 1624 260 1622 261 q 1635 257 1626 260 q 1649 238 1640 244 q 1658 231 1657 232 l 1658 236 q 1660 243 1658 240 q 1663 249 1663 246 q 1658 253 1663 251 q 1654 261 1654 256 q 1656 265 1654 264 q 1640 279 1642 268 q 1631 297 1639 290 l 1626 297 q 1613 301 1617 297 q 1600 304 1610 304 l 1593 304 q 1579 308 1589 308 q 1565 306 1571 308 l 1565 308 q 1560 313 1565 313 q 1557 308 1557 310 q 1561 306 1557 306 q 1565 299 1565 306 m 1329 193 q 1356 166 1343 186 q 1369 128 1369 146 l 1369 122 q 1376 120 1372 121 q 1383 115 1381 119 q 1381 111 1381 113 q 1388 107 1383 108 q 1401 103 1393 103 q 1403 110 1403 104 q 1400 122 1403 117 q 1394 131 1397 128 q 1403 131 1397 131 q 1408 136 1408 131 q 1406 140 1406 136 q 1403 143 1406 143 l 1401 143 q 1397 146 1399 146 q 1393 145 1394 146 q 1390 144 1392 144 q 1382 152 1388 144 q 1371 169 1376 160 q 1360 185 1365 178 q 1354 193 1356 193 l 1356 194 q 1349 199 1353 199 l 1344 199 q 1342 203 1343 201 q 1338 206 1342 206 l 1338 204 q 1336 203 1336 203 q 1333 204 1335 203 q 1328 206 1331 206 q 1326 203 1326 206 q 1328 199 1329 201 q 1329 193 1328 197 m 865 67 q 859 64 860 67 q 854 61 858 61 l 853 61 l 853 65 q 851 77 853 72 q 850 88 850 82 q 853 96 850 90 l 850 96 l 842 82 q 835 70 839 76 q 831 60 832 64 q 832 56 832 60 l 832 54 q 837 52 835 54 q 842 50 839 50 q 847 53 844 50 q 851 57 850 57 q 853 56 853 57 q 849 47 849 54 l 849 42 q 846 31 849 38 q 840 26 843 25 q 842 21 840 24 q 844 17 844 18 q 842 6 844 11 q 840 -8 840 0 q 846 -10 843 -10 q 853 -8 851 -10 q 861 -6 856 -6 q 860 -11 860 -7 q 863 -15 860 -15 q 869 -10 869 -15 q 872 -1 868 -4 q 871 1 871 0 q 872 4 871 4 q 867 7 869 7 q 864 10 864 7 q 869 23 864 19 q 874 29 874 26 q 869 38 874 33 l 867 40 q 868 47 868 42 q 867 57 868 51 q 865 67 865 63 m 1222 828 l 1222 822 q 1217 803 1222 810 q 1210 786 1213 797 q 1206 787 1207 786 q 1204 788 1206 788 q 1201 786 1203 788 l 1201 783 q 1199 779 1201 782 q 1198 772 1199 771 q 1197 769 1197 772 q 1198 767 1197 768 q 1199 764 1199 765 q 1189 736 1189 744 q 1189 726 1189 728 q 1192 719 1189 725 q 1188 710 1188 715 q 1189 704 1188 707 q 1192 697 1190 701 q 1195 703 1193 697 q 1200 717 1197 710 q 1206 731 1203 724 q 1208 739 1208 738 q 1206 744 1208 744 q 1201 751 1201 744 q 1208 760 1208 751 l 1208 764 q 1222 776 1218 769 q 1226 792 1225 783 q 1229 809 1228 800 q 1236 829 1231 818 q 1238 831 1236 831 q 1239 835 1239 832 q 1230 831 1232 835 q 1222 828 1228 828 m 1083 796 q 1088 794 1085 793 q 1092 793 1092 796 q 1090 788 1090 790 q 1094 778 1090 781 q 1097 764 1097 775 l 1099 764 q 1106 753 1106 764 q 1096 754 1096 753 q 1097 758 1096 757 q 1083 753 1092 758 q 1078 749 1079 750 l 1078 739 q 1090 744 1088 739 q 1099 750 1092 750 q 1106 746 1100 747 q 1113 742 1111 744 q 1110 728 1111 735 q 1107 718 1110 722 q 1120 709 1115 714 q 1132 703 1125 704 l 1132 714 q 1128 725 1132 724 q 1125 732 1125 726 l 1125 738 q 1119 759 1125 747 q 1107 781 1114 771 q 1094 799 1100 792 q 1085 807 1088 807 l 1085 804 q 1084 800 1085 801 q 1083 796 1083 799 m 1294 313 q 1302 302 1294 307 q 1321 293 1310 297 q 1347 283 1332 288 q 1350 288 1350 283 q 1344 299 1350 290 q 1338 310 1338 307 q 1334 308 1335 310 q 1329 306 1333 306 q 1325 308 1328 304 q 1318 317 1322 313 q 1310 326 1314 322 q 1300 331 1306 331 q 1294 328 1296 331 q 1288 325 1293 325 q 1285 328 1285 326 q 1281 331 1285 331 q 1274 325 1274 331 q 1274 318 1274 319 l 1275 318 q 1274 317 1274 318 l 1274 313 q 1274 308 1272 310 q 1279 306 1274 306 q 1278 301 1279 303 q 1278 296 1278 299 l 1276 296 q 1267 289 1267 296 q 1268 283 1267 285 q 1274 287 1272 283 q 1278 293 1275 290 q 1283 292 1278 292 l 1283 296 q 1283 301 1283 299 q 1282 307 1282 304 q 1283 310 1282 308 q 1286 307 1286 307 q 1290 310 1289 307 q 1294 313 1292 313 m 1519 96 q 1526 91 1519 96 q 1538 81 1532 86 q 1549 72 1544 76 q 1553 69 1554 68 q 1551 67 1551 67 q 1556 60 1554 63 q 1561 56 1558 58 q 1560 53 1560 53 q 1565 46 1560 46 q 1573 51 1567 51 q 1579 57 1579 51 q 1573 73 1579 58 q 1564 88 1567 88 q 1558 85 1561 88 q 1553 83 1556 83 q 1543 90 1550 83 q 1533 101 1536 97 q 1535 113 1535 106 q 1515 135 1535 131 q 1513 125 1513 129 q 1516 110 1513 118 q 1519 96 1519 103 m 376 289 q 388 281 383 286 q 399 272 393 276 q 405 276 403 272 q 410 279 407 279 q 418 268 410 279 q 425 258 421 263 l 425 257 q 424 254 425 254 q 422 255 422 254 q 419 256 421 256 q 415 253 417 254 q 408 250 410 250 l 407 250 q 404 247 404 250 q 404 242 404 244 q 383 251 385 242 l 381 251 q 369 254 372 251 q 368 258 368 256 q 371 265 369 263 q 378 272 374 269 q 376 278 378 275 q 374 283 374 281 q 376 289 374 288 m 967 621 q 975 585 967 597 q 988 574 983 574 q 989 581 989 575 q 988 590 989 585 q 988 599 988 596 q 992 606 988 601 q 983 618 985 615 l 983 625 q 980 631 983 632 q 976 636 976 629 l 976 639 q 971 650 976 647 q 961 653 965 653 q 964 635 961 646 q 967 621 967 624 m 800 -131 q 792 -137 796 -137 q 789 -144 789 -137 q 790 -149 789 -147 q 790 -154 790 -151 q 788 -160 790 -161 q 785 -164 785 -160 q 794 -183 785 -176 q 804 -190 804 -189 q 806 -189 806 -190 q 803 -183 806 -185 q 800 -176 800 -182 q 806 -170 800 -171 q 811 -164 811 -169 q 800 -151 800 -161 l 800 -149 q 806 -152 806 -149 q 811 -156 806 -156 q 810 -149 810 -153 q 813 -136 810 -140 q 815 -125 815 -132 q 815 -119 815 -122 q 807 -117 814 -117 q 803 -122 806 -119 q 800 -131 800 -124 m 904 719 q 897 713 901 717 q 893 699 893 708 q 894 697 894 697 q 901 701 897 697 q 910 704 906 704 q 914 701 911 701 q 922 702 915 701 q 934 705 928 703 q 946 710 940 707 q 951 717 951 713 l 946 717 q 931 715 939 717 q 915 713 924 713 l 915 715 q 914 723 915 719 q 913 731 913 726 l 915 731 l 915 732 l 915 733 q 921 738 918 736 q 924 746 924 740 q 922 751 924 750 q 915 757 921 751 q 908 740 913 746 q 904 719 904 735 m 1118 -64 q 1117 -71 1117 -67 q 1119 -79 1117 -74 q 1125 -85 1122 -85 q 1128 -79 1129 -85 q 1133 -74 1128 -74 q 1138 -78 1136 -76 q 1140 -87 1140 -81 l 1143 -87 q 1148 -89 1146 -87 q 1153 -90 1150 -90 q 1158 -87 1156 -90 q 1151 -68 1158 -74 q 1136 -60 1144 -62 q 1121 -54 1128 -57 q 1114 -44 1114 -51 l 1114 -43 q 1107 -49 1107 -44 q 1111 -56 1107 -51 q 1118 -64 1115 -61 m 726 476 l 726 481 q 720 498 726 488 q 701 508 714 508 q 690 496 690 508 q 694 494 690 493 q 697 493 697 494 q 699 490 699 493 q 704 486 700 486 q 703 489 704 488 q 703 492 703 490 q 706 494 703 494 q 713 485 711 492 q 716 471 714 478 q 722 458 718 464 q 733 453 725 453 q 736 458 736 458 q 732 467 736 464 q 726 476 728 471 m 1707 697 q 1704 700 1707 700 q 1699 699 1701 700 q 1694 699 1697 699 q 1690 708 1692 704 q 1681 710 1688 711 q 1679 706 1681 707 q 1678 704 1678 706 l 1678 703 q 1669 701 1675 701 l 1664 701 q 1656 699 1661 701 q 1660 688 1656 689 q 1665 686 1664 686 q 1679 692 1672 686 q 1690 697 1686 697 q 1685 690 1688 693 q 1683 681 1683 688 q 1701 685 1692 681 q 1714 692 1711 689 q 1710 694 1710 692 q 1708 697 1711 697 l 1707 697 m 1483 26 q 1481 21 1479 24 q 1478 18 1482 18 l 1475 18 q 1474 19 1474 18 q 1469 15 1472 18 q 1467 11 1467 13 q 1472 8 1467 8 q 1478 10 1475 8 q 1485 11 1482 11 q 1488 6 1488 11 q 1487 0 1488 3 q 1486 -6 1486 -3 q 1488 -8 1486 -7 q 1499 -5 1493 -6 q 1504 0 1504 -4 q 1503 10 1504 6 q 1501 19 1501 15 q 1502 24 1501 22 q 1503 26 1503 25 q 1499 31 1503 31 q 1493 28 1497 28 l 1489 28 q 1483 26 1485 28 m 1004 453 q 1008 451 1008 453 q 1011 450 1008 450 q 1015 451 1014 450 q 1013 448 1015 449 q 1011 444 1011 447 q 1017 441 1014 442 q 1022 436 1019 440 q 1015 423 1022 431 q 1004 415 1007 415 q 999 417 1001 415 q 994 419 997 419 q 993 419 993 419 q 992 418 993 418 q 991 422 992 421 q 990 425 990 424 q 997 440 990 435 q 1004 453 1004 446 m 679 542 q 675 540 678 540 q 672 541 672 540 q 671 542 672 542 q 669 541 669 542 q 668 540 669 540 l 667 539 q 669 535 667 536 q 671 529 671 533 l 668 529 q 661 515 661 529 q 664 510 661 511 q 682 513 669 510 q 694 519 694 517 q 688 531 694 528 q 679 542 682 533 m 369 231 q 349 219 363 219 q 331 228 339 219 q 319 242 324 238 q 345 238 332 239 q 369 231 358 236 m 893 631 q 892 626 892 629 q 901 610 892 615 q 913 606 911 606 q 914 613 914 608 q 913 618 914 615 q 913 624 913 621 q 916 626 914 625 q 918 631 918 628 q 907 639 918 639 q 899 637 903 639 q 893 631 894 635 m 1392 99 l 1379 88 l 1376 88 q 1372 81 1372 88 q 1376 78 1372 78 l 1381 78 q 1390 74 1388 78 q 1399 69 1392 69 q 1403 78 1401 74 q 1404 90 1404 83 q 1392 99 1404 99 m 929 -162 q 933 -165 929 -165 q 936 -169 936 -165 q 935 -175 935 -172 q 938 -187 935 -181 q 947 -193 942 -193 q 953 -187 953 -193 q 951 -178 953 -182 q 949 -172 950 -175 l 946 -167 q 947 -164 947 -164 q 943 -162 943 -164 l 943 -160 q 944 -158 943 -158 q 941 -151 942 -153 q 933 -149 940 -149 q 931 -156 933 -154 q 929 -162 929 -157 m 940 685 q 946 672 943 681 q 960 664 949 664 q 967 667 963 664 q 971 676 971 671 q 965 681 968 679 q 956 683 963 683 l 951 683 q 949 690 950 686 q 943 694 949 694 q 936 692 936 694 q 938 690 938 692 q 940 685 938 688 m 1322 210 q 1343 208 1338 210 q 1344 215 1344 211 q 1339 228 1344 222 q 1325 235 1333 235 q 1320 232 1321 235 q 1319 226 1319 229 q 1322 210 1319 218 m 915 596 q 913 592 915 592 q 910 590 910 592 q 909 575 910 581 q 908 563 908 569 q 911 561 911 561 q 916 564 914 561 q 922 567 918 567 q 924 566 924 567 q 926 565 925 565 q 928 575 928 568 q 915 596 928 592 m 901 678 q 890 671 896 676 q 885 667 885 665 q 888 660 885 663 q 892 658 890 658 q 903 662 897 658 q 913 667 908 665 q 910 676 913 674 q 907 683 907 678 q 910 690 907 685 q 906 692 907 690 q 903 694 904 694 q 900 692 900 694 q 899 689 899 690 q 900 685 899 686 q 901 678 901 683 m 974 -178 q 969 -189 969 -185 q 973 -206 969 -197 q 978 -214 976 -214 q 983 -210 983 -214 q 988 -206 982 -206 q 985 -197 985 -201 q 985 -187 985 -192 q 983 -181 985 -183 q 974 -178 981 -178 m 1078 39 l 1075 39 q 1072 40 1074 39 q 1068 39 1071 39 q 1065 36 1065 39 q 1076 25 1065 28 q 1074 19 1074 22 q 1080 10 1074 18 q 1088 3 1086 3 q 1090 8 1090 3 q 1086 25 1090 19 q 1078 39 1082 31 m 540 364 q 556 349 549 360 q 563 331 563 338 q 561 326 563 328 q 554 330 556 326 q 546 333 553 333 l 546 338 q 539 350 546 350 q 533 349 535 350 q 537 355 533 354 q 540 361 540 356 l 540 364 m 676 -144 q 672 -142 676 -142 q 668 -146 668 -142 q 672 -151 668 -151 l 674 -151 q 678 -150 675 -151 q 686 -164 678 -164 q 694 -151 694 -164 q 686 -137 694 -142 q 682 -142 685 -142 q 676 -144 679 -143 m 336 193 q 342 195 339 193 q 349 197 346 197 q 351 194 350 197 q 343 190 350 190 l 325 190 q 313 192 318 190 q 301 194 307 194 q 313 204 301 204 q 328 200 329 204 q 336 193 328 196 m 1376 764 q 1378 758 1376 758 l 1378 760 q 1377 763 1378 763 q 1376 767 1376 764 q 1391 768 1383 769 q 1399 774 1399 767 q 1389 779 1394 779 q 1383 778 1386 779 q 1376 778 1379 778 q 1369 781 1375 778 q 1367 772 1369 774 q 1363 764 1364 769 q 1368 761 1364 761 q 1376 764 1374 761 m 1742 699 q 1742 704 1742 704 q 1736 704 1742 704 l 1736 703 q 1736 699 1736 699 q 1731 703 1733 700 l 1728 706 q 1724 699 1724 703 q 1731 690 1724 690 q 1744 683 1739 690 q 1744 677 1744 681 q 1743 671 1743 674 q 1747 667 1743 667 q 1749 674 1749 668 q 1744 688 1749 683 q 1747 692 1747 690 l 1746 690 l 1746 692 q 1744 694 1744 694 q 1738 697 1744 693 q 1742 699 1740 697 m 1215 -122 q 1215 -132 1215 -125 q 1221 -139 1214 -139 q 1227 -135 1225 -139 q 1232 -129 1229 -132 q 1221 -115 1225 -122 q 1208 -108 1217 -108 q 1212 -115 1208 -114 q 1215 -122 1215 -117 m 997 510 q 994 500 997 503 q 998 496 997 500 q 1001 492 999 492 q 1005 494 1004 492 q 1006 499 1006 497 q 1005 501 1006 500 q 1004 503 1004 501 q 1007 503 1007 500 q 1007 508 1007 506 q 1006 513 1007 511 q 1006 517 1006 515 q 1007 518 1007 517 q 1008 521 1007 519 q 1005 524 1006 522 q 1001 525 1004 525 q 997 524 1000 525 q 994 521 994 524 q 996 517 994 518 q 997 513 997 515 l 997 510 m 688 250 q 691 253 690 250 q 694 256 692 256 q 697 255 696 256 q 700 254 699 254 q 701 257 701 256 q 703 254 703 257 l 703 250 q 703 242 703 247 q 706 235 703 238 l 704 235 q 701 233 701 235 q 699 232 700 232 q 697 235 697 232 q 692 239 696 239 q 690 236 690 239 q 686 242 686 238 q 685 250 686 246 l 688 250 m 657 503 q 656 499 657 500 q 654 494 654 499 q 663 485 657 490 q 674 479 668 479 l 676 479 q 667 494 676 490 q 658 507 658 499 l 658 513 q 654 515 658 515 q 653 513 653 513 q 655 508 653 510 q 657 503 657 506 m 1439 628 q 1438 627 1438 628 q 1436 626 1438 626 q 1432 628 1433 626 q 1428 629 1431 629 q 1424 625 1424 629 q 1426 622 1424 622 q 1429 618 1429 621 q 1446 624 1439 621 q 1456 633 1453 626 q 1453 634 1454 633 q 1450 635 1451 635 q 1439 628 1442 635 m 1265 517 q 1267 516 1267 517 q 1268 515 1267 515 q 1270 516 1269 515 q 1272 517 1271 517 l 1272 514 q 1268 498 1272 507 q 1260 489 1264 489 q 1258 501 1258 493 q 1265 517 1258 511 m 978 453 l 978 447 q 973 428 978 440 q 961 415 968 415 q 960 419 960 417 q 965 428 960 426 q 971 438 971 431 l 971 446 q 975 453 971 453 l 978 453 m 1539 667 q 1535 661 1539 661 q 1531 654 1531 661 q 1544 646 1532 649 q 1547 652 1546 649 q 1549 660 1549 656 q 1539 667 1549 667 m 1629 535 q 1631 526 1629 528 q 1635 525 1632 525 q 1642 526 1638 525 q 1650 528 1646 528 q 1653 527 1651 528 q 1657 526 1654 526 q 1660 531 1660 526 q 1651 535 1657 533 q 1639 536 1646 536 q 1629 535 1632 536 m 1179 528 q 1181 533 1181 529 q 1183 536 1181 536 q 1188 535 1185 535 q 1192 538 1189 535 q 1188 550 1188 538 q 1179 551 1181 550 q 1172 536 1172 547 q 1179 528 1172 528 m 1335 846 q 1344 843 1338 843 q 1356 850 1356 843 q 1347 856 1353 856 q 1336 857 1342 857 q 1334 853 1336 854 q 1332 850 1332 853 q 1335 846 1332 849 m 603 -87 q 612 -92 608 -90 q 618 -96 615 -94 q 617 -100 617 -97 q 625 -108 617 -108 q 624 -107 625 -107 q 624 -106 624 -107 q 624 -103 624 -104 q 625 -101 625 -103 q 622 -97 624 -99 q 621 -94 621 -96 l 621 -92 q 622 -90 621 -90 q 619 -89 619 -89 q 617 -90 617 -90 q 616 -89 617 -89 q 615 -87 615 -89 q 617 -85 617 -85 q 611 -81 618 -86 q 603 -76 604 -76 l 603 -87 m 1674 479 q 1688 485 1682 479 q 1683 495 1688 494 q 1678 496 1679 496 q 1669 488 1669 496 q 1674 479 1669 483 m 1415 597 q 1421 600 1417 600 q 1435 597 1426 600 q 1433 587 1435 590 q 1429 581 1432 583 q 1426 583 1426 581 q 1425 589 1426 586 q 1417 592 1417 589 l 1417 594 q 1415 597 1417 597 m 1565 283 q 1563 279 1563 283 q 1561 272 1564 275 q 1567 271 1563 271 q 1571 272 1568 271 q 1574 275 1574 272 q 1570 285 1574 282 q 1567 296 1567 288 q 1563 294 1565 294 q 1560 296 1561 294 q 1558 297 1560 297 q 1557 294 1557 294 q 1561 289 1557 290 q 1565 283 1565 288 m 1124 633 q 1126 621 1126 631 q 1135 628 1136 624 q 1138 640 1135 633 q 1134 644 1135 643 q 1132 646 1133 646 q 1126 639 1129 646 l 1124 633 m 1319 917 q 1322 914 1322 917 q 1326 911 1322 911 q 1320 900 1326 904 q 1313 890 1314 896 q 1310 894 1310 893 q 1311 899 1310 897 q 1314 904 1313 901 q 1313 906 1313 904 l 1313 908 q 1314 911 1313 910 l 1319 917 m 915 550 q 919 546 918 547 q 924 544 921 544 q 931 557 931 544 q 925 561 928 561 q 917 558 922 561 q 918 557 918 557 q 917 554 918 556 q 915 550 915 553 m 826 807 q 840 817 840 810 q 839 819 838 817 q 836 822 840 822 q 824 814 824 822 q 826 807 824 813 m 846 460 q 852 457 849 458 q 858 456 856 456 q 865 458 860 456 q 863 463 865 463 q 861 467 861 464 l 861 469 q 846 460 846 469 m 176 110 q 165 119 176 119 q 156 117 161 119 q 168 108 156 108 q 172 109 171 108 q 176 110 174 110 m 1525 339 q 1539 325 1525 325 q 1542 329 1542 328 q 1540 334 1542 332 q 1538 340 1538 336 q 1531 340 1532 340 q 1525 339 1529 339 m 557 235 q 565 222 557 224 q 572 236 572 225 q 568 237 569 236 q 565 238 567 238 q 557 235 560 238 m 579 -142 l 579 -146 q 582 -149 579 -149 q 585 -149 585 -149 q 586 -136 586 -150 q 585 -128 583 -132 q 581 -124 586 -124 q 578 -129 578 -125 q 578 -135 578 -132 q 579 -142 579 -139 m 736 -106 q 738 -99 736 -103 q 739 -87 739 -94 q 734 -86 735 -87 q 732 -85 733 -85 q 728 -96 728 -92 q 736 -106 728 -104 m 176 110 q 183 104 179 107 q 189 101 186 101 q 194 104 194 101 q 191 113 194 111 q 186 115 188 115 q 181 114 183 115 q 176 110 179 113 m 532 169 q 526 167 526 169 q 531 165 528 165 q 537 167 533 165 q 543 171 540 169 q 532 181 540 181 q 529 176 529 178 q 531 173 529 174 q 532 169 532 172 m 768 394 q 776 394 771 394 q 783 392 781 394 q 778 384 783 386 q 771 382 774 382 q 769 386 771 385 q 767 390 767 388 q 768 394 767 393 m 1257 171 l 1247 150 q 1242 153 1244 153 q 1240 164 1240 154 q 1243 163 1242 163 q 1248 167 1246 163 q 1257 171 1250 171 m 1215 500 q 1219 497 1218 500 q 1222 494 1219 494 q 1217 482 1215 490 q 1210 474 1219 474 q 1208 476 1208 475 q 1212 485 1208 481 q 1215 496 1215 489 l 1215 500 m 300 317 q 303 315 301 315 q 307 314 304 314 q 310 317 310 314 q 307 318 307 319 q 308 320 307 319 q 308 322 308 321 q 300 331 308 331 q 297 325 297 328 q 300 317 297 319 m 482 24 q 490 19 485 19 q 499 19 494 19 l 499 22 q 496 26 499 25 q 493 32 493 26 q 485 29 488 32 q 482 24 482 26 m 392 269 q 400 260 392 260 q 407 267 407 260 q 404 270 407 269 q 399 271 401 271 q 396 270 397 271 q 392 269 394 269 m 1168 -56 q 1169 -59 1171 -56 q 1174 -62 1168 -62 q 1176 -57 1176 -60 q 1173 -49 1176 -53 q 1167 -43 1169 -46 q 1164 -47 1164 -46 q 1166 -52 1164 -50 q 1168 -56 1168 -54 m 432 529 q 446 535 446 529 q 442 540 442 536 q 436 544 442 544 q 434 538 436 539 q 432 529 432 536 m 1568 375 q 1569 381 1569 376 q 1563 386 1569 386 q 1553 389 1557 386 q 1558 379 1553 381 q 1568 375 1563 378 m 1064 60 q 1071 49 1064 49 q 1076 58 1076 49 l 1076 61 q 1064 60 1065 61 m 1525 808 q 1526 811 1526 811 q 1524 815 1526 814 q 1522 819 1522 817 q 1524 822 1522 821 q 1516 822 1518 822 q 1514 817 1514 822 q 1525 808 1514 808 m 1446 653 q 1447 647 1446 649 q 1449 643 1449 646 q 1460 653 1460 643 q 1454 656 1454 656 q 1446 653 1451 656 m 543 332 q 542 329 542 329 q 544 326 542 326 q 546 324 546 325 q 533 324 536 325 q 522 325 529 324 q 543 332 528 332 m 754 96 q 756 104 756 99 q 750 110 756 110 q 743 106 743 110 q 747 100 743 103 q 754 96 751 97 m 1106 628 q 1108 633 1108 631 q 1101 640 1108 640 q 1096 636 1096 640 q 1103 628 1096 628 l 1106 628 m 976 -176 q 976 -164 976 -171 q 971 -157 976 -157 q 968 -164 968 -158 q 976 -176 968 -172 m 1419 789 q 1432 788 1422 788 l 1432 794 q 1426 801 1432 800 q 1423 795 1426 796 q 1419 789 1419 794 m 1093 476 l 1096 476 q 1104 485 1104 476 q 1100 493 1104 490 q 1096 487 1099 490 q 1093 476 1093 483 m 1335 -85 q 1329 -77 1335 -78 q 1315 -76 1324 -76 q 1322 -83 1315 -83 q 1335 -85 1328 -83 m 1250 893 q 1251 903 1251 897 q 1243 910 1251 910 q 1242 906 1242 908 q 1244 898 1242 901 q 1250 893 1247 894 m 586 -56 q 585 -60 585 -57 q 592 -65 585 -65 q 596 -62 594 -65 q 597 -58 597 -60 q 593 -54 597 -54 q 586 -56 589 -54 m 465 190 q 475 181 469 181 q 478 186 478 185 q 479 190 479 188 q 472 192 476 192 q 465 190 467 192 m 672 710 q 676 712 672 713 q 679 717 679 711 q 672 720 674 717 q 664 724 671 724 q 667 715 664 718 q 672 710 669 711 m 1393 788 q 1396 792 1393 790 q 1401 794 1399 794 q 1404 791 1404 793 q 1406 789 1404 789 q 1406 792 1406 792 q 1407 794 1407 793 q 1397 803 1407 803 q 1394 794 1397 797 q 1392 789 1392 792 q 1393 786 1392 786 l 1393 788 m 1588 150 q 1599 163 1599 150 q 1590 163 1594 163 q 1586 160 1586 163 q 1588 157 1586 158 q 1589 153 1589 156 q 1588 150 1588 151 m 1515 786 q 1510 778 1510 781 q 1511 774 1510 775 q 1517 776 1514 774 q 1519 782 1519 779 q 1515 783 1515 782 q 1519 788 1515 785 q 1524 793 1524 790 l 1521 793 q 1516 790 1517 793 q 1515 786 1515 788 m 1257 660 q 1265 657 1260 657 q 1272 664 1272 657 q 1267 667 1269 667 q 1257 660 1260 667 m 499 324 q 503 325 499 325 q 511 321 504 325 q 518 314 518 317 l 518 313 q 506 317 508 313 q 499 324 504 321 m 881 -206 q 880 -194 881 -199 q 872 -190 879 -190 q 871 -194 871 -192 q 881 -206 871 -203 m 913 760 l 918 760 q 926 767 926 760 q 921 769 924 769 q 913 760 913 769 m 1218 136 l 1218 139 q 1213 150 1218 149 q 1208 142 1208 146 q 1218 136 1208 136 m 1188 -87 q 1193 -97 1188 -97 q 1199 -96 1196 -97 q 1192 -86 1199 -86 q 1188 -87 1189 -86 m 1519 82 q 1513 94 1519 90 q 1508 88 1508 90 q 1519 82 1508 82 m 1399 61 q 1403 60 1401 61 q 1406 58 1404 58 q 1413 65 1408 58 q 1417 68 1417 71 q 1415 69 1417 69 q 1411 67 1413 67 q 1407 67 1408 67 q 1404 68 1406 68 q 1399 61 1399 68 m 501 463 q 489 469 501 469 l 489 467 q 494 460 489 460 q 501 463 496 460 m 1365 106 q 1372 103 1368 103 q 1378 106 1378 103 l 1378 110 q 1372 114 1374 114 q 1369 113 1369 113 l 1369 111 q 1367 109 1369 110 q 1365 106 1365 108 m 867 -150 q 871 -147 871 -150 l 871 -143 q 872 -137 871 -139 q 863 -140 865 -137 q 860 -144 861 -143 q 863 -148 863 -146 q 867 -150 863 -150 m 1718 332 q 1728 339 1724 332 q 1718 346 1721 339 q 1715 338 1715 340 q 1718 332 1715 332 m 833 774 q 842 768 833 768 q 847 771 847 768 q 839 776 847 776 q 833 774 835 776 m 393 364 q 399 354 399 364 q 396 356 397 356 q 392 355 393 356 q 390 354 392 354 q 386 358 386 354 q 390 362 386 363 q 393 363 393 361 l 393 364 m 485 -42 q 488 -36 485 -37 q 492 -31 492 -35 q 488 -28 488 -31 q 482 -26 489 -26 q 485 -42 482 -37 m 308 442 q 301 453 308 453 q 299 449 299 450 q 308 442 299 442 m 350 408 l 353 411 q 358 408 356 411 q 363 406 360 406 q 357 415 360 411 q 344 418 354 418 q 348 413 347 414 q 350 408 349 411 m 893 653 l 893 646 q 904 653 904 646 q 901 653 903 653 q 897 654 900 654 q 896 653 896 654 q 894 653 896 653 l 893 653 m 1688 326 q 1693 323 1690 325 q 1699 321 1696 321 q 1701 325 1701 321 q 1697 328 1699 326 q 1692 331 1694 331 q 1688 326 1689 331 m 992 408 q 997 407 996 408 q 1004 406 999 406 q 1000 401 1001 404 q 994 399 999 399 q 990 406 990 400 q 991 407 990 407 q 992 408 992 407 m 1721 276 q 1725 278 1721 278 q 1721 289 1725 289 q 1715 285 1718 285 q 1721 276 1715 278 m 1744 265 q 1747 263 1747 263 q 1744 257 1747 260 q 1742 251 1742 254 q 1738 256 1739 254 q 1736 263 1736 258 q 1744 265 1744 263 m 99 96 q 106 89 99 89 q 111 92 108 89 q 108 97 111 97 q 103 97 106 97 q 99 96 101 96 m 997 -199 q 997 -191 997 -196 q 990 -186 996 -186 q 989 -192 989 -189 q 997 -199 989 -199 m 1222 853 q 1229 856 1225 856 q 1233 863 1233 857 q 1225 862 1229 863 q 1221 857 1221 861 q 1222 855 1221 856 q 1222 853 1222 854 m 433 460 q 436 472 436 463 l 428 472 q 430 465 428 467 q 433 460 432 463 m 657 750 l 657 751 q 660 749 660 749 q 665 751 665 749 q 657 755 660 753 q 651 760 654 757 q 649 754 649 754 q 657 750 649 751 m 940 731 q 934 730 938 731 q 931 725 931 729 q 935 722 931 722 q 940 723 938 722 q 943 725 943 724 q 940 731 940 726 m 315 76 l 324 76 q 317 88 324 88 q 316 83 317 85 q 315 76 315 81 m 1732 614 q 1733 617 1732 617 q 1735 621 1735 618 q 1729 622 1731 621 q 1725 625 1728 624 q 1724 623 1725 624 q 1724 621 1724 622 q 1732 614 1724 614 m 865 -169 q 872 -162 872 -169 q 871 -158 872 -158 q 864 -165 864 -158 q 865 -169 864 -168 m 671 -112 q 675 -115 674 -112 q 678 -118 676 -118 l 679 -117 q 681 -114 679 -115 q 683 -110 683 -112 l 683 -108 q 671 -112 672 -108 m 1008 -117 l 1018 -117 q 1008 -108 1018 -108 l 1008 -117 m 1763 458 q 1774 464 1774 458 l 1774 467 q 1763 460 1763 467 l 1763 458 m 701 685 q 707 685 704 685 q 710 681 710 685 q 708 676 710 678 q 700 681 700 676 q 701 683 700 682 q 701 685 701 683 m 1390 164 q 1399 157 1390 157 l 1399 167 q 1390 164 1392 167 m 1572 186 q 1574 189 1574 188 q 1568 196 1574 196 q 1567 195 1567 196 q 1565 194 1567 194 q 1569 185 1565 185 q 1572 186 1571 186 m 1472 663 q 1485 669 1483 663 q 1476 669 1481 669 q 1471 665 1471 668 q 1472 664 1471 664 q 1472 663 1472 664 m 1049 463 q 1051 467 1051 463 l 1053 467 q 1060 471 1060 467 q 1057 474 1060 474 q 1054 471 1057 471 q 1050 474 1050 471 q 1047 469 1047 471 q 1048 467 1047 468 q 1049 464 1049 467 l 1049 463 m 1524 503 q 1523 499 1524 500 q 1522 497 1522 499 q 1523 494 1522 494 q 1524 493 1524 494 l 1515 493 q 1515 494 1515 494 q 1514 496 1514 494 q 1517 500 1514 500 q 1524 503 1521 500 m 790 193 q 785 198 786 194 q 779 201 783 201 q 783 206 781 206 q 790 196 790 206 l 790 193 m 1839 599 q 1840 603 1839 601 q 1842 607 1842 604 q 1838 610 1842 610 q 1833 603 1833 606 q 1839 599 1833 599 m 1735 313 q 1735 322 1735 319 q 1728 324 1735 324 q 1735 313 1728 313 m 579 -42 q 584 -39 582 -42 q 586 -33 586 -36 q 583 -31 583 -33 q 581 -29 582 -29 q 578 -36 578 -32 q 579 -42 578 -40 m 510 -143 q 517 -149 517 -146 q 513 -156 517 -151 q 510 -151 510 -154 l 510 -143 m 903 739 q 892 739 893 739 q 892 736 892 739 q 896 732 892 732 q 903 739 903 732 m 1192 44 q 1187 52 1189 47 q 1182 57 1185 57 q 1181 56 1181 57 q 1183 49 1185 54 q 1188 43 1182 43 l 1189 43 q 1192 44 1190 43 m 1592 374 q 1581 375 1592 375 q 1579 372 1579 374 q 1586 369 1579 369 q 1592 374 1592 369 m 506 503 l 506 500 q 507 499 506 499 q 514 499 513 499 q 515 507 515 500 q 510 505 511 507 q 506 503 508 503 m 1725 678 q 1732 675 1728 675 q 1736 678 1736 675 q 1732 682 1736 682 q 1725 678 1725 682 m 1203 929 q 1213 925 1203 925 l 1213 932 q 1203 929 1206 932 m 1093 717 l 1085 717 q 1090 708 1085 708 q 1093 713 1093 708 l 1093 717 m 654 432 q 650 439 654 439 q 646 435 646 436 q 650 431 646 431 q 652 431 651 431 q 654 432 653 432 m 1268 340 q 1272 340 1271 340 q 1276 339 1274 339 l 1279 339 q 1272 346 1279 346 q 1268 340 1268 346 m 1007 -99 l 1010 -99 q 1013 -96 1013 -99 q 1007 -85 1013 -87 l 1007 -99 m 988 115 q 978 122 988 122 l 978 119 q 988 115 978 115 m 1568 503 q 1574 502 1572 503 q 1579 501 1575 501 l 1579 508 q 1568 503 1572 508 m 879 544 l 886 544 q 881 556 886 551 q 880 550 881 551 q 879 544 879 549 m 400 517 q 402 522 400 521 q 404 528 404 524 q 396 522 396 528 q 400 517 396 518 m 1140 -119 q 1132 -117 1140 -117 q 1131 -119 1131 -118 q 1138 -124 1131 -124 q 1140 -121 1140 -124 l 1140 -119 m 1606 289 q 1599 286 1604 286 l 1593 286 q 1586 285 1589 286 l 1585 286 q 1586 288 1586 288 l 1590 288 q 1594 289 1593 288 q 1597 290 1594 290 q 1601 290 1600 290 q 1606 289 1603 289 m 669 413 q 658 425 664 421 q 661 417 658 421 q 669 413 664 413 m 889 557 q 897 558 893 557 q 901 564 901 560 q 893 563 894 564 q 889 557 892 561 m 1419 856 q 1420 857 1419 857 q 1421 858 1421 857 q 1415 865 1421 865 q 1413 864 1414 865 q 1415 861 1415 864 l 1414 858 q 1419 856 1414 856 m 872 801 q 876 797 874 797 q 881 803 881 797 q 876 806 878 806 q 872 801 872 806 m 960 -8 q 962 -9 961 -8 q 964 -10 963 -10 q 969 -4 969 -10 q 965 -3 969 -3 q 960 -8 961 -3 m 957 781 l 957 783 q 954 787 957 786 q 950 788 951 788 q 949 783 949 786 q 957 781 949 781 m 1490 60 l 1490 64 q 1483 68 1490 68 q 1490 60 1483 60 m 1356 751 q 1357 750 1356 750 l 1361 750 q 1364 757 1364 750 q 1356 751 1356 757 m 615 764 l 622 764 q 620 769 622 767 q 617 772 618 772 q 614 767 614 769 q 615 764 614 765 m 1881 521 q 1887 521 1886 521 q 1888 528 1888 521 q 1881 526 1881 528 q 1881 521 1881 524 m 694 -131 q 692 -122 694 -122 q 688 -125 688 -122 q 694 -131 688 -131 m 1167 94 q 1167 102 1167 99 q 1161 108 1167 106 q 1163 100 1164 106 q 1165 94 1163 94 l 1167 94 m 329 522 l 336 522 q 334 530 336 528 q 331 535 332 532 l 331 526 q 329 522 331 525 m 757 463 l 758 463 q 763 467 763 463 q 757 472 763 472 l 757 463 m 1104 472 q 1108 471 1106 471 q 1113 476 1110 471 q 1110 477 1110 476 q 1108 478 1110 478 q 1107 479 1107 478 q 1106 475 1106 479 q 1104 472 1106 474 m 1043 136 q 1049 140 1049 136 q 1043 146 1049 146 l 1043 136 m 690 -117 l 693 -117 q 697 -110 697 -117 q 690 -112 690 -110 q 690 -117 690 -114 m 754 772 q 756 778 754 778 q 757 781 757 779 l 749 781 q 754 772 749 774 m 1504 54 q 1503 49 1504 53 q 1508 46 1503 46 q 1509 49 1508 47 q 1510 53 1510 51 q 1508 56 1510 56 q 1504 54 1508 54 m 1404 590 q 1413 597 1413 590 q 1404 590 1404 597 m 260 382 q 257 384 257 382 q 256 386 257 386 q 254 385 256 385 q 257 382 254 382 q 260 379 260 382 l 260 378 q 264 381 264 378 l 264 389 q 263 387 263 388 q 261 385 263 386 q 260 382 260 383 m 1344 558 l 1351 558 q 1350 567 1351 567 q 1349 565 1349 567 q 1347 563 1349 564 q 1344 558 1344 561 m 1001 -158 q 1004 -156 1004 -158 q 997 -150 1004 -150 q 1001 -158 997 -158 m 496 640 q 497 646 497 643 q 493 650 497 650 q 492 648 493 649 q 492 646 492 647 q 496 640 492 642 m 1132 685 q 1126 694 1132 694 q 1132 685 1126 688 m 447 347 q 450 346 450 346 q 453 349 453 346 q 449 354 453 354 q 447 347 447 354 m 639 757 q 639 763 639 760 q 636 765 639 765 q 633 761 633 765 q 639 757 633 757 m 317 460 q 318 463 318 461 q 311 467 318 467 q 308 465 308 467 q 313 463 314 465 q 317 460 311 460 m 1176 458 q 1174 453 1174 456 q 1171 450 1174 450 q 1168 451 1169 451 q 1176 458 1168 458 m 1018 -186 q 1021 -187 1019 -187 q 1024 -185 1024 -187 q 1018 -179 1024 -179 l 1018 -186 m 926 33 q 924 40 926 40 q 919 40 922 40 q 926 33 919 33 m 622 557 q 619 558 619 557 q 617 560 618 560 q 614 556 614 560 q 617 553 614 553 q 622 557 619 553 m 1092 528 q 1094 526 1093 528 q 1097 524 1094 524 q 1094 532 1097 532 q 1092 528 1092 532 m 1547 389 l 1547 392 q 1544 396 1547 396 q 1542 392 1542 396 q 1547 389 1542 389 m 1565 265 l 1564 267 q 1562 267 1563 267 q 1560 268 1561 268 q 1558 265 1558 268 q 1563 261 1558 261 q 1565 265 1565 261 m 1560 660 q 1563 658 1560 658 q 1567 663 1567 658 l 1567 664 q 1560 660 1560 664 m 525 381 q 530 381 528 381 q 532 375 532 381 q 525 376 525 375 q 525 381 525 376 m 1565 544 l 1565 547 q 1561 556 1565 551 q 1561 549 1561 553 q 1564 544 1561 544 l 1565 544 m 260 167 q 267 171 267 167 q 263 172 264 171 q 260 174 261 174 l 260 167 m 636 842 l 639 842 q 642 844 642 842 q 636 849 642 849 l 636 842 m 510 485 q 515 481 513 485 q 513 490 515 490 q 510 485 510 490 m 961 11 q 967 11 967 11 q 967 17 967 11 q 961 15 961 18 l 961 11 m 1508 828 q 1513 828 1511 828 q 1515 835 1515 828 q 1510 832 1511 835 q 1508 828 1508 829 m 376 353 q 378 349 378 353 q 375 343 378 343 q 372 344 374 343 q 374 349 374 347 q 376 353 374 350 m 1126 -24 q 1129 -25 1126 -25 q 1133 -19 1133 -25 q 1131 -17 1133 -17 q 1130 -20 1132 -19 q 1126 -24 1128 -21 m 1386 360 q 1390 360 1388 361 q 1392 363 1392 358 q 1389 365 1392 365 q 1385 361 1385 365 q 1386 360 1386 361 m 704 846 q 703 847 703 846 q 701 847 703 847 q 699 843 699 847 q 697 840 697 842 q 704 844 704 840 l 704 846 m 1036 733 q 1045 737 1042 736 q 1050 739 1049 738 l 1042 739 q 1036 733 1036 739 m 1547 399 l 1553 399 q 1553 404 1553 404 q 1547 404 1553 404 l 1547 399 m 378 -62 l 383 -62 l 383 -57 l 378 -57 l 378 -62 m 1043 -56 l 1049 -56 q 1048 -50 1049 -50 q 1043 -50 1047 -50 l 1043 -56 m 844 469 q 846 467 846 468 q 851 471 851 467 q 849 472 851 472 q 844 469 844 472 m 219 375 q 222 368 222 375 l 221 368 q 217 371 217 368 q 219 375 217 372 m 1250 25 q 1255 24 1253 25 q 1257 31 1257 24 q 1250 25 1250 31 m 1000 476 l 1000 482 q 997 486 1000 486 q 996 482 996 485 q 1000 476 996 478 m 1260 589 q 1263 582 1260 582 q 1264 586 1264 582 q 1261 590 1264 590 q 1260 589 1261 589 m 881 481 q 883 484 881 483 q 888 485 886 485 l 888 476 q 885 480 886 479 q 881 481 885 481 m 1085 -169 q 1089 -171 1089 -169 q 1083 -176 1089 -176 q 1084 -172 1083 -172 q 1085 -169 1085 -171 m 1001 556 l 1004 553 q 1007 554 1006 553 q 1011 558 1011 558 q 1005 557 1006 558 q 1001 556 1004 556 m 1614 60 q 1610 60 1615 60 q 1606 58 1606 60 q 1610 56 1606 56 q 1614 60 1614 56 m 764 -164 q 763 -165 764 -161 q 764 -169 763 -169 q 768 -164 768 -169 q 767 -162 768 -162 q 765 -163 765 -162 q 764 -164 765 -164 m 901 603 q 894 601 894 603 q 893 599 893 600 q 899 599 896 599 q 901 603 901 599 m 1467 -19 q 1469 -21 1469 -19 q 1472 -22 1469 -22 q 1473 -19 1472 -19 q 1474 -17 1474 -19 q 1469 -15 1472 -17 q 1469 -17 1469 -17 q 1468 -18 1468 -17 l 1467 -19 m 743 694 l 746 694 q 749 699 749 694 q 742 698 742 699 q 743 694 743 697 m 1107 614 q 1113 618 1113 613 q 1108 618 1108 618 q 1107 614 1107 618 m 1419 -46 q 1425 -42 1426 -46 q 1421 -41 1422 -42 q 1419 -46 1419 -40 m 508 481 q 506 489 508 489 q 504 486 504 488 q 508 481 504 485 m 553 224 q 551 219 551 222 q 554 218 551 218 q 557 219 557 218 q 553 224 557 221 m 881 515 q 876 518 876 515 q 878 522 876 521 q 879 522 881 522 q 881 519 881 522 q 881 515 881 517 m 546 190 q 549 183 546 183 q 550 186 550 183 q 546 190 550 189 m 1199 935 l 1196 932 l 1196 931 q 1197 929 1196 929 q 1201 932 1201 929 q 1199 935 1201 933 m 1582 551 q 1578 549 1578 551 l 1578 547 l 1578 546 q 1583 550 1583 546 q 1582 551 1583 551 m 831 -117 q 829 -119 829 -119 l 829 -121 q 831 -124 831 -124 q 833 -119 833 -124 q 831 -117 833 -119 m 664 726 q 669 725 665 726 q 667 730 667 728 q 665 732 668 732 l 664 732 l 664 726 m 967 -17 q 972 -15 972 -17 q 968 -14 972 -14 q 964 -15 964 -14 q 967 -17 967 -17 m 1208 -19 q 1213 -19 1213 -19 q 1213 -15 1213 -19 q 1208 -15 1210 -14 q 1208 -19 1207 -17 m 1035 -83 q 1036 -81 1036 -83 q 1035 -75 1036 -75 l 1035 -78 q 1033 -81 1035 -79 q 1032 -85 1032 -83 q 1035 -83 1033 -85 m 706 418 q 710 419 710 418 q 706 422 710 422 q 704 421 704 422 q 705 419 704 419 q 706 418 706 419 m 1554 493 q 1561 496 1561 493 l 1557 496 q 1554 493 1554 496 m 1114 893 q 1118 895 1119 892 q 1118 897 1117 899 q 1115 898 1115 896 q 1114 893 1114 900 m 1483 496 q 1476 494 1481 494 q 1469 493 1472 494 q 1483 496 1469 496 m 1490 663 q 1494 663 1494 663 q 1494 667 1494 664 q 1490 663 1490 668 m 1260 -150 q 1258 -153 1258 -153 q 1253 -149 1253 -153 q 1260 -150 1257 -149 m 1176 -71 q 1180 -71 1179 -71 q 1181 -67 1181 -71 q 1176 -71 1176 -67 m 1239 501 q 1242 497 1242 501 q 1239 494 1242 494 l 1239 501 m 261 181 q 265 178 264 178 q 267 181 267 178 q 265 182 267 182 q 261 181 263 182 m 1206 -129 q 1211 -136 1210 -136 q 1208 -132 1210 -135 q 1206 -129 1207 -129 m 356 600 q 353 603 356 603 q 349 599 349 603 q 350 600 350 600 q 356 599 354 600 l 356 600 m 690 160 q 688 156 688 157 q 690 154 689 154 q 692 156 692 156 q 690 160 692 158 m 910 -264 q 915 -261 915 -264 q 913 -260 915 -260 q 912 -261 913 -261 q 911 -262 911 -261 l 910 -264 m 807 -176 q 808 -181 807 -181 q 811 -179 811 -179 q 807 -176 811 -176 m 697 515 q 704 517 701 515 l 699 517 q 697 518 697 517 l 696 518 q 697 515 696 517 m 1392 760 l 1392 761 q 1394 764 1392 764 q 1392 765 1394 765 l 1390 765 q 1392 760 1390 760 m 1357 860 q 1356 863 1356 861 l 1356 864 q 1354 863 1354 863 l 1354 861 q 1356 858 1354 858 q 1357 860 1357 858 m 1606 110 q 1608 108 1610 110 q 1608 106 1607 106 q 1606 106 1607 107 q 1606 110 1606 104 m 1192 521 l 1194 521 q 1196 524 1196 521 q 1192 521 1192 524 m 1218 -15 l 1219 -15 q 1222 -12 1222 -15 q 1218 -15 1218 -12 m 233 263 q 234 264 233 264 q 235 265 235 264 q 233 269 235 268 q 233 265 233 267 q 232 263 232 264 l 233 263 m 1385 -62 l 1385 -56 q 1383 -57 1383 -56 q 1385 -62 1383 -62 m 624 753 q 625 758 625 751 q 624 756 624 758 l 624 753 m 831 -172 q 832 -171 832 -174 l 832 -169 q 831 -172 831 -169 m 314 242 q 317 243 315 243 q 319 242 317 243 l 314 242 m 1279 640 q 1281 643 1281 639 q 1279 640 1279 643 m 1279 296 q 1278 293 1278 294 l 1278 296 l 1279 296 m 768 -218 l 769 -218 l 768 -218 m 940 460 q 942 458 940 458 q 940 460 940 458 m 1657 764 l 1657 765 l 1657 764 m 1736 699 q 1738 697 1738 699 l 1736 699 m 1400 -51 l 1401 -51 l 1401 -53 l 1400 -51 m 1354 192 l 1354 193 l 1354 192 z "},"B":{"ha":1385,"x_min":67,"x_max":1311,"o":"m 689 -242 q 574 -152 639 -203 q 440 -42 510 -101 q 304 86 371 18 q 185 227 238 154 q 99 376 132 300 q 67 531 67 453 q 93 656 67 596 q 167 763 119 717 q 279 835 214 808 q 421 863 344 863 q 689 699 613 863 q 957 863 765 863 q 1099 835 1033 863 q 1211 763 1164 808 q 1285 656 1258 717 q 1311 531 1311 596 q 1278 376 1311 453 q 1193 227 1246 300 q 1074 86 1140 154 q 938 -42 1007 18 q 803 -152 868 -101 q 689 -242 738 -203 z "},"C":{"ha":1367,"x_min":71,"x_max":1256,"o":"m 1215 615 q 1213 608 1214 613 q 1213 592 1210 599 q 1222 573 1214 588 q 1237 539 1229 558 q 1250 499 1244 519 q 1253 463 1256 478 q 1240 437 1249 446 q 1221 424 1231 428 q 1199 418 1210 418 l 1196 408 q 1201 411 1201 408 q 1205 410 1203 414 q 1207 401 1207 406 l 1207 382 q 1201 379 1203 379 q 1194 375 1197 376 q 1186 372 1190 374 l 1185 358 q 1193 340 1190 350 q 1195 320 1196 332 q 1186 296 1194 308 q 1159 269 1178 281 q 1120 251 1140 258 q 1084 239 1100 243 q 1064 233 1068 235 q 1053 222 1054 226 q 1051 215 1051 218 l 1056 211 q 1058 207 1057 208 q 1060 203 1060 206 q 1051 195 1060 194 q 1039 203 1043 196 q 1037 215 1036 208 q 1044 229 1038 222 l 1036 390 q 989 404 1013 396 q 949 425 965 413 l 949 424 q 941 417 947 421 q 926 408 935 413 q 910 399 918 403 q 901 393 903 394 q 899 380 900 390 q 893 360 899 369 q 876 344 882 347 q 883 340 881 342 q 890 338 886 339 q 930 309 911 326 q 960 285 949 292 q 981 274 971 278 q 1000 263 992 271 q 1004 238 1004 253 q 1006 217 1004 224 q 1011 201 1008 211 q 1017 182 1014 192 q 1021 164 1017 176 q 1040 168 1024 167 q 1090 160 1056 169 q 1169 102 1139 146 q 1200 7 1200 58 q 1190 -49 1200 -19 q 1164 -96 1181 -78 q 1085 -143 1129 -132 q 1006 -154 1042 -154 q 921 -138 954 -154 q 882 -115 888 -122 q 862 -152 875 -132 q 829 -192 849 -172 q 734 -244 793 -226 q 611 -261 675 -261 q 513 -251 563 -261 q 432 -221 464 -240 q 361 -158 376 -186 q 346 -108 346 -129 q 317 -118 338 -112 q 267 -124 296 -124 q 188 -108 231 -124 q 107 -49 146 -93 q 71 51 71 -6 q 100 151 71 103 q 183 222 129 199 q 235 239 211 235 q 278 243 258 243 q 306 240 294 243 q 325 235 318 238 q 332 315 318 272 q 365 378 342 350 q 420 424 388 406 q 492 449 453 442 q 575 453 532 457 q 630 442 607 450 q 668 428 653 435 q 694 443 682 435 q 715 460 707 451 q 733 488 721 467 q 758 534 744 508 q 785 584 771 560 q 813 621 800 608 q 786 616 806 622 q 758 608 767 610 q 741 615 749 608 q 728 625 733 622 q 713 628 725 628 q 693 632 700 628 q 683 642 686 633 q 675 651 679 650 q 665 657 674 656 q 653 664 657 658 q 655 676 649 672 q 658 685 661 679 q 642 689 657 690 q 624 694 626 688 q 620 714 617 706 q 624 725 624 722 q 617 731 624 726 q 610 743 610 736 q 610 748 607 746 q 615 750 613 750 q 611 753 613 753 l 610 753 q 592 758 599 753 q 582 769 586 763 q 576 780 578 775 q 572 785 574 785 q 572 789 568 789 l 613 789 q 581 815 590 800 q 571 833 572 831 q 568 837 569 836 q 571 836 567 838 q 580 834 572 835 q 597 833 588 833 q 615 833 606 833 q 629 833 625 833 q 625 861 624 849 q 626 876 626 874 q 626 884 626 881 q 631 882 625 888 q 660 860 633 876 q 717 829 686 844 q 714 837 711 835 q 715 846 717 839 q 717 853 714 847 q 721 857 718 856 q 713 870 714 863 q 711 884 711 878 q 712 895 711 890 q 711 900 713 900 q 715 903 708 907 q 727 896 717 903 q 744 883 738 889 l 744 888 q 735 916 733 900 q 735 936 738 932 q 758 919 740 931 q 779 907 767 914 q 790 928 783 919 q 797 940 796 938 q 801 946 800 943 q 803 940 803 949 q 810 919 803 936 q 828 880 818 901 q 849 838 839 858 q 867 807 860 817 q 884 760 879 788 q 885 708 889 733 q 876 678 882 690 q 865 664 869 667 q 864 658 865 661 q 863 650 863 654 q 909 668 886 661 q 936 678 932 675 q 946 687 942 682 q 953 696 950 692 l 951 696 q 944 695 949 693 q 936 703 940 697 q 935 720 933 708 q 935 738 936 732 q 932 758 932 743 q 935 778 932 772 q 935 792 939 783 q 931 811 931 800 q 938 831 931 822 q 949 846 944 839 q 952 864 953 851 q 954 882 951 876 q 969 895 958 888 q 986 911 979 903 q 1008 926 993 921 q 1036 931 1022 931 q 1067 926 1051 931 q 1092 915 1082 922 q 1110 905 1101 908 q 1129 899 1119 901 q 1144 892 1140 896 q 1151 882 1147 889 q 1163 865 1156 875 q 1175 849 1169 856 q 1185 840 1179 843 q 1199 831 1192 836 q 1208 817 1206 824 q 1210 806 1210 810 q 1210 795 1210 803 q 1213 782 1210 788 q 1216 767 1217 779 q 1213 747 1215 754 q 1205 734 1210 743 q 1192 721 1200 725 l 1185 721 q 1179 713 1183 718 q 1174 703 1175 707 q 1168 697 1169 700 q 1164 692 1167 694 l 1167 692 q 1172 693 1171 692 q 1174 694 1174 693 q 1167 690 1174 690 q 1164 692 1164 690 q 1163 690 1164 690 l 1161 690 q 1164 670 1160 685 q 1167 651 1168 656 q 1159 644 1164 646 q 1150 640 1154 643 q 1143 622 1147 629 l 1144 621 l 1143 621 q 1133 617 1140 617 q 1133 610 1136 614 q 1126 610 1133 610 q 1121 609 1125 610 q 1115 606 1117 608 q 1113 597 1114 604 q 1104 588 1111 590 q 1090 585 1094 583 q 1075 590 1085 588 q 1053 599 1071 592 q 1028 604 1035 606 q 1019 592 1024 601 q 1011 573 1015 583 q 1004 553 1007 563 q 1001 540 1001 543 q 1008 512 1004 525 q 1017 494 1013 499 q 1030 477 1021 489 q 1053 453 1039 465 l 1201 604 q 1203 624 1199 618 q 1215 632 1208 629 q 1230 630 1224 636 q 1231 617 1236 624 q 1226 614 1228 614 q 1221 614 1224 614 q 1215 615 1218 614 m 1097 147 q 1042 160 1057 164 q 1022 149 1026 156 q 1030 106 1026 129 q 1036 79 1033 82 q 1071 58 1053 68 q 1096 50 1082 54 q 1110 40 1110 46 q 1108 32 1110 38 q 1099 29 1106 26 q 1076 33 1093 29 q 1044 38 1060 38 q 1010 31 1026 38 q 986 26 994 24 q 974 36 979 29 q 971 54 968 43 q 978 74 975 67 q 976 94 982 82 q 965 111 972 99 q 946 140 957 124 q 933 128 942 135 q 918 114 924 121 q 908 103 915 111 q 894 85 901 94 q 881 68 888 76 q 874 56 875 60 q 876 24 872 46 q 884 1 881 13 q 885 -14 888 -11 q 872 -14 878 -18 q 862 7 868 -7 q 847 31 856 21 q 827 51 840 43 q 813 65 814 58 q 812 78 808 71 q 824 89 815 85 q 840 96 833 94 q 850 107 847 97 q 856 122 851 111 q 866 147 861 133 q 875 174 871 161 q 882 194 879 188 q 822 209 856 201 q 768 221 788 217 q 717 235 742 228 q 681 250 692 243 q 645 276 665 257 q 622 325 625 294 q 624 374 619 356 q 644 408 629 393 q 651 416 649 413 q 661 424 654 419 q 619 437 644 431 q 572 443 593 443 q 421 407 476 443 q 347 325 365 371 q 333 272 336 296 q 333 228 331 247 q 340 220 339 222 q 338 221 340 218 q 358 181 344 194 q 383 165 372 168 q 392 158 392 163 q 375 158 392 157 q 348 177 364 160 q 325 226 332 194 q 307 233 319 229 q 275 236 294 236 q 238 231 258 236 q 189 214 217 226 q 111 148 136 190 q 86 58 86 106 q 94 5 86 31 q 118 -40 103 -21 q 194 -94 153 -82 q 272 -107 236 -107 q 322 -103 303 -107 q 346 -94 340 -99 q 356 -75 350 -78 q 357 -70 357 -72 q 360 -67 357 -68 q 363 -78 364 -64 q 361 -83 363 -81 q 360 -92 360 -86 q 357 -94 357 -92 q 358 -96 360 -94 q 357 -99 357 -97 q 359 -122 357 -108 q 371 -150 361 -135 q 401 -181 381 -165 q 454 -214 421 -197 q 529 -239 489 -231 q 610 -247 569 -247 q 731 -230 674 -247 q 819 -183 788 -212 q 854 -140 842 -160 q 874 -103 867 -121 q 869 -94 871 -96 q 874 -99 868 -92 q 876 -51 885 -71 q 872 -44 874 -47 q 867 -37 871 -40 q 864 -32 861 -33 q 874 -33 867 -31 q 878 -38 876 -36 q 883 -43 881 -40 q 887 -49 885 -46 q 890 -57 889 -53 q 892 -80 893 -68 q 885 -108 892 -92 q 933 -131 900 -119 q 1008 -142 967 -142 q 1082 -129 1044 -142 q 1151 -83 1119 -117 q 1178 -41 1169 -64 q 1186 6 1186 -18 q 1163 88 1186 49 q 1097 147 1139 128 m 1242 458 q 1244 492 1249 472 q 1233 530 1240 511 q 1216 565 1225 549 q 1203 592 1207 582 q 1201 601 1201 594 l 1056 451 q 1086 432 1069 436 q 1143 417 1128 413 q 1158 417 1150 417 q 1174 418 1167 417 q 1183 420 1181 418 q 1186 419 1185 422 l 1186 424 q 1206 426 1196 422 q 1224 436 1214 429 q 1242 458 1233 443 m 1183 304 q 1188 330 1189 319 q 1185 347 1188 340 q 1175 360 1181 354 l 1178 371 l 1175 371 q 1156 378 1167 372 q 1138 383 1146 383 q 1099 383 1126 382 q 1040 390 1072 383 l 1047 233 l 1060 239 q 1088 248 1069 243 q 1125 260 1106 253 q 1160 278 1144 268 q 1183 304 1176 289 z "},"D":{"ha":1343,"x_min":121,"x_max":1306,"o":"m 193 304 q 215 278 199 289 q 251 260 232 268 q 289 248 271 253 q 317 239 307 243 l 329 233 l 336 390 q 277 383 304 383 q 239 383 250 382 q 220 378 231 383 q 201 371 210 372 l 199 371 l 201 360 q 192 347 196 354 q 188 330 189 340 q 193 304 186 319 m 135 458 q 152 436 142 443 q 171 426 163 429 q 190 424 181 422 l 190 419 q 194 420 192 422 q 203 418 196 418 q 218 417 210 417 q 233 417 226 417 q 290 432 249 413 q 321 451 307 436 l 175 601 q 174 592 175 594 q 160 565 169 582 q 144 530 151 549 q 132 492 136 511 q 135 458 128 472 m 279 147 q 214 88 238 128 q 190 6 190 49 q 199 -41 190 -18 q 225 -83 207 -64 q 294 -129 257 -117 q 368 -142 332 -142 q 443 -131 410 -142 q 492 -108 476 -119 q 484 -80 485 -92 q 486 -57 483 -68 q 490 -49 488 -53 q 493 -43 492 -46 q 498 -38 496 -40 q 503 -33 500 -36 q 513 -32 510 -31 q 510 -37 515 -33 q 504 -44 506 -40 q 500 -51 503 -47 q 503 -99 492 -71 q 507 -94 508 -92 q 503 -103 506 -96 q 522 -140 510 -121 q 557 -183 535 -160 q 646 -230 589 -212 q 767 -247 703 -247 q 847 -239 807 -247 q 922 -214 888 -231 q 976 -181 956 -197 q 1006 -150 996 -165 q 1017 -122 1015 -135 q 1019 -99 1019 -108 q 1018 -96 1019 -97 q 1019 -94 1017 -94 q 1017 -92 1019 -92 q 1015 -83 1017 -86 q 1014 -78 1014 -81 q 1017 -67 1013 -64 q 1019 -70 1019 -68 q 1021 -75 1019 -72 q 1031 -94 1026 -78 q 1055 -103 1036 -99 q 1104 -107 1074 -107 q 1182 -94 1140 -107 q 1258 -40 1224 -82 q 1282 5 1274 -21 q 1290 58 1290 31 q 1265 148 1290 106 q 1188 214 1240 190 q 1139 231 1160 226 q 1101 236 1118 236 q 1069 233 1082 236 q 1051 226 1057 229 q 1028 177 1044 194 q 1001 158 1013 160 q 985 158 985 157 q 993 165 985 163 q 1018 181 1004 168 q 1039 221 1032 194 q 1037 220 1036 218 q 1043 228 1038 222 q 1043 272 1046 247 q 1029 325 1040 296 q 956 407 1011 371 q 804 443 900 443 q 758 437 783 443 q 715 424 732 431 q 725 416 722 419 q 732 408 728 413 q 752 374 747 393 q 754 325 757 356 q 731 276 751 294 q 696 250 711 257 q 660 235 685 243 q 608 221 635 228 q 555 209 589 217 q 494 194 521 201 q 501 174 496 188 q 510 147 506 161 q 519 122 515 133 q 526 107 524 111 q 536 96 529 97 q 553 89 543 94 q 565 78 561 85 q 564 65 568 71 q 549 51 563 58 q 529 31 536 43 q 515 7 521 21 q 504 -14 508 -7 q 492 -14 499 -18 q 492 1 489 -11 q 500 24 496 13 q 503 56 504 46 q 495 68 501 60 q 482 85 489 76 q 468 103 475 94 q 458 114 461 111 q 444 128 453 121 q 431 140 435 135 q 412 111 419 124 q 400 94 404 99 q 398 74 394 82 q 406 54 401 67 q 403 36 408 43 q 390 26 397 29 q 366 31 382 24 q 332 38 350 38 q 300 33 317 38 q 278 29 283 29 q 269 32 271 26 q 267 40 267 38 q 281 50 267 46 q 306 58 294 54 q 340 79 324 68 q 347 106 343 82 q 354 149 350 129 q 335 160 350 156 q 279 147 319 164 m 161 615 q 156 614 158 614 q 150 614 153 614 q 146 617 147 614 q 147 630 140 624 q 161 632 153 636 q 173 624 168 629 q 175 604 178 618 l 324 453 q 347 477 338 465 q 360 494 356 489 q 368 512 364 499 q 375 540 372 525 q 372 553 375 543 q 365 573 369 563 q 357 592 361 583 q 349 604 353 601 q 324 599 342 606 q 301 590 306 592 q 287 585 292 588 q 272 588 282 583 q 264 597 265 590 q 261 606 263 604 q 256 609 260 608 q 250 610 251 610 q 243 610 243 610 q 243 617 240 614 q 233 621 236 617 l 232 621 l 233 622 q 226 640 229 629 q 217 644 222 643 q 210 651 213 646 q 213 670 208 656 q 215 690 217 685 l 214 690 q 213 692 213 690 q 210 690 213 690 q 203 694 203 690 q 204 693 203 693 q 210 692 206 692 l 213 692 q 208 697 210 694 q 203 703 207 700 q 197 713 201 707 q 192 721 193 718 l 185 721 q 172 734 176 725 q 164 747 167 743 q 160 767 161 754 q 164 782 160 779 q 167 795 167 788 q 167 806 167 803 q 169 817 167 810 q 178 831 171 824 q 191 840 185 836 q 201 849 197 843 q 214 865 207 856 q 225 882 221 875 q 233 892 229 889 q 247 899 236 896 q 266 905 257 901 q 285 915 275 908 q 310 926 294 922 q 340 931 325 931 q 369 926 354 931 q 390 911 383 921 q 408 895 397 903 q 422 882 418 888 q 424 864 425 876 q 428 846 424 851 q 439 831 432 839 q 446 811 446 822 q 442 792 446 800 q 442 778 438 783 q 444 758 444 772 q 442 738 444 743 q 442 720 440 732 q 440 703 443 708 q 432 695 436 697 q 425 696 428 693 l 424 696 q 431 687 426 692 q 440 678 435 682 q 467 668 444 675 q 514 650 490 661 q 513 658 514 654 q 511 664 511 661 q 501 678 507 667 q 492 708 494 690 q 492 760 488 733 q 510 807 497 788 q 526 838 515 817 q 548 880 538 858 q 566 919 558 901 q 574 940 574 936 q 575 946 574 949 q 579 940 576 943 q 587 928 581 938 q 597 907 593 919 q 617 919 607 914 q 631 929 624 925 q 642 936 639 933 q 641 916 639 932 q 632 888 643 900 l 632 883 q 649 896 639 889 q 661 903 660 903 q 665 900 668 907 q 665 895 664 900 q 665 884 665 890 q 664 870 665 878 q 656 857 663 863 q 660 853 658 856 q 661 846 663 847 q 663 837 660 839 q 660 829 665 835 q 717 860 690 844 q 746 882 743 876 q 751 884 751 888 q 750 876 750 881 q 751 861 750 874 q 747 833 753 849 q 760 833 751 833 q 779 833 769 833 q 797 834 789 833 q 806 836 804 835 q 808 837 810 838 q 806 833 807 836 q 795 815 804 831 q 764 789 786 800 l 804 789 q 804 785 808 789 q 801 780 803 785 q 794 769 799 775 q 783 758 790 763 q 767 753 776 753 l 765 753 q 761 750 764 753 q 767 748 764 750 q 767 743 769 746 q 760 731 767 736 q 753 725 753 726 q 756 714 753 722 q 753 694 760 706 q 735 689 750 688 q 718 685 719 690 q 722 676 715 679 q 724 664 728 672 q 711 657 719 658 q 701 651 703 656 q 694 642 697 650 q 683 632 690 633 q 664 628 676 628 q 649 625 651 628 q 635 615 643 622 q 618 608 628 608 q 590 616 610 610 q 564 621 571 622 q 591 584 576 608 q 619 534 606 560 q 644 488 632 508 q 661 460 656 467 q 682 443 669 451 q 708 428 694 435 q 747 442 724 435 q 801 453 769 450 q 884 449 844 457 q 956 424 924 442 q 1012 378 989 406 q 1044 315 1035 350 q 1051 235 1058 272 q 1070 240 1058 238 q 1099 243 1082 243 q 1142 239 1118 243 q 1193 222 1165 235 q 1276 151 1247 199 q 1306 51 1306 103 q 1269 -49 1306 -6 q 1188 -108 1231 -93 q 1110 -124 1146 -124 q 1060 -118 1081 -124 q 1031 -108 1039 -112 q 1015 -158 1031 -129 q 944 -221 1000 -186 q 863 -251 913 -240 q 765 -261 814 -261 q 642 -244 701 -261 q 547 -192 583 -226 q 515 -152 528 -172 q 494 -115 501 -132 q 456 -138 489 -122 q 371 -154 422 -154 q 291 -143 335 -154 q 213 -96 247 -132 q 186 -49 196 -78 q 176 7 176 -19 q 207 102 176 58 q 286 160 238 146 q 337 168 321 169 q 356 164 353 167 q 360 182 360 176 q 365 201 363 192 q 371 217 368 211 q 372 238 372 224 q 376 263 372 253 q 395 274 385 271 q 417 285 406 278 q 447 309 428 292 q 486 338 465 326 q 493 340 490 339 q 500 344 496 342 q 483 360 493 347 q 477 380 478 369 q 475 393 476 390 q 465 399 472 394 q 450 408 458 403 q 435 417 442 413 q 428 424 429 421 l 428 425 q 388 404 411 413 q 340 390 364 396 l 332 229 q 340 215 339 222 q 338 203 340 208 q 325 195 333 196 q 317 203 317 194 q 321 211 317 207 q 325 215 322 214 q 322 222 324 218 q 313 233 321 228 q 292 239 308 235 q 256 251 276 243 q 217 269 236 258 q 190 296 199 281 q 181 320 182 308 q 182 340 179 332 q 192 358 185 350 l 190 372 q 183 375 186 374 q 175 379 179 376 q 169 382 174 379 l 169 401 q 172 410 169 406 q 175 411 174 414 q 181 408 175 408 l 178 418 q 154 424 165 418 q 136 437 144 428 q 124 463 128 446 q 126 499 121 478 q 140 539 132 519 q 155 573 147 558 q 164 592 163 588 q 164 608 165 601 q 161 615 163 613 z "},"E":{"ha":1324,"x_min":83,"x_max":1231,"o":"m 661 -114 q 651 -119 661 -119 q 644 -115 644 -119 l 643 -115 q 642 -114 642 -115 l 644 -114 l 635 518 q 552 514 589 518 q 490 506 515 510 q 438 494 460 500 q 404 536 424 515 q 363 574 388 554 q 306 608 338 593 q 208 657 240 640 q 176 674 189 667 q 200 721 186 696 q 226 765 211 742 q 260 811 242 789 q 305 857 276 832 q 367 904 333 882 q 435 942 400 926 q 503 958 471 958 q 550 956 533 958 q 581 952 567 954 q 609 948 594 950 q 650 946 624 946 q 682 947 664 946 q 719 951 700 949 q 753 953 738 953 q 779 953 769 954 q 856 933 818 949 q 925 898 893 918 q 983 855 957 878 q 1028 811 1010 832 q 1055 771 1042 792 q 1078 731 1068 750 q 1097 698 1089 713 q 1108 678 1104 683 q 1110 675 1108 676 l 1110 674 q 1078 657 1096 667 q 1037 637 1061 649 q 981 610 1013 625 q 924 574 949 593 q 883 536 900 554 q 849 494 864 515 q 800 506 828 500 q 742 513 776 510 q 665 518 708 517 l 661 -114 m 1229 -46 q 1219 -49 1225 -47 q 1210 -50 1215 -50 q 1201 -50 1206 -50 l 1201 -194 l 1171 -194 l 1163 -172 l 1163 -144 l 818 -144 l 818 -172 l 813 -194 l 781 -194 l 781 -56 q 769 -53 774 -54 q 760 -50 764 -51 q 751 -49 754 -49 l 749 -33 l 847 83 l 878 88 l 779 360 q 815 378 797 371 q 856 393 833 386 l 924 83 l 935 83 l 867 394 q 923 406 894 403 q 982 408 951 408 l 986 83 l 994 83 l 997 408 q 1057 406 1029 408 q 1114 394 1085 403 l 1046 83 l 1057 83 l 1125 393 q 1164 378 1144 386 q 1201 360 1183 371 l 1101 89 l 1133 88 l 1231 -32 l 1229 -46 m 468 94 l 565 -25 l 564 -39 q 554 -42 560 -40 q 545 -44 550 -43 q 536 -46 540 -44 l 536 -189 l 506 -189 l 499 -167 l 499 -137 l 153 -137 l 153 -167 l 146 -189 l 115 -189 l 115 -49 l 85 -43 l 83 -28 l 181 90 l 213 90 l 114 367 q 149 384 131 376 q 189 397 168 392 l 257 90 l 269 90 l 201 401 q 257 413 229 408 q 317 417 285 417 l 321 90 l 329 90 l 332 417 q 392 413 364 417 q 447 401 419 408 l 381 90 l 392 90 l 460 397 q 499 384 481 392 q 536 367 518 376 l 436 96 l 468 94 m 529 703 q 506 654 519 683 q 481 596 493 625 q 458 542 468 567 q 443 504 447 517 q 513 516 458 508 q 642 524 567 524 l 650 524 q 783 513 729 522 q 847 501 836 504 q 833 537 843 511 q 810 593 822 563 q 784 653 797 624 q 761 703 771 683 q 732 744 750 722 q 697 785 714 767 q 664 819 679 804 q 644 838 649 833 l 640 838 q 622 821 636 835 q 591 787 608 807 q 556 744 574 767 q 529 703 539 722 m 396 819 q 458 835 422 829 q 528 844 493 840 q 590 848 563 847 q 631 849 618 849 l 631 853 q 613 870 626 857 q 581 899 599 883 q 544 929 563 914 q 513 953 526 944 l 511 953 q 447 941 482 954 q 376 906 411 928 q 312 857 342 883 q 264 807 282 831 q 240 774 251 792 q 218 738 228 756 q 201 706 208 721 q 189 685 193 692 q 228 715 203 696 q 283 755 254 735 q 342 793 313 775 q 396 819 372 811 m 772 950 q 749 930 764 943 q 716 903 733 917 q 683 876 699 889 q 658 854 667 863 l 658 849 q 703 848 674 849 q 765 844 732 847 q 832 836 799 842 q 890 822 865 831 q 942 796 913 814 q 999 758 971 778 q 1053 718 1028 738 q 1093 686 1078 699 q 1066 742 1085 704 q 1022 807 1047 779 q 972 856 1003 831 q 907 903 942 882 q 837 937 872 924 q 772 950 801 950 m 381 36 l 372 36 l 403 -43 l 407 -43 l 407 -60 l 329 -60 l 329 -43 l 326 36 l 321 36 l 314 -43 l 314 -60 l 240 -60 l 240 -43 l 275 36 l 267 36 l 224 -46 l 224 -62 l 154 -62 l 154 -72 l 496 -72 l 496 -62 l 421 -62 l 421 -46 l 381 36 m 821 -75 l 1161 -75 l 1161 -68 l 1088 -68 l 1088 -51 l 1046 31 l 1036 31 l 1068 -50 l 1071 -50 l 1071 -67 l 997 -67 l 997 -50 l 993 31 l 986 31 l 978 -50 l 978 -67 l 907 -67 l 907 -50 l 942 31 l 932 31 l 890 -50 l 890 -67 l 821 -67 l 821 -75 m 499 -97 l 496 -85 l 154 -85 l 153 -97 l 499 -97 m 1163 -103 l 1163 -92 l 821 -92 l 821 -103 l 1163 -103 m 496 -37 q 477 -22 485 -31 q 464 6 469 -14 q 458 21 461 13 q 453 36 456 29 l 421 36 l 496 -46 l 496 -37 m 1161 -43 q 1143 -28 1151 -36 q 1128 1 1135 -21 q 1117 31 1126 11 l 1090 31 l 1161 -50 l 1161 -43 m 853 -3 q 849 -9 850 -6 q 847 -15 849 -12 l 889 31 l 861 31 q 858 14 860 22 q 853 -3 856 6 m 181 -11 l 222 36 l 196 36 q 192 20 194 29 q 188 3 189 11 l 181 -11 m 1092 64 l 1085 47 l 1114 47 q 1110 56 1111 51 q 1106 64 1108 60 l 1092 64 m 876 64 l 869 47 l 894 47 l 889 64 l 876 64 m 426 67 l 419 53 l 447 53 l 442 67 l 426 67 m 211 67 q 204 53 207 63 l 229 53 l 222 67 l 211 67 m 1040 64 l 1039 47 l 1050 47 l 1053 64 l 1040 64 m 928 64 l 932 47 l 942 47 l 939 64 l 928 64 m 263 67 l 264 53 l 275 53 l 274 67 l 263 67 m 375 67 l 374 53 l 385 53 l 386 67 l 375 67 m 986 64 l 986 47 l 994 47 l 994 64 l 986 64 m 321 67 l 321 53 l 329 53 l 329 67 l 321 67 m 824 -43 l 821 -43 l 821 -46 l 824 -43 m 158 -37 l 156 -37 q 154 -39 154 -37 l 158 -37 z "},"F":{"ha":1279,"x_min":74,"x_max":1213,"o":"m 899 197 q 930 192 913 197 q 963 180 947 186 q 992 169 979 174 q 1007 164 1004 164 q 1015 163 1015 164 q 1006 158 1015 161 q 977 139 997 154 q 924 117 957 124 q 871 117 896 110 q 832 131 846 124 q 822 138 825 138 q 822 143 817 143 q 826 141 824 143 q 832 138 829 139 q 834 135 832 136 q 838 131 836 135 q 869 125 851 128 q 914 125 888 122 q 942 130 928 125 q 968 142 957 135 q 994 158 982 149 q 969 171 983 165 q 908 190 944 182 q 870 191 889 194 q 836 181 851 188 q 811 167 821 174 q 801 158 801 160 q 842 153 826 154 q 864 151 858 151 q 882 151 875 151 q 878 144 889 150 q 849 144 872 143 q 801 151 826 146 l 800 151 q 763 157 779 154 q 736 161 747 160 q 656 185 693 176 q 615 194 619 193 q 630 186 617 193 q 658 160 643 179 q 665 153 663 156 q 671 143 668 150 q 699 122 681 138 q 724 74 718 107 q 721 42 725 58 q 711 10 717 25 q 701 -15 706 -4 q 696 -29 696 -25 q 688 -32 696 -40 q 674 -14 685 -25 q 658 19 664 -3 q 656 63 651 44 q 665 90 660 81 q 669 97 668 96 q 671 100 671 99 q 675 103 672 100 l 676 104 q 678 101 679 101 q 674 96 678 100 q 672 93 674 94 q 670 90 671 92 q 668 86 669 88 q 664 61 665 76 q 665 28 663 46 q 670 10 667 19 q 678 -6 674 1 q 688 -24 683 -14 q 703 8 696 -7 q 713 38 708 22 q 717 68 718 53 q 700 113 715 96 q 676 136 685 129 q 689 101 683 117 q 694 75 694 85 q 692 72 696 68 q 688 82 688 75 q 676 117 686 93 q 656 154 667 140 q 608 188 636 174 q 539 186 579 201 q 497 161 519 178 q 451 122 474 144 q 406 76 428 100 q 367 32 385 53 q 343 4 358 21 q 308 -33 328 -12 q 267 -76 289 -54 q 222 -121 244 -99 q 110 -231 171 -172 q 94 -228 103 -233 q 79 -211 85 -222 q 79 -206 74 -206 q 83 -208 82 -206 q 86 -211 83 -210 q 95 -225 89 -222 q 108 -225 101 -228 q 125 -206 108 -222 q 166 -164 142 -189 q 219 -110 190 -139 q 275 -56 249 -82 q 321 -9 301 -29 q 346 18 340 11 q 369 44 354 28 q 401 78 385 60 q 435 114 418 96 q 467 147 453 132 q 520 188 497 176 q 558 201 543 199 q 603 200 574 204 q 651 196 633 196 q 681 204 663 196 q 716 224 699 213 q 748 245 733 235 q 767 261 763 256 q 772 267 768 264 q 777 271 775 269 q 778 269 779 272 q 771 260 776 267 q 744 238 760 249 q 713 216 729 226 q 685 199 697 206 q 672 190 674 192 q 694 183 675 189 q 735 172 714 178 q 800 158 765 161 q 804 168 797 161 q 824 183 811 175 q 856 195 838 190 q 899 197 875 200 m 354 464 q 347 472 347 467 q 351 479 347 476 q 369 489 357 482 q 400 502 382 496 q 439 512 418 508 q 482 510 460 515 q 516 494 503 504 q 538 475 529 485 q 551 458 546 465 q 558 447 556 450 q 563 444 561 444 l 564 443 q 576 434 571 439 q 588 426 582 429 q 599 418 593 421 q 600 436 599 426 q 608 485 603 454 q 606 518 610 497 q 593 560 603 539 q 576 587 586 572 q 558 615 567 601 q 540 637 549 628 q 531 649 532 646 q 524 660 525 654 q 528 658 524 665 q 540 643 531 656 q 561 615 550 631 q 582 584 572 599 q 594 564 592 569 q 608 531 604 546 q 614 511 613 515 q 618 522 615 514 q 628 538 621 531 q 651 558 639 550 q 671 567 664 565 q 681 567 679 572 q 679 565 681 565 q 676 565 678 565 q 671 564 674 564 q 629 535 650 560 q 617 496 618 521 q 615 444 615 471 q 604 388 613 414 l 594 358 q 587 345 592 351 q 578 335 582 339 q 572 329 574 331 q 572 332 569 328 q 578 344 574 336 q 587 362 582 351 q 595 383 592 372 q 599 403 599 394 q 588 419 599 410 q 562 437 576 428 q 532 453 547 446 q 508 461 517 460 q 497 465 483 465 q 519 463 506 467 q 544 454 532 460 q 525 476 536 461 q 482 499 514 490 q 441 501 463 504 q 401 492 419 499 q 360 474 381 485 q 383 457 369 465 q 410 442 394 450 q 444 429 425 435 q 488 426 465 421 q 522 436 511 431 q 526 437 524 436 q 531 438 528 438 q 539 443 538 443 q 539 438 543 443 l 539 436 q 524 424 539 432 q 495 416 513 419 q 453 414 478 413 q 425 422 439 415 q 399 438 411 429 q 375 453 386 446 q 354 464 364 461 m 76 -199 q 76 -197 75 -199 q 82 -194 76 -194 q 109 -171 86 -192 q 165 -119 132 -150 q 236 -50 197 -87 q 311 24 275 -12 q 378 92 347 61 q 424 143 408 124 q 517 259 482 213 q 557 315 551 306 q 565 325 560 322 q 565 315 571 328 q 530 258 563 306 q 435 139 497 211 q 377 77 411 113 q 305 4 343 42 q 229 -69 267 -33 q 161 -135 192 -106 q 110 -183 131 -164 q 86 -204 89 -203 q 76 -199 76 -207 m 926 621 q 929 621 929 626 l 929 617 q 876 575 903 597 q 824 531 853 556 q 767 481 794 507 q 670 388 714 435 q 594 300 626 340 q 543 232 563 260 q 521 197 524 204 q 508 187 513 185 q 510 197 503 189 q 532 232 513 203 q 583 302 551 261 q 657 390 614 343 q 751 481 700 438 q 806 525 775 500 q 864 571 836 550 q 926 621 896 596 m 1171 810 q 1135 812 1154 806 q 1102 830 1117 818 q 1078 856 1088 842 q 1072 882 1069 871 q 1085 899 1074 894 q 1109 903 1096 904 q 1135 896 1122 901 q 1154 882 1147 890 q 1160 872 1160 879 q 1157 863 1160 865 q 1140 849 1153 853 q 1137 850 1138 849 q 1133 851 1136 851 q 1131 856 1131 854 q 1136 857 1131 858 q 1141 856 1138 854 q 1147 864 1144 858 q 1149 871 1150 865 q 1144 882 1149 876 q 1132 889 1142 886 q 1112 893 1122 892 q 1092 892 1101 894 q 1082 882 1083 889 q 1092 861 1082 874 q 1115 839 1101 849 q 1144 824 1129 829 q 1172 826 1160 819 q 1197 852 1192 833 q 1186 896 1203 871 q 1147 931 1168 922 q 1118 936 1126 939 q 1107 940 1107 936 q 1115 950 1107 943 q 1129 947 1119 950 q 1151 938 1139 944 q 1174 922 1163 932 q 1193 900 1185 913 q 1206 849 1208 876 q 1171 810 1204 821 m 892 651 q 885 656 890 651 q 878 664 879 660 q 868 680 875 667 q 858 713 861 693 q 859 756 854 732 q 886 801 864 779 q 916 828 900 817 q 948 847 932 839 q 977 862 964 856 q 999 875 990 868 q 1034 917 1022 899 q 1051 942 1046 936 q 1058 951 1054 951 l 1058 942 q 1042 913 1058 936 q 999 863 1026 890 q 946 824 975 840 q 900 793 917 808 q 877 757 885 776 q 868 720 869 738 q 871 689 867 703 q 882 668 875 675 q 893 657 892 660 q 892 651 894 654 m 1213 799 q 1206 794 1213 794 q 1191 791 1201 796 q 1168 776 1181 786 q 1143 753 1156 767 q 1121 722 1131 739 q 1079 649 1104 686 q 1021 600 1054 613 q 999 600 1011 597 q 977 606 988 603 q 958 614 967 610 q 947 619 950 618 q 933 629 928 626 q 940 626 936 629 q 951 621 944 624 q 963 617 956 621 q 980 612 969 614 q 1004 613 990 610 q 1035 628 1018 615 q 1065 654 1053 638 q 1088 689 1078 671 q 1108 725 1099 707 q 1129 757 1117 743 q 1174 796 1151 785 q 1206 801 1196 807 q 1211 800 1208 800 q 1213 799 1213 800 m 643 572 q 650 585 643 579 q 672 600 657 592 q 708 615 686 608 q 742 616 725 618 q 774 610 758 614 q 803 603 790 607 q 822 600 815 600 q 828 596 832 599 q 821 588 825 593 q 810 581 818 586 q 790 567 801 575 q 765 553 778 560 q 739 543 751 546 q 699 540 721 536 q 661 544 676 543 l 651 544 q 645 547 644 544 q 650 550 646 549 q 655 551 651 551 q 661 551 658 551 q 664 550 663 550 l 671 550 q 701 549 682 550 q 731 550 719 549 q 765 563 750 556 q 790 578 779 571 q 811 594 803 586 q 785 600 800 597 q 756 604 772 603 q 719 606 739 606 q 675 593 692 603 q 651 576 658 583 q 649 572 650 574 q 647 568 649 569 q 644 565 646 565 l 643 565 l 643 567 q 642 568 643 568 q 643 571 642 568 l 643 572 m 751 500 q 708 458 732 483 q 660 410 683 433 q 620 370 638 388 q 599 350 603 353 q 597 347 596 347 q 597 350 597 347 q 599 357 597 353 q 640 400 619 378 q 678 439 658 418 q 715 476 699 460 q 777 532 744 504 q 837 582 810 560 q 883 619 864 604 q 903 636 901 633 q 907 629 911 640 q 888 613 904 626 q 848 581 871 600 q 799 541 825 563 q 751 500 772 519 m 472 665 q 451 701 457 683 q 444 733 446 718 q 444 757 443 747 q 444 767 446 767 q 441 776 439 771 q 449 774 443 781 q 472 765 456 768 q 507 747 488 761 q 538 703 522 732 q 561 656 554 674 q 568 635 564 644 q 574 619 572 626 q 575 611 574 614 q 576 607 575 608 l 576 604 l 576 603 l 575 603 q 574 606 574 603 q 568 615 568 606 q 564 630 565 619 q 558 649 563 640 q 550 665 556 654 q 538 689 544 676 q 523 714 531 701 q 508 735 515 726 q 490 748 500 742 q 472 758 481 754 q 454 765 463 764 q 454 733 453 749 q 460 703 456 719 q 474 672 464 688 q 494 652 481 664 q 520 630 507 640 q 544 611 533 619 q 558 600 556 603 q 561 593 568 593 q 560 594 561 594 q 557 596 557 594 q 527 617 551 603 q 472 665 503 631 m 808 247 q 831 274 821 258 q 849 304 842 289 q 863 342 857 321 q 828 336 844 340 q 798 328 813 333 q 772 314 783 322 q 742 276 757 299 q 722 242 728 254 q 717 235 717 236 q 716 233 717 233 q 715 231 715 232 l 715 229 l 715 236 l 715 239 q 717 246 715 243 q 734 279 721 257 q 771 317 747 301 q 799 332 783 326 q 831 340 815 338 q 857 345 846 343 q 871 350 868 347 q 878 351 876 353 q 878 343 881 350 q 869 328 875 340 q 856 299 864 315 q 838 265 849 282 q 817 239 828 249 q 771 220 797 228 q 729 210 744 213 l 719 210 q 717 213 717 210 q 719 215 717 215 l 729 215 q 765 224 742 217 q 808 247 789 231 m 942 642 q 960 658 949 649 q 983 678 972 667 q 1000 703 993 690 q 1011 725 1007 715 q 1019 747 1017 736 l 994 735 q 950 706 974 724 q 929 672 932 689 q 929 643 926 654 q 926 639 929 638 q 922 649 924 642 q 920 671 915 654 q 933 701 925 688 q 949 717 939 710 q 969 729 958 724 q 991 740 981 735 q 1007 747 1001 744 q 1025 763 1017 754 q 1040 778 1033 772 q 1051 782 1047 785 q 1050 779 1051 781 q 1048 776 1049 778 q 1044 772 1047 775 q 1036 760 1040 769 q 1026 739 1032 751 q 1015 713 1021 726 q 1001 688 1008 700 q 968 653 988 664 q 942 638 949 642 q 936 636 939 636 l 935 636 q 942 642 933 638 m 1044 571 q 1060 549 1051 563 q 1076 522 1068 536 q 1093 496 1085 508 q 1107 479 1101 483 q 1113 465 1115 468 q 1099 472 1110 461 q 1060 494 1088 482 q 1013 529 1032 507 q 989 558 994 546 q 979 578 983 569 q 978 585 979 581 l 978 594 q 983 593 979 596 l 983 585 q 1013 543 988 567 q 1035 522 1022 532 q 1058 506 1047 513 q 1085 489 1072 497 q 1072 511 1078 499 q 1050 560 1061 532 q 1028 582 1039 575 q 1013 592 1018 589 q 1028 585 1018 589 q 1044 571 1038 581 m 828 658 q 789 679 811 669 q 751 693 767 689 l 750 693 q 739 697 742 694 q 735 699 736 699 q 746 701 735 701 l 758 701 q 788 701 776 697 q 806 710 797 704 q 828 714 815 717 q 849 707 842 713 q 856 701 853 704 q 843 706 849 704 q 832 708 838 707 q 821 706 826 708 q 797 699 807 704 q 788 694 792 696 q 804 683 796 689 q 843 665 821 671 q 874 653 861 658 q 890 649 888 649 q 867 650 889 649 q 828 658 844 651 m 1008 593 q 1011 592 1008 593 q 1008 593 1010 593 z "},"G":{"ha":1154,"x_min":153,"x_max":997,"o":"m 575 -242 q 525 16 563 -94 q 439 210 488 126 q 340 353 390 293 q 250 463 289 414 q 175 587 197 529 q 153 694 153 644 q 172 783 153 743 q 222 849 190 822 q 292 891 253 876 q 374 906 332 906 q 442 894 408 906 q 504 858 476 882 q 551 797 532 835 q 575 710 571 760 q 599 797 579 760 q 646 858 618 835 q 708 894 674 882 q 776 906 742 906 q 858 891 818 906 q 928 849 897 876 q 978 783 960 822 q 997 694 997 743 q 975 587 997 644 q 900 463 953 529 q 810 353 861 414 q 711 210 760 293 q 625 16 663 126 q 575 -242 588 -94 z "},"H":{"ha":1501,"x_min":88,"x_max":1401,"o":"m 1151 654 q 1253 634 1204 654 q 1335 577 1301 614 q 1385 490 1369 540 q 1390 378 1401 439 q 1353 286 1382 328 q 1285 210 1324 244 q 1201 152 1246 176 q 1115 110 1156 128 q 1042 85 1074 93 q 996 76 1010 76 q 981 76 985 75 q 975 78 978 76 q 989 92 972 89 q 1054 109 1013 93 q 1142 154 1096 125 q 1230 225 1188 183 q 1300 321 1272 267 q 1325 412 1321 363 q 1318 506 1329 461 q 1278 585 1307 551 q 1207 631 1250 619 q 1129 637 1169 643 q 1051 608 1089 631 q 1079 533 1068 572 q 1093 453 1090 494 q 1086 363 1097 400 q 1056 305 1075 326 q 1015 276 1038 283 q 972 276 993 269 q 938 308 951 286 q 916 357 924 329 q 908 416 908 385 q 914 476 907 447 q 957 556 926 519 q 1026 618 988 593 q 1019 631 1024 622 q 1008 643 1014 639 q 925 705 971 686 q 835 717 879 724 q 753 681 790 711 q 694 596 715 650 q 667 487 674 544 q 671 368 661 429 q 708 245 681 307 q 782 125 735 183 q 914 -8 847 46 q 1043 -94 981 -62 q 1093 -62 1071 -74 q 1150 -44 1115 -50 q 1192 -42 1172 -40 q 1227 -53 1213 -44 q 1250 -74 1242 -61 q 1257 -100 1258 -86 q 1246 -122 1256 -111 q 1220 -142 1236 -133 q 1183 -153 1204 -150 q 1136 -151 1161 -156 q 1098 -139 1119 -146 q 1051 -119 1076 -132 q 957 -192 1010 -153 q 841 -264 904 -232 q 706 -312 778 -296 q 556 -315 635 -329 q 410 -256 458 -297 q 347 -168 363 -214 l 346 -168 q 247 -163 290 -174 q 173 -132 204 -153 q 122 -81 142 -111 q 96 -17 103 -50 q 90 49 88 17 q 103 110 92 82 q 134 159 114 139 q 183 188 154 179 q 226 192 206 194 q 263 182 246 189 q 290 165 279 175 q 304 146 301 154 q 304 128 306 131 q 299 128 303 125 q 292 140 294 131 q 279 158 292 146 q 249 176 267 169 q 211 181 231 183 q 175 153 192 178 q 158 101 163 133 q 157 31 153 68 q 175 -40 161 -6 q 214 -100 189 -75 q 343 -153 272 -158 q 341 -88 335 -118 q 358 -40 347 -58 q 395 -3 374 -18 q 438 19 417 13 q 476 21 458 25 q 503 0 494 17 q 508 -43 513 -18 q 487 -92 504 -68 q 439 -137 469 -117 q 367 -165 408 -157 q 431 -236 385 -206 q 553 -272 478 -267 q 667 -264 604 -278 q 790 -228 729 -250 q 903 -179 850 -206 q 988 -132 956 -153 q 1007 -119 997 -125 q 1026 -107 1017 -114 q 876 -8 956 -71 q 725 149 796 56 q 651 275 679 208 q 612 407 624 342 q 605 533 600 472 q 631 639 610 593 q 685 713 651 686 q 756 749 718 739 q 831 758 793 760 q 901 746 869 756 q 981 699 946 731 q 1043 624 1017 667 q 1151 654 1094 654 m 1008 293 q 1052 332 1035 300 q 1074 409 1069 364 q 1070 505 1079 454 q 1036 600 1061 556 q 962 528 992 571 q 925 438 932 485 q 931 368 922 397 q 952 321 939 339 q 981 296 965 303 q 1008 293 996 289 m 360 -93 q 359 -122 358 -107 q 363 -151 360 -136 q 389 -142 376 -146 q 413 -132 401 -137 q 457 -102 439 -122 q 484 -61 475 -82 q 491 -23 493 -40 q 476 0 489 -6 q 446 2 464 6 q 410 -12 428 -1 q 379 -44 393 -24 q 360 -93 365 -64 m 1150 -60 q 1114 -75 1135 -62 q 1065 -107 1093 -87 q 1134 -131 1103 -124 q 1189 -136 1165 -137 q 1231 -117 1219 -132 q 1238 -86 1243 -101 q 1210 -61 1232 -71 q 1150 -60 1188 -51 z "},"I":{"ha":1501,"x_min":83,"x_max":1397,"o":"m 335 -60 q 275 -61 297 -51 q 247 -86 253 -71 q 253 -117 242 -101 q 296 -136 265 -132 q 351 -131 319 -137 q 419 -107 382 -124 q 371 -75 392 -87 q 335 -60 350 -62 m 1125 -93 q 1106 -44 1119 -64 q 1074 -12 1092 -24 q 1039 2 1057 -1 q 1008 0 1021 6 q 994 -23 996 -6 q 1001 -61 992 -40 q 1028 -102 1010 -82 q 1072 -132 1046 -122 q 1096 -142 1083 -137 q 1122 -151 1108 -146 q 1126 -122 1125 -136 q 1125 -93 1126 -107 m 476 293 q 504 296 489 289 q 533 321 519 303 q 553 368 546 339 q 560 438 561 397 q 523 528 553 485 q 449 600 493 571 q 415 505 424 556 q 410 409 406 454 q 432 332 415 364 q 476 293 449 300 m 333 654 q 442 624 390 654 q 503 699 468 667 q 583 746 539 731 q 653 758 615 756 q 729 749 692 760 q 800 713 767 739 q 854 639 833 686 q 879 533 875 593 q 872 407 883 472 q 833 275 861 342 q 760 149 806 208 q 609 -8 689 56 q 458 -107 529 -71 q 478 -119 468 -114 q 497 -132 488 -125 q 582 -179 529 -153 q 695 -228 635 -206 q 817 -264 756 -250 q 932 -272 879 -278 q 1053 -236 1007 -267 q 1118 -165 1100 -206 q 1046 -137 1076 -157 q 998 -92 1015 -117 q 976 -43 981 -68 q 982 0 971 -18 q 1008 21 990 17 q 1047 19 1026 25 q 1090 -3 1068 13 q 1126 -40 1111 -18 q 1144 -88 1138 -58 q 1142 -153 1150 -118 q 1271 -100 1213 -158 q 1310 -40 1296 -75 q 1328 31 1324 -6 q 1327 101 1332 68 q 1310 153 1322 133 q 1273 181 1293 178 q 1235 176 1253 183 q 1206 158 1218 169 q 1193 140 1193 146 q 1186 128 1190 131 q 1181 128 1182 125 q 1181 146 1179 131 q 1194 165 1183 154 q 1222 182 1206 175 q 1259 192 1239 189 q 1301 188 1279 194 q 1351 159 1331 179 q 1382 110 1371 139 q 1395 49 1393 82 q 1389 -17 1397 17 q 1363 -81 1382 -50 q 1312 -132 1343 -111 q 1238 -163 1281 -153 q 1139 -168 1194 -174 l 1138 -168 q 1074 -256 1122 -214 q 929 -315 1026 -297 q 778 -312 850 -329 q 644 -264 707 -296 q 528 -192 581 -232 q 433 -119 475 -153 q 387 -139 408 -132 q 349 -151 365 -146 q 302 -153 324 -156 q 265 -142 281 -150 q 239 -122 249 -133 q 228 -100 229 -111 q 235 -74 226 -86 q 258 -53 243 -61 q 292 -42 272 -44 q 335 -44 313 -40 q 392 -62 369 -50 q 442 -94 414 -74 q 571 -8 504 -62 q 703 125 638 46 q 777 245 750 183 q 814 368 804 307 q 817 487 824 429 q 790 596 811 544 q 732 681 769 650 q 650 717 694 711 q 560 705 606 724 q 476 643 514 686 q 466 631 471 639 q 458 618 461 622 q 528 556 497 593 q 571 476 558 519 q 577 416 578 447 q 569 357 576 385 q 547 308 561 329 q 513 276 533 286 q 469 276 492 269 q 428 305 447 283 q 399 363 410 326 q 392 453 388 400 q 406 533 394 494 q 433 608 417 572 q 356 637 396 631 q 278 631 315 643 q 206 585 233 619 q 167 506 178 551 q 160 412 156 461 q 185 321 164 363 q 254 225 211 267 q 343 154 297 183 q 431 109 389 125 q 496 92 472 93 q 510 78 513 89 q 503 76 507 76 q 489 76 500 75 q 443 85 475 76 q 370 110 411 93 q 284 152 329 128 q 200 210 239 176 q 132 286 161 244 q 94 378 103 328 q 99 490 83 439 q 149 577 115 540 q 232 634 183 614 q 333 654 281 654 z "},"J":{"ha":1206,"x_min":90,"x_max":1122,"o":"m 1114 725 q 1097 724 1111 722 q 1065 733 1083 726 q 1027 749 1047 739 q 990 771 1007 758 q 951 811 971 790 q 922 849 931 832 q 924 832 924 843 q 920 804 925 821 q 901 765 915 788 q 860 715 888 743 q 797 660 831 688 q 732 605 763 633 q 679 547 701 576 q 653 485 657 518 q 651 415 646 442 q 663 366 657 388 q 668 324 668 344 q 650 271 668 303 q 635 248 644 261 q 617 218 626 235 q 621 210 619 215 q 628 201 622 206 q 668 253 649 231 q 699 283 688 276 q 742 301 721 297 q 785 308 763 306 q 830 317 807 311 q 878 342 853 324 q 919 396 899 356 q 958 483 939 436 q 992 572 976 529 q 1019 631 1008 614 q 1066 691 1043 667 q 1104 718 1089 715 q 1116 718 1115 724 q 1110 711 1117 713 q 1074 681 1099 708 q 1025 607 1049 653 q 997 540 1013 582 q 965 456 982 499 q 926 376 947 413 q 879 326 904 340 q 813 299 840 306 q 765 291 786 293 q 728 285 744 289 q 694 261 711 281 q 669 231 683 251 q 635 185 656 210 q 703 71 669 126 q 757 -12 736 15 q 800 -12 772 -18 q 856 0 828 -7 q 908 12 885 7 q 938 8 931 17 q 915 -45 951 -7 q 804 -132 879 -83 q 728 -174 764 -157 q 666 -199 693 -192 q 622 -203 639 -206 q 600 -189 604 -201 q 617 -159 599 -179 q 656 -117 635 -139 q 697 -76 678 -96 q 715 -49 715 -57 q 715 -40 715 -44 q 717 -33 715 -35 q 670 44 701 -7 q 607 150 639 96 q 524 34 564 92 q 465 -56 485 -24 q 479 -94 464 -71 q 513 -140 494 -117 q 545 -182 531 -162 q 557 -211 560 -201 q 497 -212 546 -231 q 372 -144 447 -193 q 306 -90 335 -117 q 258 -42 276 -64 q 233 -3 239 -19 q 239 21 228 13 q 273 17 247 26 q 328 -3 299 8 q 382 -24 357 -15 q 415 -28 407 -33 l 421 -28 q 453 11 435 -14 q 493 65 472 36 q 536 127 514 94 q 579 190 558 160 q 538 254 557 226 q 510 292 519 282 q 477 310 500 303 q 427 324 454 317 q 372 340 400 331 q 321 365 343 349 q 262 436 283 394 q 227 521 240 478 q 206 603 214 564 q 186 663 197 642 q 157 710 169 693 q 134 737 144 728 q 115 749 124 746 q 101 756 107 753 q 94 763 90 760 q 101 768 97 765 q 96 771 99 768 q 98 788 96 778 q 108 809 100 797 q 133 836 117 821 q 178 868 150 851 q 265 901 232 901 q 301 890 299 901 q 294 875 301 886 q 273 850 286 864 q 243 823 260 836 q 208 800 226 810 q 157 777 185 786 q 113 768 129 768 q 126 763 117 767 q 149 747 136 758 q 177 715 163 736 q 207 656 192 693 q 218 624 213 640 q 229 589 224 607 q 240 601 232 594 q 261 615 247 608 q 298 626 275 621 q 356 636 321 632 q 417 636 390 639 q 460 628 443 633 q 484 616 476 622 q 492 606 492 610 q 477 594 490 601 q 444 581 464 588 q 401 569 424 574 q 356 563 378 564 q 283 565 319 561 q 231 575 246 568 q 251 515 240 544 q 273 458 261 485 q 301 409 285 431 q 338 374 317 388 q 401 344 375 350 q 449 335 428 339 q 490 324 471 332 q 529 288 508 315 q 561 241 542 271 q 603 175 581 211 q 649 101 626 139 q 690 30 671 63 q 721 -26 708 -3 q 735 -56 733 -50 q 732 -74 736 -65 q 725 -82 728 -82 q 724 -78 721 -82 q 726 -58 726 -74 l 726 -57 q 725 -54 726 -56 q 722 -50 724 -53 q 721 -56 724 -51 q 703 -82 721 -64 q 666 -120 686 -100 q 630 -158 646 -140 q 617 -183 614 -175 q 640 -191 621 -193 q 683 -179 658 -189 q 735 -155 708 -169 q 785 -126 763 -140 q 834 -94 808 -112 q 881 -59 860 -76 q 916 -27 903 -42 q 928 -6 929 -12 q 907 -1 928 3 q 860 -10 886 -4 q 808 -23 833 -17 q 769 -26 782 -29 q 774 -32 771 -29 l 775 -33 q 788 -35 782 -35 q 793 -42 793 -36 q 789 -44 796 -43 q 772 -42 782 -46 q 767 -33 771 -36 q 757 -22 764 -29 q 751 -16 753 -21 q 750 -11 749 -11 q 716 41 736 10 q 673 108 696 72 q 628 180 650 143 q 587 249 606 217 q 556 303 568 281 q 542 336 543 326 q 538 384 535 363 q 548 426 542 406 q 559 471 554 447 q 558 525 564 494 q 524 583 553 549 q 460 653 496 618 q 392 719 425 688 q 347 768 360 750 q 309 834 322 803 q 301 878 296 865 q 308 890 303 892 q 313 882 314 889 q 324 838 310 874 q 369 768 339 803 q 422 714 389 744 q 488 649 456 683 q 544 582 519 615 q 572 519 569 549 q 571 447 576 475 q 558 399 565 419 q 549 363 551 379 q 558 322 547 346 q 578 283 565 307 q 610 231 592 260 l 649 293 q 651 331 654 307 q 642 384 647 356 q 634 442 638 413 q 638 497 631 472 q 681 579 650 543 q 746 644 711 615 q 813 695 781 672 q 860 738 844 718 q 890 784 879 765 q 906 816 901 803 q 912 838 911 829 q 913 854 913 847 q 913 863 911 864 q 921 856 915 863 q 922 864 921 864 q 963 868 933 872 q 1042 826 992 864 q 1109 760 1096 790 q 1114 725 1122 731 m 444 -76 q 460 -45 446 -69 q 497 13 475 -21 q 544 85 518 46 q 599 163 571 125 q 590 181 592 169 q 534 102 564 142 q 478 29 504 63 q 433 -26 453 -4 q 406 -51 413 -49 q 390 -53 394 -54 q 388 -49 385 -51 q 401 -47 388 -50 q 410 -42 401 -47 q 376 -35 400 -44 q 326 -14 353 -25 q 278 5 300 -3 q 251 7 257 13 q 253 -16 243 0 q 282 -51 263 -32 q 326 -91 301 -71 q 371 -126 350 -111 q 419 -158 392 -142 q 470 -186 446 -174 q 513 -205 494 -199 q 538 -207 532 -211 q 534 -186 544 -204 q 508 -146 524 -168 q 476 -101 492 -124 q 457 -68 461 -79 q 455 -74 456 -71 q 450 -76 454 -76 q 451 -88 449 -83 q 450 -93 454 -93 q 445 -88 449 -93 q 444 -76 442 -83 m 717 579 q 730 591 721 585 q 755 601 739 597 q 795 606 771 606 q 856 601 819 606 q 914 588 890 597 q 951 569 938 579 q 971 551 965 560 q 975 538 976 542 q 957 529 972 533 q 921 523 942 525 q 876 522 900 521 q 832 526 853 522 q 789 538 811 531 q 749 552 767 544 q 722 567 732 560 q 717 579 713 574 m 957 542 q 931 565 964 550 q 856 592 899 581 q 810 597 833 596 q 769 595 788 597 q 738 588 750 593 q 726 576 726 582 q 740 566 726 572 q 773 553 754 560 q 810 542 792 547 q 840 533 829 536 q 874 531 854 531 q 911 532 893 531 q 942 536 929 533 q 957 542 956 539 m 360 626 q 315 621 336 626 q 276 609 293 615 q 248 597 258 603 q 238 586 238 590 q 254 578 239 581 q 290 574 269 575 q 331 572 310 572 q 364 571 351 571 q 394 575 375 571 q 431 585 413 579 q 462 596 449 590 q 476 606 475 601 q 468 615 478 611 q 442 621 458 618 q 403 625 425 624 q 360 626 382 626 m 933 856 q 939 839 931 850 q 960 816 947 828 q 985 793 972 804 q 1007 776 999 782 q 1032 760 1017 768 q 1063 744 1047 751 q 1090 734 1078 738 q 1107 733 1103 731 q 1089 763 1113 740 q 1035 811 1065 785 q 1001 835 1018 825 q 969 851 983 844 q 944 858 954 857 q 933 856 935 860 m 188 854 q 127 809 153 833 q 107 778 101 785 q 124 777 111 774 q 153 787 138 781 q 185 801 169 793 q 211 814 201 808 q 235 828 221 818 q 260 851 249 839 q 280 872 272 863 q 286 886 288 882 q 277 890 286 892 q 255 883 268 889 q 224 870 242 878 q 188 854 206 863 z "},"K":{"ha":1319,"x_min":113,"x_max":1253,"o":"m 736 276 q 752 244 736 260 q 787 205 768 228 q 822 151 806 182 q 838 72 838 119 q 819 -19 836 21 q 783 -87 803 -58 q 747 -137 763 -117 q 731 -171 731 -158 q 739 -193 732 -186 q 753 -206 746 -200 q 768 -216 761 -211 q 776 -232 775 -221 q 711 -276 776 -260 q 499 -296 646 -293 q 369 -293 428 -299 q 267 -277 310 -287 q 197 -254 224 -267 q 167 -231 171 -242 q 169 -211 164 -219 q 184 -196 175 -203 q 201 -184 193 -189 q 211 -174 210 -179 q 197 -145 211 -169 q 163 -86 182 -121 q 128 -11 144 -51 q 113 67 113 29 q 127 136 113 104 q 160 194 142 168 q 193 240 178 219 q 211 275 208 260 q 203 299 211 288 q 183 319 194 310 q 161 336 172 329 q 144 349 150 343 q 129 369 133 358 q 142 396 125 381 q 173 415 154 407 q 211 431 192 424 q 256 443 232 438 l 258 443 l 251 465 q 253 535 244 500 q 272 607 261 569 q 274 650 278 622 q 261 707 269 678 q 243 763 253 736 q 229 803 233 789 q 213 812 221 803 q 201 833 206 821 q 196 856 196 844 q 201 874 196 868 q 208 878 204 875 q 214 883 211 882 q 194 915 203 900 q 181 942 188 929 q 171 967 174 956 q 181 992 168 981 q 210 1008 193 1003 q 241 1010 226 1013 q 258 997 256 1008 q 268 939 264 965 q 275 903 272 913 l 285 903 q 299 891 293 900 q 308 871 306 882 q 311 849 311 860 q 310 833 311 839 q 309 829 310 832 q 308 825 308 826 q 324 789 313 814 q 349 735 335 764 q 380 683 364 707 q 411 649 396 658 q 473 609 442 628 q 524 560 504 590 q 540 522 531 549 q 560 461 550 496 q 623 458 575 461 q 733 436 671 454 q 766 422 750 431 q 794 402 782 413 q 811 380 806 392 q 813 358 817 368 q 794 340 807 347 q 768 326 782 333 q 744 307 754 318 q 736 276 735 296 m 765 -232 q 759 -219 765 -224 q 745 -208 753 -214 q 731 -196 738 -203 q 724 -178 724 -189 q 738 -142 722 -167 q 772 -83 753 -117 q 806 -10 790 -50 q 824 72 822 31 q 810 135 824 107 q 779 187 797 164 q 745 229 761 210 q 725 268 729 249 q 730 301 721 286 q 753 328 739 317 q 780 347 767 339 q 796 358 793 354 q 799 375 801 365 q 787 395 796 385 q 763 415 778 406 q 731 429 747 424 q 683 441 710 436 q 633 449 657 446 q 590 455 608 453 q 564 457 571 457 q 569 444 567 450 q 574 432 572 438 q 613 428 581 431 q 682 419 646 425 q 747 402 718 413 q 774 376 775 392 q 747 352 774 363 q 678 334 719 342 q 590 322 638 326 q 499 318 542 318 q 401 321 456 318 q 298 331 347 324 q 215 349 249 338 q 178 376 181 360 q 189 392 176 385 q 217 406 201 400 q 247 415 232 411 q 265 418 261 418 q 262 428 264 425 q 260 436 260 431 q 235 431 253 435 q 196 418 217 426 q 156 394 174 406 q 144 367 139 383 q 157 351 146 360 q 181 330 168 342 q 206 305 194 318 q 218 276 217 292 q 207 239 221 258 q 175 196 193 219 q 142 142 157 172 q 126 72 126 111 q 142 -6 126 33 q 176 -81 157 -46 q 210 -140 194 -115 q 226 -174 226 -165 q 217 -190 226 -183 q 199 -201 208 -196 q 182 -212 189 -207 q 179 -228 175 -218 q 220 -252 185 -242 q 303 -270 256 -262 q 401 -281 350 -278 q 493 -285 453 -285 q 582 -280 535 -285 q 670 -268 629 -275 q 738 -251 711 -261 q 765 -232 765 -242 m 593 335 q 582 372 589 347 q 565 426 575 396 q 546 486 556 456 q 526 540 536 517 q 501 552 518 544 q 464 565 485 560 q 419 571 443 571 q 371 560 396 571 q 331 535 347 550 q 302 504 314 521 q 283 471 290 488 q 272 440 276 454 q 297 377 283 408 q 317 335 311 346 q 401 329 354 331 q 507 329 449 328 q 553 331 532 329 q 593 335 575 333 m 242 803 q 252 772 244 794 q 267 721 260 749 q 281 666 275 693 q 286 622 288 639 q 285 614 285 621 q 313 614 294 614 q 350 622 331 614 q 378 638 369 629 q 392 651 388 646 l 392 653 l 390 654 q 367 683 381 661 q 341 732 354 706 q 317 783 328 758 q 300 819 306 807 q 274 809 289 814 q 242 803 258 804 m 285 608 q 268 550 279 579 q 260 489 257 521 q 262 472 260 482 q 267 451 264 463 q 278 480 271 464 q 297 513 285 496 q 326 544 308 529 q 371 568 344 558 q 423 578 399 578 q 466 573 447 578 q 498 560 485 568 q 519 549 511 553 q 513 563 517 557 q 507 574 510 569 q 483 596 496 586 q 455 614 469 606 q 426 630 440 622 q 399 647 411 638 q 384 631 396 642 q 350 614 372 621 q 308 603 325 603 q 285 608 292 603 m 1172 -211 q 1189 -221 1176 -217 q 1215 -228 1201 -225 q 1240 -236 1229 -232 q 1250 -244 1250 -240 q 1229 -258 1253 -251 q 1161 -268 1206 -265 q 1090 -262 1118 -271 q 1067 -242 1061 -254 q 1080 -233 1068 -237 q 1106 -226 1092 -229 q 1131 -219 1119 -222 q 1146 -211 1143 -215 q 1149 -210 1149 -211 q 1151 -208 1150 -208 q 1151 -166 1151 -193 q 1151 -111 1151 -139 q 1149 -60 1150 -83 q 1146 -28 1147 -36 q 1137 -11 1144 -19 q 1120 7 1129 -3 q 1102 28 1111 17 q 1089 50 1093 39 q 1081 93 1079 71 q 1088 136 1082 115 q 1099 174 1093 157 q 1106 203 1106 192 q 1103 245 1107 233 q 1092 260 1099 257 q 1099 265 1090 265 q 1097 267 1097 265 q 1110 280 1100 274 q 1153 286 1121 286 q 1196 280 1182 286 q 1208 267 1210 274 q 1186 256 1206 261 q 1150 250 1167 250 q 1121 256 1135 253 q 1100 261 1107 258 q 1111 244 1104 258 q 1111 194 1118 231 q 1103 155 1108 175 q 1094 116 1099 135 q 1090 79 1090 97 q 1097 47 1090 61 q 1116 21 1107 29 q 1133 6 1125 13 q 1147 -8 1142 0 q 1153 -32 1151 -15 q 1156 -76 1154 -47 q 1157 -136 1157 -106 q 1156 -191 1157 -167 q 1153 -219 1154 -215 q 1147 -228 1151 -226 q 1140 -231 1143 -231 q 1142 -227 1140 -228 q 1150 -219 1144 -226 l 1150 -218 q 1134 -225 1146 -222 q 1110 -231 1122 -228 q 1087 -237 1097 -233 q 1075 -244 1076 -240 q 1081 -251 1074 -247 q 1101 -257 1089 -254 q 1129 -260 1114 -260 q 1157 -260 1144 -261 q 1183 -258 1169 -260 q 1210 -255 1197 -257 q 1233 -251 1224 -253 q 1243 -246 1242 -249 q 1235 -241 1244 -244 q 1214 -233 1226 -237 q 1190 -226 1201 -229 q 1172 -218 1178 -222 q 1175 -219 1172 -219 q 1176 -221 1176 -219 q 1177 -224 1176 -224 q 1178 -226 1178 -225 q 1179 -228 1178 -228 q 1177 -229 1179 -231 q 1172 -221 1175 -228 q 1171 -211 1171 -221 q 1168 -208 1168 -211 q 1171 -204 1168 -204 q 1167 -158 1168 -187 q 1165 -99 1165 -129 q 1166 -46 1165 -69 q 1171 -17 1167 -22 q 1181 3 1174 -4 q 1194 18 1188 11 q 1209 33 1201 25 q 1222 54 1217 42 q 1223 87 1226 65 q 1215 131 1219 108 q 1204 175 1210 154 q 1197 206 1199 196 q 1197 242 1193 226 q 1203 260 1200 257 q 1209 264 1207 265 q 1208 260 1211 263 q 1204 239 1206 257 q 1206 197 1203 221 q 1213 165 1207 185 q 1224 123 1218 144 q 1231 82 1229 101 q 1226 50 1232 63 q 1209 22 1218 31 q 1193 6 1200 13 q 1181 -7 1186 0 q 1176 -28 1176 -14 q 1173 -63 1174 -39 q 1172 -115 1172 -87 q 1172 -169 1171 -143 q 1172 -211 1172 -196 m 576 426 q 587 390 582 407 q 596 361 592 374 q 604 335 601 346 q 682 344 651 339 q 731 356 713 350 q 756 367 749 361 q 763 376 763 372 q 738 400 763 390 q 680 416 713 410 q 617 424 647 422 q 576 426 586 426 m 425 501 q 462 486 444 501 q 479 447 479 471 q 462 406 479 422 q 425 389 444 389 q 383 406 400 389 q 365 447 365 422 q 383 486 365 471 q 425 501 400 501 m 985 -65 q 999 -75 988 -71 q 1022 -83 1010 -79 q 1045 -90 1035 -86 q 1057 -99 1056 -94 q 1035 -112 1058 -107 q 974 -119 1013 -118 q 906 -113 932 -119 q 886 -96 879 -107 q 898 -87 888 -92 q 922 -81 908 -83 q 946 -74 935 -78 q 958 -67 957 -71 q 960 -65 958 -67 l 963 -65 q 963 -26 963 -51 q 963 27 964 0 q 961 76 963 54 q 958 106 960 99 q 951 119 958 111 q 935 135 944 126 q 918 153 926 143 q 906 174 910 163 q 898 215 897 194 q 903 255 899 236 q 915 290 908 274 q 922 317 921 306 q 919 356 924 347 q 910 368 915 365 q 909 376 907 375 q 914 376 911 376 l 913 376 q 924 390 914 383 q 964 396 935 396 q 1006 388 994 397 q 1014 376 1017 379 q 995 365 1013 369 q 958 361 978 360 q 935 365 947 361 q 917 375 922 368 q 925 356 918 368 q 925 308 932 344 q 910 238 919 274 q 913 174 900 201 q 931 149 922 157 q 947 134 940 140 q 959 120 954 128 q 964 99 964 113 q 966 58 965 85 q 967 2 967 31 q 965 -48 967 -26 q 964 -72 964 -69 q 957 -83 963 -83 q 956 -81 954 -81 q 958 -78 958 -81 q 963 -69 963 -72 q 960 -71 963 -71 l 958 -71 q 948 -78 958 -75 q 925 -83 938 -81 q 902 -89 913 -86 q 892 -96 892 -92 q 898 -103 890 -100 q 917 -109 906 -107 q 941 -111 928 -111 q 965 -111 954 -111 q 1017 -109 989 -111 q 1049 -100 1044 -107 q 1042 -94 1050 -97 q 1022 -86 1033 -90 q 1000 -78 1011 -82 q 985 -71 989 -75 l 985 -78 q 989 -81 988 -81 l 990 -81 q 987 -83 990 -83 q 979 -78 983 -82 l 979 -67 l 979 -61 q 978 -17 979 -44 q 976 37 976 10 q 976 86 976 64 q 979 114 976 108 q 990 132 983 125 q 1003 145 996 139 q 1018 160 1011 151 q 1029 182 1025 168 q 1030 211 1033 192 q 1022 251 1026 231 q 1011 291 1017 272 q 1006 318 1006 310 q 1006 351 1004 338 q 1013 368 1008 365 q 1018 368 1021 381 q 1012 349 1014 365 q 1013 314 1010 333 q 1021 282 1015 301 q 1031 243 1026 263 q 1038 206 1036 224 q 1035 176 1040 188 q 1017 149 1025 158 q 1001 134 1008 140 q 990 122 994 128 q 985 106 985 117 q 981 70 982 93 q 981 22 981 47 q 981 -28 981 -4 q 985 -65 982 -51 m 426 397 q 461 411 446 397 q 476 447 476 425 q 461 484 476 469 q 426 499 446 499 q 390 484 404 499 q 375 447 375 469 q 390 411 375 425 q 426 397 404 397 m 182 965 q 201 924 186 949 q 226 888 217 899 q 264 899 242 896 q 261 920 263 907 q 258 947 260 933 q 253 974 256 961 q 249 993 251 986 q 234 1004 244 1001 q 213 1003 224 1007 q 192 992 201 1000 q 182 974 183 985 q 181 972 179 974 q 182 968 182 971 q 203 971 189 967 q 228 981 217 975 q 233 983 235 986 q 228 975 232 979 q 203 965 215 968 q 182 965 190 963 m 206 864 q 210 832 203 851 q 232 813 217 813 q 249 815 238 813 q 273 819 261 817 q 294 827 285 822 q 304 839 303 832 q 303 851 304 842 q 300 869 303 860 q 293 885 297 878 q 283 893 289 893 q 265 891 276 893 q 240 885 253 889 q 218 876 228 882 q 206 864 208 871 m 300 336 q 287 366 297 344 q 267 414 276 388 q 247 411 260 414 q 220 403 233 408 q 197 391 207 397 q 188 376 188 385 q 217 356 188 365 q 300 336 246 346 m 178 88 q 182 27 174 63 q 201 -42 190 -8 q 224 -101 213 -75 q 236 -131 235 -126 q 246 -155 244 -144 q 244 -171 247 -165 q 238 -158 239 -171 q 229 -132 236 -146 q 215 -105 225 -126 q 193 -54 204 -83 q 174 9 182 -25 q 165 72 165 43 q 172 119 165 99 q 186 157 178 140 q 202 186 194 174 q 214 208 210 199 q 231 260 232 244 q 233 276 231 276 q 235 269 235 276 q 236 253 236 263 q 234 233 236 243 q 229 214 232 222 q 201 166 219 194 q 178 88 183 138 m 1153 276 q 1117 276 1133 279 q 1104 267 1101 274 q 1123 260 1104 261 q 1153 258 1142 258 q 1165 258 1157 257 q 1182 260 1174 258 q 1196 263 1190 261 q 1201 267 1201 265 q 1188 275 1203 274 q 1153 276 1172 276 m 964 386 q 931 384 944 389 q 917 376 917 379 q 923 372 917 374 q 937 368 929 369 q 952 367 944 367 q 964 367 960 367 q 991 371 975 367 q 1010 376 1007 375 q 998 382 1013 379 q 964 386 983 385 m 706 376 q 692 367 697 375 q 685 357 686 360 q 688 368 685 363 q 694 377 690 372 q 704 385 697 382 q 724 382 715 388 q 729 375 728 379 q 722 379 726 378 q 706 376 714 382 m 665 401 q 647 404 656 407 q 639 401 642 403 q 647 408 642 406 q 658 412 651 411 q 671 410 664 413 q 679 394 679 404 q 678 385 679 389 q 676 392 678 388 q 665 401 674 399 m 644 357 q 643 364 644 360 q 631 376 640 369 q 610 385 619 382 q 597 386 604 386 q 611 389 604 389 q 624 388 618 389 q 635 381 631 386 q 646 364 646 369 q 644 357 646 360 m 247 385 q 224 374 229 382 q 218 363 218 367 q 222 374 218 365 q 242 389 226 383 q 268 386 257 394 q 278 376 274 382 q 268 381 274 378 q 247 385 260 385 z "},"L":{"ha":1286,"x_min":82,"x_max":1175,"o":"m 1126 531 q 1139 519 1131 526 q 1156 506 1147 513 q 1169 492 1164 499 q 1172 485 1175 486 q 1157 476 1169 485 q 1122 454 1144 468 q 1135 446 1126 451 q 1151 434 1143 440 q 1163 422 1158 428 q 1164 414 1167 417 q 1151 407 1157 411 q 1138 399 1144 404 q 1121 389 1131 394 q 1133 378 1125 385 q 1149 366 1142 372 q 1160 354 1156 360 q 1164 347 1165 349 q 1131 326 1163 346 q 1048 276 1099 307 q 933 207 997 246 q 801 128 869 168 q 669 50 733 88 q 552 -17 604 13 q 467 -64 500 -47 q 431 -79 435 -81 q 410 -60 426 -78 q 370 -12 393 -42 q 319 53 347 17 q 261 129 290 90 l 254 136 q 191 221 222 179 q 135 297 160 263 q 97 352 111 331 q 83 378 82 374 q 96 390 86 386 q 113 399 106 394 q 83 443 83 439 q 100 457 88 450 q 121 468 113 464 q 99 499 107 488 q 92 514 90 511 q 105 527 94 521 q 122 536 115 533 q 114 554 111 547 q 145 569 115 556 q 224 604 175 583 q 334 652 272 625 q 460 706 396 679 q 585 759 524 733 q 697 806 647 785 q 776 839 746 826 q 810 851 807 851 q 827 840 811 851 q 867 808 843 828 q 922 762 892 788 q 982 708 951 736 q 1041 650 1013 679 q 1091 597 1069 621 q 1125 558 1113 574 q 1136 540 1138 543 q 1126 531 1136 539 m 454 156 q 486 173 456 156 q 566 218 517 190 q 678 281 615 246 q 804 351 740 315 l 633 543 q 625 540 631 540 q 614 547 615 540 q 581 528 607 543 q 521 494 556 514 q 448 453 486 475 q 377 413 410 432 q 322 381 344 394 q 299 365 300 368 q 297 363 297 364 l 297 357 q 353 288 326 324 q 402 223 381 253 q 438 174 424 193 q 454 156 451 156 m 961 717 q 910 691 949 710 q 824 649 871 672 q 730 603 776 626 q 656 565 683 579 q 642 564 649 564 q 644 558 644 563 l 644 554 q 681 562 654 557 q 737 570 707 567 q 794 573 767 574 q 835 564 822 572 q 851 538 850 554 q 847 505 853 521 q 828 477 840 489 q 807 467 817 465 q 773 475 794 467 q 728 494 751 483 q 683 518 706 506 q 647 539 661 531 l 835 371 q 942 433 890 403 q 1032 486 993 463 q 1094 524 1071 510 q 1119 542 1118 539 q 1109 561 1122 546 q 1075 599 1096 576 q 1030 646 1054 621 q 985 694 1006 671 l 961 717 m 503 711 q 367 653 435 682 q 247 601 300 625 q 128 550 185 575 q 174 497 149 525 q 222 443 194 474 q 279 379 249 413 l 279 382 q 281 385 279 383 q 322 408 283 388 q 413 453 361 428 q 519 506 465 479 q 607 550 574 533 q 569 545 596 549 q 510 540 542 542 q 451 538 479 538 q 411 547 422 539 q 395 573 396 560 q 403 598 394 586 q 424 619 411 610 q 447 631 436 628 q 478 626 457 633 q 525 606 500 618 q 573 582 550 594 q 607 564 596 569 l 611 571 l 503 711 m 813 842 q 787 833 811 843 q 723 808 763 824 q 633 769 683 792 q 526 724 582 747 l 617 574 l 626 574 q 636 613 629 586 q 651 669 643 640 q 665 721 658 697 q 674 751 671 744 q 683 756 675 757 q 700 753 692 756 q 714 745 708 750 q 718 738 719 740 q 703 710 715 732 q 678 661 692 688 q 650 610 664 635 q 631 574 636 585 l 638 571 l 943 731 q 901 769 922 750 q 860 805 879 789 q 828 831 842 821 q 813 842 815 840 m 442 71 q 475 89 443 71 q 558 136 507 107 q 673 202 608 165 q 804 278 738 239 l 807 340 q 680 267 742 303 q 568 204 618 232 q 486 160 518 176 q 451 144 454 144 q 431 165 447 146 q 393 212 415 183 q 344 274 371 240 q 294 340 318 308 l 281 272 q 340 197 311 233 q 391 133 368 161 q 428 88 414 104 q 442 71 442 71 m 804 264 q 673 186 738 224 q 557 119 608 149 q 473 74 506 90 q 436 60 440 57 q 417 76 432 60 q 382 119 403 93 q 335 181 361 146 q 279 254 308 217 q 275 227 276 239 q 271 203 274 215 q 330 126 301 163 q 381 61 358 89 q 419 17 404 33 q 435 0 433 0 q 467 18 435 0 q 551 65 499 36 q 668 132 603 94 q 800 208 733 169 l 804 264 m 264 144 q 325 67 294 104 q 379 0 356 29 q 418 -47 403 -29 q 433 -65 433 -65 q 466 -48 435 -65 q 548 -1 497 -31 q 663 65 599 28 q 793 140 726 101 l 797 192 q 667 114 731 151 q 551 48 603 76 q 467 3 500 19 q 431 -11 435 -14 q 412 6 426 -10 q 375 49 397 22 q 326 112 353 76 q 269 185 299 147 q 264 144 264 163 m 833 296 q 953 366 896 332 q 1056 426 1011 400 q 1128 469 1101 453 q 1156 488 1156 486 q 1151 496 1156 490 q 1141 508 1147 501 q 1128 519 1135 514 q 1119 526 1122 524 q 1074 497 1103 515 q 1009 457 1046 479 q 928 409 972 435 q 839 357 885 383 l 833 296 m 1144 347 q 1133 365 1147 354 q 1113 381 1119 376 l 824 208 l 821 156 q 940 226 882 192 q 1043 286 999 260 q 1115 328 1088 313 q 1144 347 1143 344 m 1149 419 q 1146 428 1150 424 q 1136 438 1142 433 q 1124 446 1131 442 q 1117 451 1118 450 l 831 281 l 826 224 q 946 296 889 261 q 1048 357 1003 331 q 1120 400 1093 383 q 1149 419 1147 417 m 124 532 q 111 524 119 529 q 103 514 103 518 q 116 492 103 511 q 151 443 129 474 q 203 374 174 413 q 263 296 232 336 q 268 334 265 317 q 274 363 271 351 l 258 382 q 179 470 217 431 q 124 532 142 510 m 124 463 q 106 452 117 460 q 94 438 94 444 q 108 417 94 435 q 142 369 121 399 q 192 301 164 339 q 251 224 221 264 q 256 252 254 239 q 261 278 257 265 q 184 378 221 331 q 124 463 147 426 m 642 554 q 638 547 642 549 l 640 543 q 676 529 653 539 q 723 510 699 519 q 767 494 747 500 q 792 488 786 488 q 813 499 803 490 q 830 517 824 507 q 838 538 836 528 q 833 551 839 547 q 799 557 825 556 q 742 558 772 558 q 683 557 711 558 q 642 554 654 556 m 118 390 q 102 383 113 389 q 92 371 92 378 q 105 351 92 368 q 140 305 118 333 q 188 241 161 276 q 243 168 215 206 l 250 208 q 176 308 213 260 q 118 390 140 356 m 607 557 q 547 586 575 574 q 497 606 522 597 q 456 615 471 614 q 441 608 449 617 q 428 590 433 600 q 422 569 424 579 q 424 558 419 560 q 456 554 431 556 q 513 552 482 553 q 570 551 543 551 q 607 551 597 551 l 607 557 m 517 313 q 506 307 515 308 q 488 307 497 306 q 472 312 479 308 q 469 319 465 315 q 495 357 474 325 q 542 426 517 389 q 590 496 568 464 q 614 533 611 528 q 595 492 611 526 q 562 418 579 457 q 531 347 544 379 q 517 313 517 315 m 822 733 q 782 744 799 739 q 756 758 767 750 q 751 774 746 765 q 766 784 758 783 q 781 782 774 785 q 797 772 789 778 q 793 786 794 781 q 793 797 792 792 q 801 804 794 801 q 813 794 808 806 q 819 769 817 783 q 822 733 822 754 z "},"M":{"ha":1264,"x_min":107,"x_max":1168,"o":"m 693 789 q 702 715 682 754 q 762 631 722 676 q 855 531 801 585 q 962 411 908 478 q 1064 264 1015 344 q 1144 86 1113 183 q 1147 -47 1168 11 q 1073 -145 1126 -106 q 940 -207 1019 -185 q 768 -234 861 -229 q 576 -226 675 -239 q 383 -182 476 -212 q 260 -122 308 -157 q 181 -47 211 -87 q 137 34 151 -7 q 117 112 122 75 q 110 178 111 149 q 107 224 110 207 q 158 232 126 235 q 168 381 154 314 q 201 478 182 449 q 299 481 239 481 q 431 461 358 482 q 584 390 504 440 q 742 239 664 339 q 798 153 783 186 q 824 118 813 121 q 840 133 831 115 q 853 178 849 150 q 853 239 857 206 q 832 301 850 272 q 742 431 790 368 q 653 554 694 494 q 583 671 611 614 q 553 782 554 728 q 581 878 550 839 q 658 943 613 918 q 754 978 704 968 q 840 988 804 989 q 910 972 876 985 q 969 941 943 960 q 1014 899 996 922 q 1038 850 1032 875 q 1041 810 1043 822 q 1035 792 1039 799 q 1031 778 1032 785 q 1042 757 1031 772 q 1063 727 1051 740 q 1083 703 1074 714 q 1104 682 1094 690 q 1085 671 1096 675 q 1060 667 1075 668 q 1026 674 1046 667 q 985 697 1013 679 q 924 737 958 715 q 852 780 889 758 q 783 812 815 801 q 726 819 750 822 q 693 789 701 815 m 990 839 q 951 859 967 860 q 926 849 936 858 q 910 817 915 838 l 914 792 q 924 790 918 790 q 946 799 931 790 q 956 804 953 804 q 963 802 960 804 q 972 796 965 800 q 992 788 978 792 q 1004 786 997 785 q 1014 792 1011 788 q 1013 808 1017 797 q 990 839 1008 819 z "},"N":{"ha":1264,"x_min":96,"x_max":1157,"o":"m 274 839 q 251 808 256 819 q 250 792 247 797 q 260 786 253 788 q 272 788 267 785 q 292 796 286 792 q 301 802 299 800 q 308 804 304 804 q 318 799 311 804 q 340 790 331 790 q 350 792 346 790 l 354 817 q 336 849 347 838 q 312 859 326 858 q 274 839 297 860 m 571 789 q 538 819 563 815 q 481 812 514 822 q 412 780 449 801 q 340 737 375 758 q 278 697 306 715 q 238 674 251 679 q 203 667 218 667 q 179 671 189 668 q 160 682 168 675 q 181 703 169 690 q 201 727 190 714 q 222 757 211 740 q 233 778 233 772 q 228 792 232 785 q 222 810 225 799 q 226 850 219 822 q 250 899 232 875 q 294 941 268 922 q 354 972 321 960 q 424 988 388 985 q 510 978 460 989 q 606 943 560 968 q 683 878 651 918 q 711 782 714 839 q 681 671 708 728 q 611 554 653 614 q 522 431 569 494 q 432 301 474 368 q 410 239 414 272 q 411 178 407 206 q 424 133 415 150 q 440 118 433 115 q 466 153 451 121 q 522 239 481 186 q 680 390 600 339 q 833 461 760 440 q 965 481 906 482 q 1063 478 1025 481 q 1096 381 1082 449 q 1106 232 1110 314 q 1157 224 1138 235 q 1153 178 1154 208 q 1147 112 1153 149 q 1127 34 1142 75 q 1083 -47 1113 -7 q 1004 -122 1053 -87 q 881 -182 956 -157 q 688 -226 788 -212 q 496 -234 589 -239 q 324 -207 403 -229 q 191 -145 244 -185 q 117 -48 138 -106 q 119 86 96 10 q 200 264 151 183 q 302 411 249 344 q 409 531 356 478 q 502 631 463 585 q 562 715 542 676 q 571 789 582 753 z "},"O":{"ha":2243,"x_min":82,"x_max":2168,"o":"m 507 147 q 370 185 444 163 q 232 246 296 208 q 125 341 168 283 q 82 485 82 399 q 119 622 82 564 q 216 721 157 681 q 347 784 275 761 q 489 815 419 807 q 656 822 567 825 q 831 797 744 819 q 994 729 917 775 q 1125 608 1071 683 q 1256 729 1179 683 q 1419 797 1332 775 q 1594 822 1506 819 q 1761 815 1683 825 q 1903 784 1831 807 q 2034 721 1975 761 q 2131 622 2093 681 q 2168 485 2168 564 q 2125 341 2168 399 q 2018 246 2082 283 q 1880 185 1954 208 q 1743 147 1806 163 q 1572 102 1656 125 q 1411 50 1489 79 q 1261 -19 1333 21 q 1125 -112 1189 -58 q 988 -19 1060 -58 q 838 50 915 21 q 677 102 760 79 q 507 147 594 125 z "},"P":{"ha":1029,"x_min":181,"x_max":857,"o":"m 483 -247 q 497 -204 485 -229 q 521 -143 510 -179 q 463 -8 500 -71 q 383 115 426 56 q 297 235 340 175 q 218 364 253 296 q 184 467 188 418 q 194 557 181 517 q 238 626 208 597 q 304 667 267 654 q 383 674 342 679 q 461 642 424 669 q 493 605 483 625 q 504 561 503 585 l 506 561 q 488 712 497 667 q 471 763 479 757 q 444 758 457 767 q 417 747 432 750 q 381 747 394 743 q 363 760 368 751 q 359 781 358 769 q 367 799 360 792 q 397 818 378 814 q 436 821 417 822 q 482 814 458 819 q 472 878 476 847 q 467 931 469 904 q 464 978 464 958 q 476 1006 464 996 q 506 1017 488 1017 q 535 1007 524 1017 q 547 978 547 997 q 544 931 547 958 q 539 878 542 904 q 532 814 535 847 q 578 821 556 819 q 617 818 597 822 q 647 799 636 814 q 654 781 653 792 q 651 760 656 769 q 633 747 646 751 q 597 747 621 743 q 583 753 589 749 q 572 760 578 757 q 560 765 567 764 q 544 764 554 767 q 533 715 538 763 q 524 561 528 668 l 526 561 q 568 642 531 608 q 687 676 625 683 q 791 626 749 668 q 845 515 833 583 q 814 364 857 446 q 751 268 792 324 q 667 146 711 213 q 582 6 622 79 q 521 -143 542 -68 q 540 -206 529 -179 q 551 -247 550 -232 q 542 -290 554 -275 q 515 -304 531 -304 q 491 -290 501 -304 q 483 -247 481 -275 z "},"Q":{"ha":1821,"x_min":81,"x_max":1740,"o":"m 972 -10 q 982 -3 982 -1 q 977 -12 982 -6 q 966 -25 972 -18 q 957 -33 960 -32 q 880 -66 919 -60 q 800 -65 840 -72 q 719 -42 760 -58 q 642 -7 679 -25 q 579 23 614 6 q 507 59 544 40 q 431 96 469 78 q 353 126 392 114 q 342 128 347 126 q 333 131 338 129 q 292 99 317 115 q 242 72 268 83 q 190 59 215 61 q 144 69 164 57 q 132 95 128 81 q 149 124 136 110 q 179 149 163 138 q 204 164 196 160 q 270 179 233 179 q 344 169 307 179 q 369 239 360 204 q 386 308 378 274 q 403 388 396 349 q 419 468 411 428 q 278 461 349 456 q 224 469 253 463 q 167 489 194 476 q 119 520 140 501 q 90 567 99 539 q 96 630 81 603 q 128 671 111 657 q 146 680 146 685 q 139 667 146 675 q 127 642 131 657 q 126 611 124 628 q 139 578 129 594 q 167 547 149 561 q 217 522 188 532 q 278 505 247 511 q 337 497 308 499 q 385 496 365 494 q 406 499 396 499 q 429 500 417 499 q 451 570 439 536 q 483 636 464 604 q 515 683 496 658 q 556 727 533 707 q 606 760 579 747 q 660 772 632 772 q 723 749 710 772 q 728 694 736 726 q 698 630 719 663 q 657 578 676 597 q 563 512 615 538 q 453 472 510 486 q 444 423 449 447 q 436 381 440 399 q 409 269 424 326 q 363 165 394 211 q 476 124 421 150 q 572 79 532 97 q 663 34 611 61 q 769 -13 714 7 q 877 -37 824 -33 q 972 -10 931 -40 m 1692 329 q 1720 315 1710 326 q 1735 289 1731 304 q 1740 256 1740 274 q 1733 225 1739 239 q 1676 146 1717 181 q 1587 92 1636 111 q 1485 76 1538 74 q 1393 108 1433 78 q 1344 172 1358 135 q 1333 249 1331 208 q 1277 258 1304 249 q 1226 289 1250 267 q 1196 335 1210 300 q 1168 276 1181 301 q 1153 243 1156 250 q 1144 231 1150 240 q 1128 207 1138 221 q 1106 179 1118 193 q 1082 154 1094 165 q 1049 136 1065 139 q 1028 157 1032 133 q 1016 279 1014 208 q 1029 414 1018 350 q 953 351 997 379 q 867 311 910 322 q 840 253 856 281 q 804 203 825 225 q 758 170 783 182 q 703 158 733 158 q 649 183 667 160 q 627 239 631 206 q 632 313 624 272 q 658 390 640 354 q 700 455 675 426 q 754 493 725 483 q 765 497 758 496 q 774 497 771 497 q 776 494 778 496 q 767 488 775 492 q 718 441 739 474 q 685 369 697 408 q 671 291 674 331 q 679 225 668 251 q 713 178 693 182 q 755 194 733 175 q 797 245 776 213 q 829 308 817 278 q 795 318 810 311 q 771 340 781 325 q 751 394 751 368 q 763 441 751 421 q 794 474 775 461 q 833 490 814 488 q 867 485 851 493 q 885 453 882 476 q 885 398 888 429 q 872 335 883 367 q 926 353 899 339 q 977 388 953 368 q 1018 432 1001 408 q 1040 476 1035 456 q 1047 482 1042 479 q 1059 486 1053 485 q 1070 488 1065 488 q 1075 483 1075 488 q 1064 408 1068 446 q 1057 331 1060 371 q 1056 288 1057 317 q 1056 231 1056 258 q 1060 182 1057 203 q 1071 164 1064 161 q 1089 185 1076 165 q 1117 233 1101 206 q 1147 292 1132 261 q 1174 347 1163 324 q 1179 361 1176 354 q 1185 375 1182 368 q 1181 411 1181 393 q 1187 444 1182 429 q 1203 469 1192 460 q 1231 482 1214 479 q 1240 456 1246 483 q 1219 392 1235 429 q 1253 308 1225 344 q 1333 267 1282 272 q 1363 365 1338 318 q 1426 442 1388 413 q 1481 465 1456 464 q 1522 454 1507 467 q 1537 416 1536 442 q 1515 358 1538 390 q 1449 289 1489 318 q 1364 251 1408 260 q 1390 158 1361 199 q 1460 109 1417 124 q 1550 99 1504 94 q 1635 126 1596 103 q 1692 194 1675 150 q 1701 228 1697 208 q 1705 265 1706 247 q 1695 297 1704 283 q 1665 314 1686 311 q 1663 317 1661 314 q 1670 322 1665 319 q 1681 327 1675 325 q 1692 329 1688 329 m 585 728 q 538 694 557 717 q 503 640 518 671 q 478 575 489 610 q 460 506 468 540 q 532 520 494 510 q 601 547 569 531 q 657 588 633 564 q 688 646 681 613 q 669 723 700 699 q 585 728 639 747 m 1413 397 q 1382 337 1396 371 q 1364 267 1368 303 q 1410 283 1388 271 q 1452 313 1433 296 q 1485 352 1471 331 q 1504 396 1499 374 q 1499 433 1510 424 q 1473 440 1489 443 q 1440 425 1457 438 q 1413 397 1422 413 m 790 376 q 839 335 807 342 q 846 357 846 349 q 854 410 850 379 q 846 460 858 440 q 820 474 833 478 q 798 453 807 469 q 786 415 789 438 q 790 376 783 393 m 219 97 q 272 108 242 100 q 322 135 303 117 q 249 145 283 144 q 185 135 214 146 q 167 121 169 128 q 170 108 164 114 q 190 98 176 101 q 219 97 203 94 z "},"R":{"ha":1225,"x_min":90,"x_max":1139,"o":"m 929 469 q 994 494 961 490 q 1054 488 1026 499 q 1102 454 1082 478 q 1129 397 1122 431 q 1124 299 1139 354 q 1083 192 1110 244 q 1024 93 1056 139 q 969 21 993 47 q 917 -37 946 -4 q 863 -105 889 -71 q 819 -169 838 -139 q 797 -218 800 -199 q 786 -233 794 -237 q 778 -214 778 -229 q 773 -181 778 -207 q 759 -123 768 -156 q 738 -56 750 -90 q 714 6 726 -21 q 669 88 699 42 q 610 182 639 133 q 558 278 581 231 q 536 364 536 325 q 556 449 536 415 q 604 501 575 483 q 667 517 633 518 q 731 496 701 515 q 749 482 743 488 q 758 472 754 476 q 756 462 760 468 q 751 460 753 456 q 743 467 749 463 q 729 478 738 472 q 670 495 704 492 q 608 486 636 499 q 565 444 581 474 q 558 364 549 415 q 590 268 568 313 q 636 181 611 224 q 687 94 661 138 q 731 3 713 50 q 752 -56 742 -25 q 772 -114 763 -86 q 793 -176 783 -146 q 840 -112 814 -149 q 894 -43 864 -83 q 964 44 925 -3 q 1030 142 1001 90 q 1074 244 1058 194 q 1093 340 1090 294 q 1083 419 1096 386 q 1059 454 1075 442 q 1024 469 1043 467 q 983 467 1004 472 q 942 450 961 461 q 896 407 914 435 q 867 350 878 379 q 853 297 857 321 q 850 264 850 272 q 846 251 850 253 q 838 254 842 250 l 835 257 q 829 285 833 269 q 822 315 826 297 q 813 351 818 332 q 804 381 806 375 q 799 392 803 388 q 798 403 794 394 q 806 410 801 413 q 813 394 808 408 q 822 364 817 379 q 830 322 825 349 q 838 276 835 294 q 843 312 839 288 q 857 364 847 336 q 884 420 867 392 q 929 469 901 449 m 581 174 q 590 169 583 176 q 593 158 597 163 q 577 138 586 156 q 558 107 568 121 q 496 -17 513 35 q 481 -81 479 -69 q 474 -90 482 -90 q 467 -82 467 -90 q 463 -57 467 -78 q 450 -3 458 -36 q 428 69 442 29 q 394 154 414 110 q 349 235 378 194 q 288 314 321 275 q 220 390 254 353 q 158 465 186 428 q 113 537 131 501 q 93 607 94 572 q 110 690 90 656 q 164 744 131 725 q 240 767 197 764 q 328 756 283 769 q 404 714 372 742 q 457 656 436 686 q 488 597 478 625 q 497 557 497 569 q 492 544 497 549 q 482 564 486 540 q 470 603 481 579 q 440 651 460 626 q 394 699 421 676 q 333 736 367 722 q 265 751 301 750 q 199 737 229 751 q 148 692 168 722 q 128 614 128 663 q 158 503 125 556 q 235 398 190 450 q 328 291 281 346 q 406 175 376 236 q 436 102 422 139 q 460 33 450 65 q 479 -39 471 -3 q 510 53 493 10 q 542 124 524 89 q 581 174 561 158 m 508 625 q 506 613 508 618 q 501 608 504 608 q 496 615 499 608 q 490 638 493 622 q 490 676 486 653 q 506 722 493 699 q 542 766 518 744 q 606 801 567 788 q 668 814 631 810 q 742 803 706 818 q 806 747 778 788 q 840 624 833 706 q 828 518 844 571 q 783 415 811 465 q 719 316 756 364 q 650 225 683 268 q 637 228 646 221 q 633 239 628 235 q 647 253 639 242 q 667 279 656 264 q 737 380 704 322 q 791 498 769 438 q 819 616 813 558 q 808 715 825 674 q 774 765 794 747 q 728 790 753 783 q 674 794 703 797 q 615 783 646 792 q 566 752 586 775 q 533 704 546 729 q 515 656 521 679 q 508 625 508 633 z "},"S":{"ha":1279,"x_min":108,"x_max":1203,"o":"m 1150 261 q 1169 251 1160 256 q 1187 238 1179 246 q 1199 218 1194 231 q 1201 188 1203 206 q 1198 142 1201 169 q 1191 87 1194 114 q 1183 37 1188 60 q 1176 6 1179 14 q 1164 -31 1174 -12 q 1122 -75 1154 -50 q 1088 -98 1113 -83 q 1034 -131 1064 -112 q 971 -169 1004 -149 q 908 -206 938 -189 q 857 -235 879 -222 q 826 -251 835 -247 q 765 -264 807 -262 q 671 -249 722 -265 q 624 -226 654 -243 q 556 -189 593 -210 q 479 -144 518 -168 q 408 -100 440 -121 q 352 -64 375 -79 q 325 -43 329 -49 q 310 -28 318 -36 q 296 -11 301 -21 q 288 13 290 -1 q 289 47 285 26 q 293 95 292 68 q 296 149 294 122 q 300 197 297 175 q 307 229 303 218 q 335 255 317 249 q 357 261 354 261 q 353 265 354 264 q 347 267 353 267 q 325 265 336 267 q 300 265 314 263 q 272 279 293 268 q 226 306 251 290 q 175 339 200 322 q 135 368 150 356 q 117 390 126 374 q 108 429 108 406 q 113 512 110 457 q 121 626 117 567 q 128 741 125 686 q 136 824 132 796 q 165 869 140 853 q 214 892 189 886 q 244 897 221 893 q 301 906 268 901 q 374 917 335 911 q 450 930 413 924 q 519 940 488 936 q 569 947 551 944 q 614 947 594 950 q 638 942 633 943 q 661 933 642 942 q 707 911 681 924 q 761 884 733 899 q 811 857 789 869 q 828 833 825 849 q 829 810 831 818 l 806 497 q 833 507 819 503 q 849 511 846 511 q 863 503 851 511 q 888 483 874 494 q 908 477 894 482 q 933 465 921 472 q 956 434 949 451 q 961 389 963 417 q 954 357 961 371 q 1016 327 983 343 q 1076 297 1049 311 q 1124 273 1104 283 q 1150 261 1144 263 m 343 288 q 358 293 351 292 q 375 298 364 294 q 407 308 386 301 q 465 329 428 315 q 559 365 503 343 q 700 419 615 386 q 717 426 708 421 q 733 435 724 429 q 751 447 742 440 q 749 460 747 454 q 750 468 750 465 q 759 476 750 471 q 783 486 768 482 q 789 526 786 497 q 795 592 792 556 q 801 667 799 628 q 806 740 804 707 q 806 797 807 774 q 801 824 806 819 q 781 839 789 835 q 750 839 774 843 q 711 833 742 838 q 640 824 681 829 q 553 811 599 818 q 467 798 507 804 q 399 787 426 792 q 365 781 371 782 q 342 770 351 778 q 329 739 333 763 q 325 699 328 731 q 319 623 322 667 q 311 529 315 579 q 303 435 307 479 q 297 360 300 392 q 294 322 294 329 q 305 290 294 301 q 343 288 315 278 m 1144 192 q 1156 219 1156 204 q 1136 244 1157 233 q 1110 258 1129 249 q 1063 281 1090 268 q 1006 310 1036 294 q 950 339 976 325 q 915 269 935 300 q 890 231 896 239 q 883 225 890 228 l 897 218 l 857 225 l 678 151 q 679 146 678 147 q 681 144 679 144 q 678 140 681 140 l 689 135 l 672 140 l 672 142 q 667 171 668 151 q 669 213 667 190 q 681 261 672 236 q 704 310 689 286 q 710 317 707 313 q 717 328 714 322 q 751 369 732 350 q 792 401 771 389 q 761 435 775 415 q 744 422 757 431 q 715 398 731 414 q 682 359 699 382 q 656 306 665 336 q 641 247 643 274 q 641 199 639 219 q 647 165 643 178 q 653 150 651 153 l 672 140 l 658 144 l 636 157 l 649 151 q 638 204 643 164 q 649 306 632 244 q 656 328 651 318 q 667 350 661 339 q 574 315 625 333 q 476 281 522 296 q 398 256 431 265 q 363 247 365 246 q 356 252 356 249 q 357 261 357 256 q 350 242 354 258 q 357 215 346 226 q 390 196 360 213 q 464 157 421 179 q 556 110 507 135 q 649 63 606 85 q 722 25 692 40 q 756 8 751 10 q 793 -3 767 1 q 847 10 819 -8 q 881 31 856 15 q 938 65 906 46 q 1005 105 969 83 q 1070 144 1040 126 q 1121 176 1100 163 q 1144 192 1142 189 m 678 157 l 851 229 l 842 244 l 860 236 q 884 278 867 246 q 917 354 901 310 l 847 389 q 835 383 840 386 q 826 379 829 379 q 817 383 824 378 q 800 396 810 389 q 771 375 796 393 q 726 329 746 357 q 694 277 706 304 q 679 226 683 250 q 675 182 675 201 q 678 153 675 163 l 678 157 m 601 614 q 642 574 624 596 q 674 533 661 553 q 694 499 688 513 q 700 483 701 485 q 691 494 699 482 q 669 525 683 506 q 633 569 654 544 q 585 617 613 593 q 582 618 585 617 q 576 611 579 615 q 569 601 572 607 q 511 529 539 567 q 461 460 483 492 q 424 408 439 428 q 408 389 410 388 q 415 409 404 389 q 447 460 426 429 q 497 528 468 490 q 557 601 525 565 q 575 624 567 615 q 528 656 554 640 q 479 683 501 671 q 442 703 457 696 q 426 713 426 711 q 440 708 425 714 q 478 690 454 701 q 529 663 501 679 q 581 629 557 647 q 634 681 607 657 q 683 722 661 706 q 718 747 704 739 q 735 754 732 756 q 693 722 738 753 q 586 625 649 690 l 601 614 m 879 226 q 881 231 879 229 q 895 249 885 236 q 917 282 906 263 q 940 326 929 301 q 954 378 950 350 l 951 378 q 954 390 954 381 l 954 418 q 950 428 951 424 q 944 436 949 432 q 925 447 936 447 q 926 446 925 446 q 926 444 926 446 l 926 443 q 928 435 928 442 q 925 426 928 429 q 933 411 932 424 q 926 368 935 399 q 913 326 922 349 q 892 285 903 304 q 874 252 882 265 q 865 236 867 239 l 869 231 l 879 226 m 826 390 q 844 397 831 390 q 875 410 858 403 q 906 425 892 418 q 922 436 919 432 l 863 449 q 849 442 858 446 q 833 436 839 438 l 824 390 l 826 390 m 756 461 q 764 448 756 458 q 783 426 772 438 q 804 403 793 414 q 822 390 815 393 l 826 436 q 815 446 821 438 q 806 458 810 454 l 756 461 m 922 438 q 913 451 922 440 q 890 474 903 463 q 865 494 876 485 q 849 504 853 504 l 842 481 q 856 467 849 476 q 863 454 863 457 l 922 438 m 922 372 q 927 408 929 396 q 919 424 925 419 q 897 410 911 417 q 869 397 883 404 l 922 372 m 846 503 q 826 497 839 501 q 800 487 814 493 q 774 475 786 481 q 757 465 761 469 l 806 465 q 821 473 810 468 q 838 481 832 478 l 846 503 m 838 475 q 823 468 835 472 q 811 461 811 464 q 821 449 813 458 q 831 442 829 439 q 847 447 835 442 q 858 454 858 453 q 851 467 858 457 q 838 475 844 476 m 919 468 q 894 476 904 475 l 919 454 q 944 443 933 451 q 931 460 938 454 q 919 468 924 465 z "},"T":{"ha":2450,"x_min":135,"x_max":2342,"o":"m 1028 357 q 1046 344 1042 357 q 1036 329 1050 332 q 1003 326 1019 326 q 969 328 988 326 q 932 335 951 329 q 878 354 913 342 q 801 381 844 367 q 812 317 813 356 q 772 236 811 279 q 687 184 733 192 q 599 189 640 176 q 528 226 558 201 q 489 271 497 250 q 478 341 474 307 q 493 396 483 375 q 413 364 447 382 q 356 328 379 346 q 310 286 329 307 q 364 242 332 264 q 429 203 390 222 q 517 169 468 183 q 610 148 558 157 q 704 135 661 139 q 764 133 739 132 q 800 140 789 135 q 806 138 814 150 q 774 115 797 126 q 732 104 754 104 q 706 103 719 104 q 675 101 692 101 q 590 106 636 101 q 488 128 543 110 q 356 181 411 150 q 276 225 301 211 q 245 238 260 233 q 219 244 231 242 q 194 248 204 247 q 176 249 183 249 q 146 264 158 249 q 135 283 135 272 q 151 297 136 294 q 192 315 167 300 q 200 322 193 319 q 169 363 181 329 q 152 435 157 397 q 148 503 147 472 q 153 533 149 533 q 170 516 161 533 q 189 479 179 499 q 208 443 199 460 q 226 426 218 426 q 232 437 232 428 q 231 460 232 446 q 228 494 229 475 q 231 532 226 513 q 238 553 232 544 q 246 549 243 563 q 256 525 249 542 q 272 492 264 508 q 290 462 281 475 q 306 449 299 449 q 312 457 313 449 q 309 480 311 465 q 306 514 307 494 q 310 554 304 533 q 322 574 315 568 q 331 560 328 579 q 339 528 332 543 q 355 503 346 514 q 373 488 364 493 q 386 482 382 482 q 394 496 392 482 q 397 526 396 510 q 398 557 397 543 q 404 571 399 571 q 419 559 410 571 q 438 533 429 547 q 456 506 447 518 q 471 493 465 493 q 477 503 476 493 q 478 524 478 513 q 478 547 478 536 q 488 560 479 557 q 511 542 497 563 q 544 500 525 521 q 590 503 567 503 q 638 503 614 504 q 753 482 703 499 q 839 446 803 465 q 899 408 875 426 q 938 385 922 390 q 991 363 967 371 q 1028 357 1015 354 m 1553 522 q 1610 526 1582 528 q 1660 510 1639 524 q 1692 468 1682 496 q 1693 396 1701 440 q 1665 336 1688 368 q 1613 271 1643 304 q 1551 206 1583 238 q 1493 147 1519 174 q 1453 106 1468 124 q 1433 76 1438 89 q 1413 65 1431 65 q 1376 72 1396 65 q 1346 88 1360 79 q 1332 108 1332 97 q 1319 131 1332 115 q 1283 169 1306 147 q 1229 222 1258 193 q 1174 282 1200 251 q 1129 340 1147 313 q 1108 390 1111 368 q 1123 446 1106 421 q 1169 487 1140 471 q 1233 507 1199 503 q 1297 500 1267 511 q 1356 460 1335 485 q 1385 411 1376 435 q 1415 442 1397 425 q 1453 474 1432 458 q 1500 503 1475 490 q 1553 522 1525 515 m 2289 514 q 2316 512 2304 515 q 2332 503 2328 508 q 2336 481 2333 499 q 2340 435 2339 463 q 2340 374 2342 408 q 2332 304 2339 340 q 2310 225 2325 264 q 2269 155 2296 186 q 2203 104 2243 124 q 2104 85 2163 85 q 2021 103 2056 86 q 1963 146 1986 119 q 1925 207 1939 172 q 1904 278 1911 242 q 1895 344 1897 311 q 1894 403 1893 376 q 1898 448 1896 429 q 1903 472 1900 467 q 1922 490 1906 483 q 1956 500 1938 496 q 1992 501 1976 503 q 2007 486 2008 499 q 2004 464 2006 481 q 2001 424 2003 447 q 2001 372 2000 400 q 2004 315 2001 344 q 2014 255 2007 285 q 2033 201 2021 225 q 2064 163 2046 178 q 2107 147 2082 149 q 2153 163 2133 147 q 2186 203 2172 178 q 2209 259 2200 228 q 2222 322 2218 290 q 2232 422 2231 375 q 2233 482 2233 468 q 2251 506 2233 499 q 2289 514 2269 514 m 1404 172 q 1513 274 1468 226 q 1547 315 1531 294 q 1573 356 1564 336 q 1583 391 1582 375 q 1572 418 1585 407 q 1524 439 1550 439 q 1474 428 1499 439 q 1428 402 1450 418 q 1393 372 1407 386 l 1393 367 q 1392 351 1396 360 q 1381 337 1388 343 q 1367 327 1374 331 q 1357 328 1360 324 q 1347 347 1356 329 q 1322 381 1338 364 q 1285 410 1307 399 q 1238 411 1264 421 q 1221 392 1222 406 q 1228 361 1219 379 q 1253 322 1236 343 q 1289 281 1269 301 q 1404 172 1335 232 m 646 300 q 672 310 656 300 q 702 331 688 319 q 725 353 717 343 q 726 368 733 364 q 688 376 713 375 q 651 372 664 378 q 639 333 643 349 q 635 308 636 318 q 646 300 635 297 z "},"U":{"ha":1410,"x_min":90,"x_max":1306,"o":"m 1186 625 q 1297 647 1192 625 l 1306 607 q 1266 599 1286 604 q 1221 588 1246 594 q 826 483 988 518 q 572 449 665 449 q 531 431 540 449 q 355 406 453 422 q 135 369 257 390 q 90 585 90 471 q 100 647 90 613 q 280 680 133 656 q 686 744 426 704 l 694 736 q 615 721 663 729 q 500 704 567 713 l 503 697 l 503 693 l 521 693 q 631 705 571 696 q 763 729 690 714 l 1004 781 l 1000 781 q 931 777 968 781 q 850 767 893 774 l 704 736 l 708 747 l 806 764 q 778 760 803 764 q 711 751 754 757 q 754 809 728 783 q 818 854 781 835 q 963 886 882 886 q 1133 846 1051 886 l 1133 844 l 1129 844 l 1139 842 q 1168 824 1151 836 q 1208 796 1185 811 l 1190 789 q 1199 790 1194 790 q 1208 789 1204 789 l 1213 789 q 1297 651 1301 692 l 1186 625 m 811 182 l 796 182 q 716 183 746 189 q 679 163 686 178 q 549 148 613 153 q 418 143 485 143 l 421 118 q 367 113 385 115 q 347 111 349 111 l 342 111 l 303 147 q 357 157 322 147 q 361 157 358 157 q 367 160 364 157 q 301 156 329 156 l 296 156 q 181 294 244 207 l 361 321 l 175 304 l 151 336 l 151 339 q 525 369 231 369 q 597 401 583 369 q 753 422 660 411 q 975 443 847 432 l 1107 443 l 1107 446 q 1146 448 1124 446 q 1200 453 1168 450 q 1296 461 1263 461 l 1296 458 l 1293 458 q 1218 300 1282 407 q 1117 168 1153 183 q 1022 149 1076 154 q 894 143 968 143 l 789 143 q 783 144 786 143 q 778 146 781 146 q 881 156 835 149 q 968 169 928 163 l 969 182 q 942 185 957 185 q 907 185 926 185 q 864 184 888 185 q 814 179 840 183 l 811 182 m 978 71 l 1022 74 q 968 21 992 39 q 874 17 929 21 q 743 8 818 14 l 804 8 q 838 6 824 6 q 863 6 853 6 q 901 9 876 6 q 965 18 926 13 l 831 -103 q 699 -197 717 -197 q 543 -78 679 -197 q 451 6 490 -32 q 381 71 411 43 l 506 71 l 508 69 l 619 69 l 624 67 l 907 67 l 799 60 l 599 60 l 599 47 q 633 39 618 40 q 660 38 649 38 l 729 38 q 853 42 771 38 q 926 46 896 44 q 978 47 957 47 l 978 71 m 354 749 q 275 747 308 747 q 219 747 242 747 q 180 747 197 747 q 150 749 163 747 q 444 886 253 886 q 585 849 518 886 q 686 749 651 814 l 500 749 l 496 751 l 358 751 l 354 749 m 756 206 l 750 206 q 658 200 714 206 q 528 179 603 194 q 515 178 521 179 q 503 178 510 178 q 582 169 565 169 q 624 192 613 169 l 756 206 m 460 124 q 556 140 501 135 q 679 146 610 146 l 771 146 q 740 142 756 143 q 708 140 724 140 q 550 130 611 135 q 460 124 489 125 m 1044 835 l 1044 836 q 1060 836 1051 836 q 1078 839 1069 836 q 970 832 1029 839 q 839 813 911 825 l 843 813 l 872 814 l 875 817 l 907 819 q 926 821 917 819 q 943 825 935 822 q 978 828 963 828 q 1000 829 993 829 l 1003 832 l 1044 835 m 743 694 q 826 704 778 694 q 943 735 875 714 q 842 714 892 724 q 740 694 792 704 l 743 694 m 467 160 q 499 175 490 160 l 424 165 q 431 164 426 165 q 438 163 435 163 q 454 161 447 163 q 467 160 461 160 m 660 369 q 549 348 611 358 q 408 326 486 338 l 411 326 q 567 347 417 326 l 567 350 q 615 358 590 354 q 667 369 639 363 l 660 369 m 1133 613 q 1088 607 1118 613 q 1013 588 1057 601 q 1076 600 1046 594 q 1139 613 1107 606 l 1133 613 m 907 67 l 907 69 l 956 69 l 907 67 m 444 124 l 457 124 q 454 122 456 124 q 450 121 453 121 l 444 124 m 1081 839 l 1089 839 l 1081 842 l 1081 839 m 965 71 l 965 69 l 960 71 l 965 71 m 739 694 l 739 693 l 740 693 l 740 694 l 739 694 m 856 543 l 856 540 l 858 540 l 858 543 l 856 543 m 839 813 l 836 813 l 836 810 l 839 810 l 839 813 m 868 546 q 864 544 865 546 q 860 543 863 543 q 864 544 863 543 q 868 546 865 546 m 814 764 l 811 767 l 811 764 l 814 764 m 1007 781 l 1007 783 l 1004 783 l 1007 781 z "},"V":{"ha":1665,"x_min":154,"x_max":1488,"o":"m 1269 938 q 1310 928 1288 943 q 1357 884 1333 914 q 1404 810 1381 854 q 1447 714 1428 767 q 1475 618 1465 664 q 1486 535 1485 572 q 1481 471 1488 497 q 1457 435 1474 444 q 1454 433 1456 433 q 1451 432 1453 432 l 1447 432 l 961 253 q 808 233 886 228 q 643 253 729 238 q 556 258 600 261 q 474 245 511 254 q 408 225 436 236 q 371 210 381 214 q 362 190 368 197 q 349 181 356 183 l 265 151 q 244 153 256 147 q 219 172 232 158 q 195 207 207 186 q 174 251 183 228 q 158 340 157 300 q 179 388 160 381 l 263 417 q 294 410 274 421 q 328 422 301 413 q 392 450 356 432 q 468 494 429 468 q 536 556 507 519 q 648 676 590 622 q 779 756 706 729 l 1260 931 l 1269 938 m 1196 628 l 1193 628 l 1193 632 q 1192 629 1193 631 q 1186 628 1190 628 q 1092 614 1133 617 q 1018 615 1051 611 q 957 626 985 618 q 903 644 929 633 q 812 652 849 665 q 760 611 775 639 q 751 551 744 583 q 786 504 757 519 q 812 499 796 500 q 847 501 828 499 q 801 461 815 488 q 802 400 789 431 q 843 355 815 369 q 907 351 871 340 q 976 417 943 363 q 1006 464 990 438 q 1044 519 1021 490 q 1101 575 1067 547 q 1186 626 1135 603 l 1190 626 l 1196 628 m 154 -101 q 163 -60 154 -85 q 183 -5 171 -36 q 209 62 196 26 q 233 138 222 97 q 255 60 243 97 q 277 -8 267 24 q 294 -63 288 -39 q 301 -101 301 -87 q 278 -186 301 -157 q 228 -215 256 -215 q 175 -186 196 -215 q 154 -101 154 -157 m 239 193 q 248 219 250 196 q 233 274 246 242 q 209 320 222 301 q 189 336 196 339 q 184 311 182 333 q 196 257 186 289 q 219 210 207 229 q 239 193 232 192 z "},"W":{"ha":669,"x_min":143,"x_max":522,"o":"m 510 -49 q 519 -51 517 -50 q 521 -64 521 -53 q 522 -94 521 -74 q 521 -124 522 -115 q 518 -131 521 -128 q 433 -178 471 -157 q 374 -212 401 -196 q 343 -229 346 -228 q 324 -228 333 -236 q 293 -212 319 -226 q 236 -182 267 -199 q 180 -151 206 -165 q 150 -136 154 -137 q 143 -131 143 -135 q 149 -128 143 -126 l 149 -68 q 151 -56 149 -58 q 161 -50 154 -54 q 179 -44 165 -50 q 208 -25 193 -37 q 236 6 224 -12 q 249 47 249 24 q 237 119 249 96 q 219 144 225 142 q 206 164 206 150 q 209 186 208 172 q 210 208 210 200 q 213 218 210 215 l 281 249 q 281 301 281 268 q 283 374 282 335 q 284 454 283 413 q 286 531 285 496 q 289 593 288 567 q 292 629 290 619 q 307 678 299 663 q 324 700 315 693 q 326 701 324 700 q 328 703 328 701 q 324 716 325 707 q 325 742 324 725 q 328 760 326 756 q 331 763 329 764 q 333 754 332 761 q 335 738 335 747 q 338 708 335 721 q 343 689 340 696 q 339 683 343 681 q 329 696 335 685 q 317 682 326 693 q 303 629 307 671 q 300 581 301 615 q 297 502 299 546 q 293 411 294 458 q 290 324 292 364 q 288 256 289 283 q 288 226 288 229 q 288 218 293 218 q 306 206 293 213 q 340 201 319 199 q 370 210 360 204 q 385 222 381 217 q 385 229 382 225 q 384 259 385 232 q 382 326 383 286 q 379 414 381 367 q 376 505 378 461 q 373 583 375 549 q 369 632 371 618 q 356 684 367 674 q 343 697 346 694 q 340 704 338 703 q 350 703 343 706 q 366 681 358 696 q 381 632 374 665 q 383 596 382 622 q 386 533 385 569 q 389 456 388 497 q 391 375 390 414 q 392 303 392 336 q 392 250 392 269 l 456 222 q 458 219 458 222 l 461 219 l 461 213 q 462 190 461 204 q 463 168 463 176 q 451 149 467 156 q 433 123 446 146 q 421 51 421 100 q 433 10 421 28 q 462 -21 446 -8 q 492 -40 478 -33 q 510 -49 506 -47 m 258 47 q 240 -6 256 15 q 207 -40 225 -28 q 160 -64 186 -56 l 339 -154 l 504 -60 q 483 -49 497 -56 q 453 -28 468 -42 q 425 3 438 -15 q 411 49 413 22 q 415 103 410 82 q 429 136 421 124 l 343 88 l 231 147 q 251 113 240 136 q 258 47 261 90 m 514 -128 l 514 -124 q 513 -110 514 -121 q 511 -89 513 -100 q 510 -60 510 -75 l 339 -164 l 160 -75 q 158 -106 160 -86 q 157 -128 157 -125 l 157 -131 l 332 -225 l 514 -128 m 343 97 l 439 149 q 443 153 442 151 q 447 157 444 156 q 451 160 450 158 l 451 208 l 340 147 l 219 201 l 219 158 l 343 97 m 219 208 l 340 153 l 450 213 l 392 240 q 390 231 392 233 l 390 229 q 390 225 390 226 q 389 222 389 224 q 388 219 388 221 q 372 203 382 211 q 339 196 361 196 q 299 204 308 196 q 286 218 289 213 q 285 221 285 219 q 283 229 283 222 q 281 238 281 231 l 219 208 m 313 719 q 301 726 307 719 q 290 745 294 733 q 283 771 285 757 q 283 797 281 785 q 294 834 286 814 q 310 873 301 854 q 325 908 318 892 q 335 932 332 924 q 344 947 339 951 q 347 931 350 942 q 353 893 346 919 q 369 831 361 867 q 369 771 376 796 q 357 738 361 746 q 344 728 350 731 q 340 733 338 726 q 351 749 343 739 q 361 796 358 760 q 358 829 361 808 q 351 869 356 850 q 340 919 346 893 q 319 876 329 899 q 303 836 311 857 q 292 796 294 815 q 292 765 289 778 q 300 744 294 753 q 314 729 306 735 q 322 723 322 726 q 313 719 322 719 m 343 -17 q 342 -57 342 -36 q 342 -96 342 -78 q 341 -126 342 -114 q 339 -139 340 -137 q 335 -129 336 -140 q 335 -101 335 -118 q 335 -65 335 -85 q 335 -31 335 -46 q 335 3 335 -15 q 338 38 336 22 q 340 65 339 54 q 343 74 342 75 q 344 45 346 71 q 343 -17 343 19 z "},"X":{"ha":1321,"x_min":104,"x_max":1201,"o":"m 604 313 q 626 323 614 319 q 649 322 638 326 q 670 306 661 318 q 686 271 679 294 q 682 203 692 243 q 664 129 672 163 q 654 83 653 97 q 647 73 656 76 q 626 69 638 69 q 607 68 615 67 q 596 76 599 69 q 584 85 593 79 q 561 99 575 92 q 529 117 546 107 q 497 137 513 126 q 468 158 481 147 q 450 179 456 169 q 443 210 442 194 q 453 240 444 226 q 476 260 461 253 q 508 268 490 268 q 531 267 521 269 q 549 260 540 264 l 564 251 q 576 284 567 267 q 604 313 586 301 m 628 446 q 643 447 639 450 q 647 440 647 444 q 633 421 650 428 q 590 411 614 413 q 540 414 565 410 q 491 427 515 418 q 446 449 467 436 q 466 402 457 425 q 482 368 475 379 q 476 355 488 358 q 449 354 464 351 q 425 359 435 356 q 413 368 415 363 q 398 408 408 383 q 377 458 388 433 q 359 503 367 483 q 351 531 351 524 q 364 547 351 535 q 396 574 376 560 q 440 601 415 589 q 488 615 464 613 q 528 603 511 618 q 549 567 544 589 q 532 522 551 544 q 493 489 513 500 q 520 463 503 474 q 557 447 538 453 q 596 441 576 442 q 628 446 615 440 m 790 479 q 734 463 760 464 q 688 472 708 463 q 651 499 667 482 q 624 535 635 515 q 596 596 604 567 q 588 635 588 625 q 599 648 589 642 q 624 658 608 654 q 656 663 640 664 q 669 656 671 663 q 677 622 669 649 q 700 567 685 594 q 733 526 715 542 q 771 521 750 510 q 791 558 792 531 q 782 617 790 586 q 762 672 774 647 q 747 700 750 696 q 749 711 744 706 q 760 719 753 717 q 779 717 772 728 q 799 680 783 711 q 826 610 815 649 q 832 534 836 571 q 790 479 828 497 m 1178 361 q 1199 353 1192 368 q 1200 342 1201 347 q 1193 333 1199 336 q 1163 317 1185 331 q 1121 289 1142 304 q 1093 269 1106 278 q 1075 256 1081 260 q 1061 250 1072 250 q 1039 253 1050 250 q 1014 263 1025 257 q 1001 276 1003 269 q 994 307 1001 283 q 976 356 988 331 q 963 392 969 375 q 953 419 957 408 q 949 457 943 443 q 961 475 954 471 q 990 488 967 478 q 1040 507 1013 497 q 1065 517 1053 513 q 1088 525 1076 522 q 1113 521 1104 529 q 1116 509 1118 517 q 1107 500 1114 501 q 1083 488 1100 497 q 1049 468 1067 479 q 1032 458 1039 463 q 1018 451 1025 454 q 1004 443 1011 447 l 1021 393 q 1033 397 1028 394 q 1046 401 1039 400 q 1061 406 1053 403 q 1091 416 1076 410 q 1113 426 1106 422 q 1122 426 1118 429 q 1128 417 1126 424 q 1121 401 1131 406 q 1102 392 1115 400 q 1074 374 1089 383 q 1060 366 1067 369 q 1049 360 1054 363 q 1038 353 1043 356 l 1054 304 q 1074 313 1064 307 q 1093 321 1082 317 q 1115 332 1104 325 l 1178 361 m 1063 657 q 1081 654 1071 661 q 1092 645 1088 651 q 1090 636 1096 639 l 1028 589 l 992 560 q 972 552 983 553 q 947 554 960 551 q 926 563 936 557 q 910 571 915 568 q 896 594 907 574 q 874 643 885 615 q 849 703 858 675 q 842 736 839 732 q 867 753 847 743 q 910 774 886 763 q 953 793 933 785 q 979 804 972 801 q 1000 797 989 808 q 1009 786 1007 792 q 1006 778 1011 781 q 984 767 999 775 q 953 747 969 758 q 911 721 933 735 l 924 688 l 976 707 q 1000 717 989 713 q 1014 724 1011 721 q 1022 724 1018 726 q 1025 717 1025 722 q 1022 708 1024 713 q 1015 701 1021 704 l 982 676 l 943 647 l 961 604 l 1008 628 q 1044 645 1028 636 q 1063 657 1060 654 m 882 438 q 900 444 893 446 q 908 438 904 443 q 908 426 911 433 q 902 389 904 415 q 901 329 900 363 q 906 261 903 296 q 917 200 910 226 q 910 188 919 193 q 886 179 900 182 q 856 174 871 175 q 838 178 840 174 q 812 211 835 183 q 764 269 789 239 q 728 309 744 292 q 704 331 711 326 q 699 344 696 335 q 714 363 703 354 q 735 375 724 369 q 757 378 746 381 q 778 359 763 375 q 811 322 793 343 q 840 288 826 304 q 861 261 854 271 q 863 300 863 276 q 867 349 864 324 q 872 406 869 381 q 882 438 875 431 m 182 429 q 147 415 163 421 q 126 408 132 410 q 115 410 119 406 q 107 422 110 415 q 106 438 104 429 q 113 450 107 446 q 142 464 126 457 q 170 478 154 471 q 204 492 186 485 q 264 515 236 504 q 297 522 292 525 q 317 508 307 518 q 326 495 324 501 q 321 486 329 489 q 295 474 315 483 q 247 454 275 465 q 263 412 251 438 q 286 360 275 386 q 307 315 297 335 q 317 289 317 294 q 305 278 318 282 q 276 276 292 275 q 253 278 264 276 q 238 282 242 279 q 226 303 233 285 q 211 344 219 321 q 194 390 203 367 q 182 429 186 414 m 483 75 q 505 66 499 76 q 500 49 511 56 q 481 37 494 46 q 450 17 467 28 q 413 -12 431 1 q 392 -32 396 -25 q 376 -38 388 -39 q 353 -33 365 -37 q 332 -22 342 -29 q 322 -6 322 -14 q 312 27 321 3 q 292 79 303 51 q 271 130 281 107 q 256 158 261 153 q 256 174 249 165 q 275 190 263 182 q 299 203 286 199 q 317 206 311 208 q 334 174 322 203 q 360 113 346 144 q 393 26 375 74 q 404 33 399 29 q 416 40 410 36 q 431 49 422 44 q 461 66 446 58 q 483 75 476 74 m 618 131 q 631 188 626 163 q 633 229 633 210 q 622 256 633 249 q 598 254 607 264 q 582 231 589 244 l 585 228 q 583 207 590 219 q 574 190 581 197 q 564 186 567 183 q 556 194 564 188 q 540 208 549 200 q 515 222 528 218 q 497 210 501 225 q 513 184 494 199 q 556 158 532 169 q 618 131 582 143 m 428 499 q 454 515 439 504 q 483 538 469 526 q 506 560 497 550 q 511 576 514 571 q 490 581 504 586 q 459 566 475 576 q 431 544 443 556 q 418 531 418 533 q 428 499 421 524 z "}}}
